<?xml version="1.0" encoding="UTF-8" standalone="no"?>
<!-- Created with Inkscape (http://www.inkscape.org/) -->

<svg
   xmlns:dc="http://purl.org/dc/elements/1.1/"
   xmlns:cc="http://creativecommons.org/ns#"
   xmlns:rdf="http://www.w3.org/1999/02/22-rdf-syntax-ns#"
   xmlns:svg="http://www.w3.org/2000/svg"
   xmlns="http://www.w3.org/2000/svg"
   xmlns:sodipodi="http://sodipodi.sourceforge.net/DTD/sodipodi-0.dtd"
   xmlns:inkscape="http://www.inkscape.org/namespaces/inkscape"
   width="1024"
   height="600"
   viewBox="0 0 270.93333 158.75"
   version="1.1"
   id="svg841"
   inkscape:version="0.92.3 (2405546, 2018-03-11)"
   sodipodi:docname="background.svg">
  <defs
     id="defs835" />
  <sodipodi:namedview
     id="base"
     pagecolor="#ffffff"
     bordercolor="#666666"
     borderopacity="1.0"
     inkscape:pageopacity="0.0"
     inkscape:pageshadow="2"
     inkscape:zoom="0.7"
     inkscape:cx="410.18717"
     inkscape:cy="343.10699"
     inkscape:document-units="mm"
     inkscape:current-layer="layer1"
     showgrid="false"
     inkscape:window-width="1920"
     inkscape:window-height="1025"
     inkscape:window-x="0"
     inkscape:window-y="27"
     inkscape:window-maximized="1"
     units="px" />
  <metadata
     id="metadata838">
    <rdf:RDF>
      <cc:Work
         rdf:about="">
        <dc:format>image/svg+xml</dc:format>
        <dc:type
           rdf:resource="http://purl.org/dc/dcmitype/StillImage" />
        <dc:title></dc:title>
      </cc:Work>
    </rdf:RDF>
  </metadata>
  <g
     inkscape:label="Layer 1"
     inkscape:groupmode="layer"
     id="layer1"
     transform="translate(0,-138.25001)">
    <g
       id="g1499"
       transform="matrix(0.24897402,0,0,0.24897402,6.3992229,210.26868)">
      <rect
         ry="0.14174099"
         y="-315.32141"
         x="-25.702381"
         height="675.82141"
         width="1105.2024"
         id="rect1386"
         style="opacity:1;fill:#999999;fill-opacity:1;stroke:none;stroke-width:0.26499999;stroke-miterlimit:4;stroke-dasharray:none;stroke-opacity:1" />
      <path
         sodipodi:nodetypes="cccccccccc"
         inkscape:connector-curvature="0"
         id="path1388"
         d="m 25.702381,-263.91667 34.269841,35.27778 75.595238,28.22223 50.39683,5.03968 142.11904,-52.4127 -87.69046,52.4127 -61.48413,25.19841 -65.57416,-2.76282 -38.243307,-20.41972 z"
         style="fill:#b3b3b3;fill-opacity:1;stroke:none;stroke-width:0.17638889px;stroke-linecap:butt;stroke-linejoin:miter;stroke-opacity:1" />
      <path
         style="fill:#b3b3b3;fill-opacity:1;stroke:none;stroke-width:0.17638889px;stroke-linecap:butt;stroke-linejoin:miter;stroke-opacity:1"
         d="m 1044.7262,239.54762 -34.2699,35.27778 -75.5952,28.22223 -50.39683,5.03968 -142.11904,-52.4127 87.69046,52.4127 61.48413,25.19841 65.57416,-2.76282 38.2433,-20.41972 z"
         id="path1390"
         inkscape:connector-curvature="0"
         sodipodi:nodetypes="cccccccccc" />
      <path
         sodipodi:nodetypes="cccccccccc"
         inkscape:connector-curvature="0"
         id="path1392"
         d="m 654.65477,80.797634 -34.2699,-35.27778 -75.5952,-28.22223 -50.39683,-5.03968 -142.11904,52.4127 87.69046,-52.4127 61.48413,-25.19841 65.57416,2.76282 38.2433,20.41972 z"
         style="fill:#b3b3b3;fill-opacity:1;stroke:none;stroke-width:0.17638889px;stroke-linecap:butt;stroke-linejoin:miter;stroke-opacity:1" />
      <path
         sodipodi:nodetypes="cccccccccsccccc"
         inkscape:connector-curvature="0"
         id="path1394"
         d="M -25.702381,289.44047 C -16.630952,275.83334 46.869048,183.60714 46.869048,183.60714 L 84.666666,101.96429 133.04762,30.904771 229.80952,6.7142876 329.59524,-29.571438 368.90475,-133.89285 353.78572,-23.523804 293.30951,18.809529 c 0,0 -95.24999,25.702366 -101.29761,25.702366 -6.04762,0 -46.86904,37.797633 -46.86904,37.797633 l -31.75,43.845242 -19.654767,57.45236 -48.380951,48.38097 z"
         style="fill:#b3b3b3;stroke:none;stroke-width:0.26458332px;stroke-linecap:butt;stroke-linejoin:miter;stroke-opacity:1" />
      <path
         inkscape:connector-curvature="0"
         id="path1396"
         d="m 184.45238,319.67857 c 0,0 128.51188,-42.33333 134.55952,-45.35715 C 325.05951,271.29761 453.57141,201.75 453.57141,201.75 l 51.40476,21.16667 39.30954,90.71427 -42.33333,-46.86903 -48.38097,-28.72621 -83.15475,34.77382 -77.10715,37.79763 z"
         style="fill:#b3b3b3;stroke:none;stroke-width:0.26458332px;stroke-linecap:butt;stroke-linejoin:miter;stroke-opacity:1" />
      <path
         style="fill:#b3b3b3;stroke:none;stroke-width:0.14061013px;stroke-linecap:butt;stroke-linejoin:miter;stroke-opacity:1"
         d="m 1047.75,-197.39286 c 0,0 -57.77635,-26.59401 -60.49525,-28.49359 -2.71888,-1.89957 -60.49524,-45.58974 -60.49524,-45.58974 l -23.11054,13.29701 -17.67278,56.98717 19.03221,-29.44336 21.75111,-18.04596 37.3847,21.8451 34.66582,23.74466 z"
         id="path1398"
         inkscape:connector-curvature="0" />
      <path
         sodipodi:nodetypes="ccccccccccccc"
         inkscape:connector-curvature="0"
         id="path1400"
         d="m 524.63093,-286.59523 78.61906,119.44047 123.97618,46.86906 139.09525,3.0238 74.08337,27.214281 74.08331,172.35716 -83.15477,-131.535722 -51.40476,-30.23811 -40.82145,-3.023794 -77.10713,-1.511917 -93.73809,-7.559516 -110.36905,-80.130962 z"
         style="fill:#b3b3b3;stroke:none;stroke-width:0.26458332px;stroke-linecap:butt;stroke-linejoin:miter;stroke-opacity:1" />
    </g>
  </g>
</svg>
