<?xml version="1.0" encoding="UTF-8" standalone="no"?>
<!-- Created with Inkscape (http://www.inkscape.org/) -->

<svg
   xmlns:dc="http://purl.org/dc/elements/1.1/"
   xmlns:cc="http://creativecommons.org/ns#"
   xmlns:rdf="http://www.w3.org/1999/02/22-rdf-syntax-ns#"
   xmlns:svg="http://www.w3.org/2000/svg"
   xmlns="http://www.w3.org/2000/svg"
   xmlns:sodipodi="http://sodipodi.sourceforge.net/DTD/sodipodi-0.dtd"
   xmlns:inkscape="http://www.inkscape.org/namespaces/inkscape"
   width="8000"
   height="400"
   viewBox="0 0 2116.6666 105.83333"
   version="1.1"
   id="svg11295"
   inkscape:version="0.92.3 (2405546, 2018-03-11)"
   sodipodi:docname="stage.svg">
  <defs
     id="defs11289" />
  <sodipodi:namedview
     id="base"
     pagecolor="#ffffff"
     bordercolor="#666666"
     borderopacity="1.0"
     inkscape:pageopacity="0.0"
     inkscape:pageshadow="2"
     inkscape:zoom="0.35"
     inkscape:cx="6039.812"
     inkscape:cy="29.612964"
     inkscape:document-units="mm"
     inkscape:current-layer="layer1"
     showgrid="false"
     inkscape:window-width="1920"
     inkscape:window-height="1018"
     inkscape:window-x="0"
     inkscape:window-y="34"
     inkscape:window-maximized="1"
     units="px" />
  <metadata
     id="metadata11292">
    <rdf:RDF>
      <cc:Work
         rdf:about="">
        <dc:format>image/svg+xml</dc:format>
        <dc:type
           rdf:resource="http://purl.org/dc/dcmitype/StillImage" />
        <dc:title />
      </cc:Work>
    </rdf:RDF>
  </metadata>
  <g
     inkscape:label="ground"
     inkscape:groupmode="layer"
     id="layer1"
     transform="translate(0,-191.16668)"
     style="display:inline">
    <path
       inkscape:export-ydpi="856.98877"
       inkscape:export-xdpi="856.98877"
       sodipodi:nodetypes="ccccssssscsssssssassssscsssscccccc"
       inkscape:connector-curvature="0"
       id="path821"
       d="m -7.7794014,161.42778 94.9777514,3.25613 0.659811,115.28929 c 0,0 17.363579,2.72462 44.401879,1.9425 0,0 64.85279,-1.94225 96.63946,-4.37067 39.53637,-3.0205 78.18312,-7.61446 116.22844,-12.62651 32.92078,-4.33689 64.21323,-10.22977 96.63937,-15.05461 32.87639,-4.89182 64.67825,-11.23651 99.25131,-14.08339 29.82703,-2.45608 61.00069,-3.49333 91.41566,-2.42818 37.21399,1.30325 108.39281,10.68402 108.39281,10.68402 0,0 65.3175,10.89467 99.25125,15.0546 21.75918,2.66739 43.87029,5.25278 66.60292,6.3132 13.82158,0.6448 27.86065,-0.0518 41.79003,0 21.76889,0.0809 43.58417,1.07266 65.29701,0.48565 31.691,-0.85679 62.6762,-3.90438 94.0274,-5.82758 21.3245,-1.30818 43.0923,-1.8362 63.9909,-3.88509 29.166,-2.85932 56.0648,-8.3476 84.886,-11.65519 29.1555,-3.34597 60.0728,-4.43567 88.8038,-8.25578 33.5542,-4.46143 63.155,-12.46389 96.6394,-16.99722 25.7959,-3.49236 52.2642,-7.12903 79.6623,-7.77011 16.6514,-0.38971 33.7167,0.55841 49.6257,2.42815 31.376,3.6875 57.4143,12.03898 87.4977,16.99716 16.1169,2.65633 32.2433,5.7066 49.6257,6.79891 23.6114,1.48376 71.8266,-0.48562 71.8266,-0.48562 0,0 87.4978,-2.42818 92.7217,-2.42818 5.2236,0 49.9923,-3.15647 73.1324,-6.79891 31.1474,-4.90286 55.1265,-14.93668 86.1919,-19.91094 15.7106,-2.51562 32.7056,-3.92357 49.6257,-4.85638 11.6343,-0.64132 35.2602,-0.48562 35.2602,-0.48562 l -5.2237,-84.50017 h 15.6712 l 2.612,182.59815 -2135.2086408,-6.79885 z"
       style="fill:#43e048;fill-opacity:1;stroke:none;stroke-width:0.55833775;stroke-linecap:butt;stroke-linejoin:miter;stroke-miterlimit:4;stroke-dasharray:none;stroke-opacity:1" />
    <path
       style="fill:#00aa00;stroke:none;stroke-width:0.55833775;stroke-linecap:butt;stroke-linejoin:miter;stroke-miterlimit:4;stroke-dasharray:none;stroke-opacity:1"
       d="m -23.281034,160.89324 105.973409,4.05794 0.403286,115.02202 c 0,0 -1.091904,1.20582 4.7625,2.64585 12.429679,3.05731 44.401879,1.9425 44.401879,1.9425 0,0 64.85279,-1.94225 96.63946,-4.37067 39.53637,-3.0205 78.18312,-7.61446 116.22844,-12.62651 32.92078,-4.33689 64.21323,-10.22977 96.63937,-15.05461 32.87639,-4.89182 64.67825,-11.23651 99.25131,-14.08339 29.82703,-2.45608 61.00069,-3.49333 91.41566,-2.42818 37.21399,1.30325 108.39281,10.68402 108.39281,10.68402 0,0 65.3175,10.89467 99.25125,15.0546 21.75918,2.66739 43.87029,5.25278 66.60292,6.3132 13.82158,0.6448 27.86065,-0.0518 41.79003,0 21.76889,0.0809 43.58417,1.07266 65.29701,0.48565 31.691,-0.85679 62.6762,-3.90438 94.0274,-5.82758 21.3245,-1.30818 43.0923,-1.8362 63.9909,-3.88509 29.166,-2.85932 56.0648,-8.3476 84.886,-11.65519 29.1555,-3.34597 60.0728,-4.43567 88.8038,-8.25578 33.5542,-4.46143 63.155,-12.46389 96.6394,-16.99722 25.7959,-3.49236 52.2642,-7.12903 79.6623,-7.77011 16.6514,-0.38971 33.7167,0.55841 49.6257,2.42815 31.376,3.6875 57.4143,12.03898 87.4977,16.99716 16.1169,2.65633 32.2433,5.7066 49.6257,6.79891 23.6114,1.48376 71.8266,-0.48562 71.8266,-0.48562 0,0 87.4978,-2.42818 92.7217,-2.42818 5.2236,0 49.9923,-3.15647 73.1324,-6.79891 31.1474,-4.90286 55.1265,-14.93668 86.1919,-19.91094 15.7106,-2.51562 32.7056,-3.92357 49.6257,-4.85638 11.6343,-0.64132 35.2602,-0.48562 35.2602,-0.48562 l -5.2237,-84.50017 h 15.6712 l 2.612,182.59815 -2151.779351,45.58598 z"
       id="path12550"
       inkscape:connector-curvature="0"
       sodipodi:nodetypes="cccscssssscsssssssassssscsssscccccc"
       inkscape:export-xdpi="856.98877"
       inkscape:export-ydpi="856.98877" />
    <path
       style="fill:#786721;stroke:none;stroke-width:0.20642957px;stroke-linecap:butt;stroke-linejoin:miter;stroke-opacity:1"
       d="m 359.73649,282.25355 c 60.86607,-12.68809 121.73214,-35.60631 182.59822,-38.06427 l 64.69675,2.20166 71.54021,2.94032 c -23.29777,1.14734 -47.19094,-1.28751 -71.53671,-0.0833 -29.26414,1.44743 -59.18223,0.29854 -89.50631,4.36112 -51.82423,6.94301 -104.83421,20.39 -157.79216,28.64452 z"
       id="path822"
       inkscape:connector-curvature="0"
       sodipodi:nodetypes="ccccssc" />
    <path
       style="display:inline;fill:#786721;stroke:none;stroke-width:0.13075517px;stroke-linecap:butt;stroke-linejoin:miter;stroke-opacity:1"
       d="m 1457.2093,235.05685 c 40.3444,-2.7039 82.7167,-11.73593 121.0332,-8.11168 l 39.7737,6.83037 43.8806,7.86573 c -14.7074,-1.25951 -29.0748,-4.78523 -44.4448,-6.09821 -18.475,-1.57818 -36.8419,-4.81767 -56.4941,-4.86778 -33.5859,-0.0856 -69.1981,3.75173 -103.7486,4.38155 z"
       id="path822-3"
       inkscape:connector-curvature="0"
       sodipodi:nodetypes="ccccssc" />
    <path
       sodipodi:nodetypes="ccccssc"
       inkscape:connector-curvature="0"
       id="path841"
       d="m 1719.5248,258.38629 c 40.3444,2.7039 82.7167,11.73593 121.0332,8.11168 l 39.7737,-6.83037 43.8806,-7.86573 c -14.7074,1.25951 -29.0748,4.78523 -44.4448,6.09821 -18.475,1.57818 -36.8419,4.81767 -56.4941,4.86778 -33.5859,0.0856 -69.1981,-3.75173 -103.7486,-4.38155 z"
       style="display:inline;fill:#786721;stroke:none;stroke-width:0.13075517px;stroke-linecap:butt;stroke-linejoin:miter;stroke-opacity:1" />
    <path
       sodipodi:nodetypes="ccccssc"
       inkscape:connector-curvature="0"
       id="path843"
       d="m 2005.0324,242.58124 c 20.6849,-6.17965 41.6772,-15.89381 62.0548,-18.53894 l 21.5155,-1.14825 23.7762,-1.09498 c -7.8062,1.08383 -15.7034,0.94758 -23.8609,2.08194 -9.8054,1.36355 -19.751,1.84938 -29.9886,4.14774 -17.4962,3.92794 -35.5833,10.13797 -53.497,14.55248 z"
       style="display:inline;fill:#786721;stroke:none;stroke-width:0.06981052px;stroke-linecap:butt;stroke-linejoin:miter;stroke-opacity:1" />
    <path
       inkscape:export-ydpi="856.98877"
       inkscape:export-xdpi="856.98877"
       sodipodi:nodetypes="cccscssssscsssssssassssscsssscccccc"
       inkscape:connector-curvature="0"
       id="path849"
       d="m -23.281034,165.1266 105.973409,4.05794 0.403286,115.02202 c 0,0 -1.091904,1.20582 4.7625,2.64585 12.429679,3.05731 44.401879,1.9425 44.401879,1.9425 0,0 64.85279,-1.94225 96.63946,-4.37067 39.53637,-3.0205 78.18312,-7.61446 116.22844,-12.62651 32.92078,-4.33689 64.21323,-10.22977 96.63937,-15.05461 32.87639,-4.89182 64.67825,-11.23651 99.25131,-14.08339 29.82703,-2.45608 61.00069,-3.49333 91.41566,-2.42818 37.21399,1.30325 108.39281,10.68402 108.39281,10.68402 0,0 65.3175,10.89467 99.25125,15.0546 21.75918,2.66739 43.87029,5.25278 66.60292,6.3132 13.82158,0.6448 27.86065,-0.0518 41.79003,0 21.76889,0.0809 43.58417,1.07266 65.29701,0.48565 31.691,-0.85679 62.6762,-3.90438 94.0274,-5.82758 21.3245,-1.30818 43.0923,-1.8362 63.9909,-3.88509 29.166,-2.85932 56.0648,-8.3476 84.886,-11.65519 29.1555,-3.34597 60.0728,-4.43567 88.8038,-8.25578 33.5542,-4.46143 63.155,-12.46389 96.6394,-16.99722 25.7959,-3.49236 52.2642,-7.12903 79.6623,-7.77011 16.6514,-0.38971 33.7167,0.55841 49.6257,2.42815 31.376,3.6875 57.4143,12.03898 87.4977,16.99716 16.1169,2.65633 32.2433,5.7066 49.6257,6.79891 23.6114,1.48376 71.8266,-0.48562 71.8266,-0.48562 0,0 87.4978,-2.42818 92.7217,-2.42818 5.2236,0 49.9923,-3.15647 73.1324,-6.79891 31.1474,-4.90286 55.1265,-14.93668 86.1919,-19.91094 15.7106,-2.51562 32.7056,-3.92357 49.6257,-4.85638 11.6343,-0.64132 35.2602,-0.48562 35.2602,-0.48562 l -5.2237,-84.50017 h 15.6712 l 2.612,182.59815 -2151.779351,45.58598 z"
       style="fill:#005500;stroke:none;stroke-width:0.55833775;stroke-linecap:butt;stroke-linejoin:miter;stroke-miterlimit:4;stroke-dasharray:none;stroke-opacity:1" />
    <path
       style="fill:#786721;fill-opacity:1;stroke:none;stroke-width:0.55833775;stroke-linecap:butt;stroke-linejoin:miter;stroke-miterlimit:4;stroke-dasharray:none;stroke-opacity:1"
       d="m -23.281034,172.00581 105.973409,4.05794 0.403286,115.02202 c 0,0 -1.091904,1.20582 4.7625,2.64585 12.429679,3.05731 44.401879,1.9425 44.401879,1.9425 0,0 64.85279,-1.94225 96.63946,-4.37067 39.53637,-3.0205 78.18312,-7.61446 116.22844,-12.62651 32.92078,-4.33689 64.21323,-10.22977 96.63937,-15.05461 32.87639,-4.89182 64.67825,-11.23651 99.25131,-14.08339 29.82703,-2.45608 61.00069,-3.49333 91.41566,-2.42818 37.21399,1.30325 108.39281,10.68402 108.39281,10.68402 0,0 65.3175,10.89467 99.25125,15.0546 21.75918,2.66739 43.87029,5.25278 66.60292,6.3132 13.82158,0.6448 27.86065,-0.0518 41.79003,0 21.76889,0.0809 43.58417,1.07266 65.29701,0.48565 31.691,-0.85679 62.6762,-3.90438 94.0274,-5.82758 21.3245,-1.30818 43.0923,-1.8362 63.9909,-3.88509 29.166,-2.85932 56.0648,-8.3476 84.886,-11.65519 29.1555,-3.34597 60.0728,-4.43567 88.8038,-8.25578 33.5542,-4.46143 63.155,-12.46389 96.6394,-16.99722 25.7959,-3.49236 52.2642,-7.12903 79.6623,-7.77011 16.6514,-0.38971 33.7167,0.55841 49.6257,2.42815 31.376,3.6875 57.4143,12.03898 87.4977,16.99716 16.1169,2.65633 32.2433,5.7066 49.6257,6.79891 23.6114,1.48376 71.8266,-0.48562 71.8266,-0.48562 0,0 87.4978,-2.42818 92.7217,-2.42818 5.2236,0 49.9923,-3.15647 73.1324,-6.79891 31.1474,-4.90286 55.1265,-14.93668 86.1919,-19.91094 15.7106,-2.51562 32.7056,-3.92357 49.6257,-4.85638 11.6343,-0.64132 35.2602,-0.48562 35.2602,-0.48562 l -5.2237,-84.50017 h 15.6712 l 2.612,182.59815 -2151.779351,45.58598 z"
       id="path851"
       inkscape:connector-curvature="0"
       sodipodi:nodetypes="cccscssssscsssssssassssscsssscccccc"
       inkscape:export-xdpi="856.98877"
       inkscape:export-ydpi="856.98877" />
    <rect
       style="fill:#552200;fill-opacity:1;stroke:none;stroke-width:0.26458332"
       id="rect1289"
       width="205.61903"
       height="73.327377"
       x="536.7262"
       y="88.357162" />
    <circle
       style="fill:#000000;fill-opacity:1;stroke:none;stroke-width:0.26458332"
       id="path1291"
       cx="597.58038"
       cy="112.92561"
       r="14.741072" />
  </g>
  <g
     inkscape:groupmode="layer"
     id="layer3"
     inkscape:label="parallax"
     transform="translate(0,-423.33334)" />
  <g
     inkscape:groupmode="layer"
     id="layer2"
     inkscape:label="details"
     transform="translate(0,-423.33334)" />
</svg>
