<?xml version="1.0" encoding="UTF-8" standalone="no"?>
<!-- Created with Inkscape (http://www.inkscape.org/) -->

<svg
   xmlns:dc="http://purl.org/dc/elements/1.1/"
   xmlns:cc="http://creativecommons.org/ns#"
   xmlns:rdf="http://www.w3.org/1999/02/22-rdf-syntax-ns#"
   xmlns:svg="http://www.w3.org/2000/svg"
   xmlns="http://www.w3.org/2000/svg"
   xmlns:sodipodi="http://sodipodi.sourceforge.net/DTD/sodipodi-0.dtd"
   xmlns:inkscape="http://www.inkscape.org/namespaces/inkscape"
   width="8000"
   height="400"
   viewBox="0 0 2116.6666 105.83333"
   version="1.1"
   id="svg11295"
   inkscape:version="0.92.3 (2405546, 2018-03-11)"
   sodipodi:docname="stage.svg">
  <defs
     id="defs11289">
    <clipPath
       clipPathUnits="userSpaceOnUse"
       id="clipPath1034">
      <path
         sodipodi:type="star"
         style="fill:none;fill-opacity:1;stroke:#000000;stroke-width:0.26458332;stroke-opacity:1"
         id="path1036"
         sodipodi:sides="5"
         sodipodi:cx="659.19049"
         sodipodi:cy="-292.64282"
         sodipodi:r1="152.9118"
         sodipodi:r2="76.455902"
         sodipodi:arg1="0.76442222"
         sodipodi:arg2="1.3927408"
         inkscape:flatsided="false"
         inkscape:rounded="0"
         inkscape:randomized="0"
         d="m 769.55954,-186.80949 -96.82747,-30.5862 -80.08915,62.42436 -0.83213,-101.54004 -84.118,-56.87912 96.31318,-32.169 28.10136,-97.57759 60.35695,81.65851 101.4856,-3.42715 -59.01054,82.63673 z"
         inkscape:transform-center-x="8.3691636"
         inkscape:transform-center-y="-6.4113726" />
    </clipPath>
    <clipPath
       clipPathUnits="userSpaceOnUse"
       id="clipPath1038">
      <path
         sodipodi:type="star"
         style="fill:none;fill-opacity:1;stroke:#000000;stroke-width:0.26458332;stroke-opacity:1"
         id="path1040"
         sodipodi:sides="5"
         sodipodi:cx="659.19049"
         sodipodi:cy="-292.64282"
         sodipodi:r1="152.9118"
         sodipodi:r2="76.455902"
         sodipodi:arg1="0.76442222"
         sodipodi:arg2="1.3927408"
         inkscape:flatsided="false"
         inkscape:rounded="0"
         inkscape:randomized="0"
         d="m 769.55954,-186.80949 -96.82747,-30.5862 -80.08915,62.42436 -0.83213,-101.54004 -84.118,-56.87912 96.31318,-32.169 28.10136,-97.57759 60.35695,81.65851 101.4856,-3.42715 -59.01054,82.63673 z"
         inkscape:transform-center-x="8.3691636"
         inkscape:transform-center-y="-6.4113726" />
    </clipPath>
    <clipPath
       clipPathUnits="userSpaceOnUse"
       id="clipPath79570">
      <path
         style="fill:none;fill-opacity:1;stroke:#000000;stroke-width:0.55833775;stroke-linecap:butt;stroke-linejoin:miter;stroke-miterlimit:4;stroke-dasharray:none;stroke-opacity:1"
         d="m -25.601784,-594.1084 105.973404,4.05791 0.403305,115.022 c 0,0 -1.091909,1.20589 4.7625,2.64588 12.429675,3.05732 44.401875,1.94252 44.401875,1.94252 0,0 64.85278,-1.94231 96.63945,-4.3707 39.53636,-3.02051 78.18312,-7.61442 116.22844,-12.6265 32.92078,-4.33692 64.21323,-10.2298 96.63937,-15.05461 32.87639,-4.8918 64.67825,-11.23651 99.25131,-14.0834 29.82703,-2.4561 61.00069,-3.49329 91.41566,-2.42819 37.21399,1.30329 108.39281,10.68409 108.39281,10.68409 0,0 65.3175,10.89459 99.25124,15.05461 21.7592,2.66729 43.8703,5.25269 66.60293,6.31319 13.82159,0.64479 27.86065,-0.052 41.79003,0 21.76889,0.081 43.58418,1.0726 65.29696,0.48559 31.691,-0.8568 62.6762,-3.9044 94.0274,-5.82758 21.3245,-1.3082 43.0923,-1.83621 63.9909,-3.88511 29.1661,-2.8593 56.0648,-8.34761 84.886,-11.65519 29.1555,-3.34592 60.0729,-4.43561 88.8039,-8.25571 33.5542,-4.46149 63.155,-12.46389 96.6394,-16.99729 25.7959,-3.49231 52.2642,-7.12901 79.6623,-7.77012 16.6514,-0.38968 33.7167,0.5584 49.6257,2.42821 31.376,3.6875 57.4143,12.03899 87.4977,16.9971 16.1169,2.65639 32.2433,5.70661 49.6257,6.799 23.6114,1.4837 71.8266,-0.4857 71.8266,-0.4857 0,0 87.4978,-2.42811 92.7217,-2.42811 5.2236,0 49.9923,-3.1565 73.1324,-6.79899 31.1474,-4.90281 55.1265,-14.93661 86.1919,-19.91091 15.7106,-2.5156 32.7056,-3.92358 49.6257,-4.8564 11.6343,-0.64129 35.2602,-0.48559 35.2602,-0.48559 l -5.2237,-84.50021 h 15.6712 l 2.612,182.59822 -2151.779413,45.58598 z"
         id="path79572"
         inkscape:connector-curvature="0"
         sodipodi:nodetypes="cccscssssscsssssssassssscsssscccccc"
         inkscape:export-xdpi="856.98877"
         inkscape:export-ydpi="856.98877" />
    </clipPath>
  </defs>
  <sodipodi:namedview
     id="base"
     pagecolor="#ffffff"
     bordercolor="#666666"
     borderopacity="1.0"
     inkscape:pageopacity="0.0"
     inkscape:pageshadow="2"
     inkscape:zoom="0.49497475"
     inkscape:cx="5358.3703"
     inkscape:cy="364.8465"
     inkscape:document-units="mm"
     inkscape:current-layer="layer1"
     showgrid="false"
     inkscape:window-width="1920"
     inkscape:window-height="1018"
     inkscape:window-x="0"
     inkscape:window-y="34"
     inkscape:window-maximized="1"
     units="px" />
  <metadata
     id="metadata11292">
    <rdf:RDF>
      <cc:Work
         rdf:about="">
        <dc:format>image/svg+xml</dc:format>
        <dc:type
           rdf:resource="http://purl.org/dc/dcmitype/StillImage" />
        <dc:title />
      </cc:Work>
    </rdf:RDF>
  </metadata>
  <g
     inkscape:label="ground"
     inkscape:groupmode="layer"
     id="layer1"
     transform="translate(0,-191.16668)"
     style="display:inline">
    <path
       inkscape:connector-curvature="0"
       id="path84792-9"
       d="m 1874.2012,237.89586 -11.8671,-15.74809 10.4224,11.02366 -2.0638,-17.19167 3.3022,15.35439 3.1989,-7.74281 -1.8574,8.26775 13.7246,-13.51712 -11.248,13.51712 8.6682,-2.23098 z"
       style="display:inline;fill:#008000;stroke:none;stroke-width:0.05760116px;stroke-linecap:butt;stroke-linejoin:miter;stroke-opacity:1" />
    <path
       inkscape:connector-curvature="0"
       id="path84792-8"
       d="m 1467.417,219.75912 -11.8671,-15.74809 10.4224,11.02366 -2.0638,-17.19167 3.3022,15.35439 3.1989,-7.74281 -1.8574,8.26775 13.7246,-13.51712 -11.248,13.51712 8.6682,-2.23098 z"
       style="display:inline;fill:#008000;stroke:none;stroke-width:0.05760116px;stroke-linecap:butt;stroke-linejoin:miter;stroke-opacity:1" />
    <path
       inkscape:connector-curvature="0"
       id="path84792-2"
       d="m 1021.6115,269.98432 -11.8672,-15.74809 10.4225,11.02366 -2.0639,-17.19167 3.3022,15.35439 3.199,-7.74281 -1.8575,8.26775 13.7247,-13.51712 -11.2481,13.51712 8.6682,-2.23098 z"
       style="display:inline;fill:#008000;stroke:none;stroke-width:0.05760116px;stroke-linecap:butt;stroke-linejoin:miter;stroke-opacity:1" />
    <path
       inkscape:connector-curvature="0"
       id="path84792"
       d="m 581.68581,237.13163 -11.86718,-15.74809 10.42248,11.02366 -2.06386,-17.19167 3.30217,15.35439 3.19898,-7.74281 -1.85747,8.26775 13.72465,-13.51712 -11.24802,13.51712 8.6682,-2.23098 z"
       style="fill:#008000;stroke:none;stroke-width:0.05760116px;stroke-linecap:butt;stroke-linejoin:miter;stroke-opacity:1" />
    <path
       inkscape:connector-curvature="0"
       id="path84790"
       d="m 165.27988,282.56745 -11.86718,-15.74809 10.42248,11.02366 -2.06386,-17.19167 3.30217,15.35439 3.19898,-7.74281 -1.85747,8.26775 13.72465,-13.51712 -11.24802,13.51712 8.6682,-2.23098 z"
       style="fill:#008000;stroke:none;stroke-width:0.05760116px;stroke-linecap:butt;stroke-linejoin:miter;stroke-opacity:1" />
    <path
       style="fill:#008000;stroke:none;stroke-width:0.05760116px;stroke-linecap:butt;stroke-linejoin:miter;stroke-opacity:1"
       d="m 286.08571,273.48029 -11.86718,-15.74809 10.42248,11.02366 -2.06386,-17.19167 3.30217,15.35439 3.19898,-7.74281 -1.85747,8.26775 13.72465,-13.51712 -11.24802,13.51712 8.6682,-2.23098 z"
       id="path84788"
       inkscape:connector-curvature="0" />
    <path
       inkscape:export-ydpi="856.98877"
       inkscape:export-xdpi="856.98877"
       sodipodi:nodetypes="ccccssssscsssssssassssscsssscccccc"
       inkscape:connector-curvature="0"
       id="path821"
       d="m -7.7794014,161.42778 94.9777514,3.25613 0.659811,115.28929 c 0,0 17.363579,2.72462 44.401879,1.9425 0,0 64.85279,-1.94225 96.63946,-4.37067 39.53637,-3.0205 78.18312,-7.61446 116.22844,-12.62651 32.92078,-4.33689 64.21323,-10.22977 96.63937,-15.05461 32.87639,-4.89182 64.67825,-11.23651 99.25131,-14.08339 29.82703,-2.45608 61.00069,-3.49333 91.41566,-2.42818 37.21399,1.30325 108.39281,10.68402 108.39281,10.68402 0,0 65.3175,10.89467 99.25125,15.0546 21.75918,2.66739 43.87029,5.25278 66.60292,6.3132 13.82158,0.6448 27.86065,-0.0518 41.79003,0 21.76889,0.0809 43.58417,1.07266 65.29701,0.48565 31.691,-0.85679 62.6762,-3.90438 94.0274,-5.82758 21.3245,-1.30818 43.0923,-1.8362 63.9909,-3.88509 29.166,-2.85932 56.0648,-8.3476 84.886,-11.65519 29.1555,-3.34597 60.0728,-4.43567 88.8038,-8.25578 33.5542,-4.46143 63.155,-12.46389 96.6394,-16.99722 25.7959,-3.49236 52.2642,-7.12903 79.6623,-7.77011 16.6514,-0.38971 33.7167,0.55841 49.6257,2.42815 31.376,3.6875 57.4143,12.03898 87.4977,16.99716 16.1169,2.65633 32.2433,5.7066 49.6257,6.79891 23.6114,1.48376 71.8266,-0.48562 71.8266,-0.48562 0,0 87.4978,-2.42818 92.7217,-2.42818 5.2236,0 49.9923,-3.15647 73.1324,-6.79891 31.1474,-4.90286 55.1265,-14.93668 86.1919,-19.91094 15.7106,-2.51562 32.7056,-3.92357 49.6257,-4.85638 11.6343,-0.64132 35.2602,-0.48562 35.2602,-0.48562 l -5.2237,-84.50017 h 15.6712 l 2.612,182.59815 -2135.2086408,-6.79885 z"
       style="fill:#43e048;fill-opacity:1;stroke:none;stroke-width:0.55833775;stroke-linecap:butt;stroke-linejoin:miter;stroke-miterlimit:4;stroke-dasharray:none;stroke-opacity:1" />
    <path
       style="fill:#00aa00;stroke:none;stroke-width:0.55833775;stroke-linecap:butt;stroke-linejoin:miter;stroke-miterlimit:4;stroke-dasharray:none;stroke-opacity:1"
       d="m -23.281034,160.89324 105.973409,4.05794 0.403286,115.02202 c 0,0 -1.091904,1.20582 4.7625,2.64585 12.429679,3.05731 44.401879,1.9425 44.401879,1.9425 0,0 64.85279,-1.94225 96.63946,-4.37067 39.53637,-3.0205 78.18312,-7.61446 116.22844,-12.62651 32.92078,-4.33689 64.21323,-10.22977 96.63937,-15.05461 32.87639,-4.89182 64.67825,-11.23651 99.25131,-14.08339 29.82703,-2.45608 61.00069,-3.49333 91.41566,-2.42818 37.21399,1.30325 108.39281,10.68402 108.39281,10.68402 0,0 65.3175,10.89467 99.25125,15.0546 21.75918,2.66739 43.87029,5.25278 66.60292,6.3132 13.82158,0.6448 27.86065,-0.0518 41.79003,0 21.76889,0.0809 43.58417,1.07266 65.29701,0.48565 31.691,-0.85679 62.6762,-3.90438 94.0274,-5.82758 21.3245,-1.30818 43.0923,-1.8362 63.9909,-3.88509 29.166,-2.85932 56.0648,-8.3476 84.886,-11.65519 29.1555,-3.34597 60.0728,-4.43567 88.8038,-8.25578 33.5542,-4.46143 63.155,-12.46389 96.6394,-16.99722 25.7959,-3.49236 52.2642,-7.12903 79.6623,-7.77011 16.6514,-0.38971 33.7167,0.55841 49.6257,2.42815 31.376,3.6875 57.4143,12.03898 87.4977,16.99716 16.1169,2.65633 32.2433,5.7066 49.6257,6.79891 23.6114,1.48376 71.8266,-0.48562 71.8266,-0.48562 0,0 87.4978,-2.42818 92.7217,-2.42818 5.2236,0 49.9923,-3.15647 73.1324,-6.79891 31.1474,-4.90286 55.1265,-14.93668 86.1919,-19.91094 15.7106,-2.51562 32.7056,-3.92357 49.6257,-4.85638 11.6343,-0.64132 35.2602,-0.48562 35.2602,-0.48562 l -5.2237,-84.50017 h 15.6712 l 2.612,182.59815 -2151.779351,45.58598 z"
       id="path12550"
       inkscape:connector-curvature="0"
       sodipodi:nodetypes="cccscssssscsssssssassssscsssscccccc"
       inkscape:export-xdpi="856.98877"
       inkscape:export-ydpi="856.98877" />
    <path
       inkscape:export-ydpi="856.98877"
       inkscape:export-xdpi="856.98877"
       sodipodi:nodetypes="cccscssssscsssssssassssscsssscccccc"
       inkscape:connector-curvature="0"
       id="path849"
       d="m -23.281034,165.1266 105.973409,4.05794 0.403286,115.02202 c 0,0 -1.091904,1.20582 4.7625,2.64585 12.429679,3.05731 44.401879,1.9425 44.401879,1.9425 0,0 64.85279,-1.94225 96.63946,-4.37067 39.53637,-3.0205 78.18312,-7.61446 116.22844,-12.62651 32.92078,-4.33689 64.21323,-10.22977 96.63937,-15.05461 32.87639,-4.89182 64.67825,-11.23651 99.25131,-14.08339 29.82703,-2.45608 61.00069,-3.49333 91.41566,-2.42818 37.21399,1.30325 108.39281,10.68402 108.39281,10.68402 0,0 65.3175,10.89467 99.25125,15.0546 21.75918,2.66739 43.87029,5.25278 66.60292,6.3132 13.82158,0.6448 27.86065,-0.0518 41.79003,0 21.76889,0.0809 43.58417,1.07266 65.29701,0.48565 31.691,-0.85679 62.6762,-3.90438 94.0274,-5.82758 21.3245,-1.30818 43.0923,-1.8362 63.9909,-3.88509 29.166,-2.85932 56.0648,-8.3476 84.886,-11.65519 29.1555,-3.34597 60.0728,-4.43567 88.8038,-8.25578 33.5542,-4.46143 63.155,-12.46389 96.6394,-16.99722 25.7959,-3.49236 52.2642,-7.12903 79.6623,-7.77011 16.6514,-0.38971 33.7167,0.55841 49.6257,2.42815 31.376,3.6875 57.4143,12.03898 87.4977,16.99716 16.1169,2.65633 32.2433,5.7066 49.6257,6.79891 23.6114,1.48376 71.8266,-0.48562 71.8266,-0.48562 0,0 87.4978,-2.42818 92.7217,-2.42818 5.2236,0 49.9923,-3.15647 73.1324,-6.79891 31.1474,-4.90286 55.1265,-14.93668 86.1919,-19.91094 15.7106,-2.51562 32.7056,-3.92357 49.6257,-4.85638 11.6343,-0.64132 35.2602,-0.48562 35.2602,-0.48562 l -5.2237,-84.50017 h 15.6712 l 2.612,182.59815 -2151.779351,45.58598 z"
       style="fill:#005500;stroke:none;stroke-width:0.55833775;stroke-linecap:butt;stroke-linejoin:miter;stroke-miterlimit:4;stroke-dasharray:none;stroke-opacity:1" />
    <path
       style="fill:#554400;fill-opacity:1;stroke:none;stroke-width:0.55833775;stroke-linecap:butt;stroke-linejoin:miter;stroke-miterlimit:4;stroke-dasharray:none;stroke-opacity:1"
       d="m -23.281034,172.00581 105.973409,4.05794 0.403286,115.02202 c 0,0 -1.091904,1.20582 4.7625,2.64585 12.429679,3.05731 44.401879,1.9425 44.401879,1.9425 0,0 64.85279,-1.94225 96.63946,-4.37067 39.53637,-3.0205 78.18312,-7.61446 116.22844,-12.62651 32.92078,-4.33689 64.21323,-10.22977 96.63937,-15.05461 32.87639,-4.89182 64.67825,-11.23651 99.25131,-14.08339 29.82703,-2.45608 61.00069,-3.49333 91.41566,-2.42818 37.21399,1.30325 108.39281,10.68402 108.39281,10.68402 0,0 65.3175,10.89467 99.25125,15.0546 21.75918,2.66739 43.87029,5.25278 66.60292,6.3132 13.82158,0.6448 27.86065,-0.0518 41.79003,0 21.76889,0.0809 43.58417,1.07266 65.29701,0.48565 31.691,-0.85679 62.6762,-3.90438 94.0274,-5.82758 21.3245,-1.30818 43.0923,-1.8362 63.9909,-3.88509 29.166,-2.85932 56.0648,-8.3476 84.886,-11.65519 29.1555,-3.34597 60.0728,-4.43567 88.8038,-8.25578 33.5542,-4.46143 63.155,-12.46389 96.6394,-16.99722 25.7959,-3.49236 52.2642,-7.12903 79.6623,-7.77011 16.6514,-0.38971 33.7167,0.55841 49.6257,2.42815 31.376,3.6875 57.4143,12.03898 87.4977,16.99716 16.1169,2.65633 32.2433,5.7066 49.6257,6.79891 23.6114,1.48376 71.8266,-0.48562 71.8266,-0.48562 0,0 87.4978,-2.42818 92.7217,-2.42818 5.2236,0 49.9923,-3.15647 73.1324,-6.79891 31.1474,-4.90286 55.1265,-14.93668 86.1919,-19.91094 15.7106,-2.51562 32.7056,-3.92357 49.6257,-4.85638 11.6343,-0.64132 35.2602,-0.48562 35.2602,-0.48562 l -5.2237,-84.50017 h 15.6712 l 2.612,182.59815 -2151.779351,45.58598 z"
       id="path851"
       inkscape:connector-curvature="0"
       sodipodi:nodetypes="cccscssssscsssssssassssscsssscccccc"
       inkscape:export-xdpi="856.98877"
       inkscape:export-ydpi="856.98877" />
    <path
       style="fill:#786721;stroke:none;stroke-width:0.20642957px;stroke-linecap:butt;stroke-linejoin:miter;stroke-opacity:1"
       d="m 365.61642,291.34071 c 60.86607,-12.68809 121.73214,-35.60631 182.59822,-38.06427 l 64.69675,2.20166 71.54021,2.94032 c -23.29777,1.14734 -47.19094,-1.28751 -71.53671,-0.0833 -29.26414,1.44743 -59.18223,0.29854 -89.50631,4.36112 -51.82423,6.94301 -104.83421,20.39 -157.79216,28.64452 z"
       id="path822"
       inkscape:connector-curvature="0"
       sodipodi:nodetypes="ccccssc" />
    <g
       id="g23514"
       transform="translate(29.742924,-66.494194)"
       clip-path="url(#clipPath79570)"
       style="fill:#916f6f" />
    <path
       sodipodi:nodetypes="ccccssc"
       inkscape:connector-curvature="0"
       id="path84766"
       d="m 697.56519,259.65872 c 36.57954,7.16453 73.15908,20.10565 109.73863,21.49358 l 38.88172,-1.2432 42.99453,-1.6603 c -14.00159,-0.64786 -28.361,0.72701 -42.99242,0.047 -17.58729,-0.81732 -35.56758,-0.16858 -53.79188,-2.46258 -31.14554,-3.92048 -63.00369,-11.51353 -94.83058,-16.17457 z"
       style="fill:#786721;stroke:none;stroke-width:0.12025387px;stroke-linecap:butt;stroke-linejoin:miter;stroke-opacity:1" />
    <path
       style="fill:#786721;stroke:none;stroke-width:0.20642957px;stroke-linecap:butt;stroke-linejoin:miter;stroke-opacity:1"
       d="m 915.29005,284.11567 c 62.1405,2.05775 126.03585,14.19397 186.42135,6.17325 l 63.3597,-13.26842 69.9751,-15.1702 c -23.1492,2.86665 -46.2703,9.36452 -70.4618,12.35494 -29.0785,3.59459 -58.3559,9.85922 -88.9274,11.05929 -52.2471,2.05093 -106.77795,-2.10228 -160.36695,-1.14891 z"
       id="path84768"
       inkscape:connector-curvature="0"
       sodipodi:nodetypes="ccccssc" />
    <path
       sodipodi:nodetypes="ccccssc"
       inkscape:connector-curvature="0"
       id="path84770"
       d="m 1366.3532,249.65126 c 61.8611,-6.2361 124.7945,-22.64594 185.5829,-18.70829 l 64.1092,8.97323 70.8376,10.42538 c -23.2897,-1.30185 -46.7958,-6.22857 -71.1337,-7.58374 -29.2545,-1.62901 -58.8872,-5.9086 -89.4701,-5.04801 -52.2667,1.47076 -106.3942,9.28532 -159.9259,11.94148 z"
       style="fill:#786721;stroke:none;stroke-width:0.20642957px;stroke-linecap:butt;stroke-linejoin:miter;stroke-opacity:1" />
    <path
       style="fill:#786721;stroke:none;stroke-width:0.20642957px;stroke-linecap:butt;stroke-linejoin:miter;stroke-opacity:1"
       d="m 1688.6803,256.15393 c 61.8611,6.2361 124.7945,22.64594 185.5829,18.70829 l 64.1092,-8.97323 70.8376,-10.42538 c -23.2897,1.30185 -46.7958,6.22857 -71.1337,7.58374 -29.2545,1.62901 -58.8872,5.9086 -89.4701,5.04801 -52.2667,-1.47076 -106.3942,-9.28532 -159.9259,-11.94148 z"
       id="path84772"
       inkscape:connector-curvature="0"
       sodipodi:nodetypes="ccccssc" />
    <path
       sodipodi:nodetypes="ccccssc"
       inkscape:connector-curvature="0"
       id="path84774"
       d="m 1997.6439,234.68417 c 61.8611,-6.2361 124.7945,-22.64594 185.5829,-18.70829 l 64.1092,8.97323 70.8376,10.42538 c -23.2897,-1.30185 -46.7958,-6.22857 -71.1337,-7.58374 -29.2545,-1.62901 -58.8872,-5.9086 -89.4701,-5.04801 -52.2667,1.47076 -106.3942,9.28532 -159.9259,11.94148 z"
       style="fill:#786721;stroke:none;stroke-width:0.20642957px;stroke-linecap:butt;stroke-linejoin:miter;stroke-opacity:1" />
    <path
       style="fill:#786721;stroke:none;stroke-width:0.20642957px;stroke-linecap:butt;stroke-linejoin:miter;stroke-opacity:1"
       d="m 1149.3303,285.99992 c 61.8611,-6.2361 124.7945,-22.64594 185.5829,-18.70829 l 64.1092,8.97323 70.8376,10.42538 c -23.2897,-1.30185 -46.7958,-6.22857 -71.1337,-7.58374 -29.2545,-1.62901 -58.8872,-5.9086 -89.4701,-5.04801 -52.2667,1.47076 -106.3942,9.28532 -159.9259,11.94148 z"
       id="path84776"
       inkscape:connector-curvature="0"
       sodipodi:nodetypes="ccccssc" />
    <path
       sodipodi:nodetypes="ccccssc"
       inkscape:connector-curvature="0"
       id="path84778"
       d="m 1427.3503,255.59098 c 60.9623,12.21808 122.0032,34.66595 182.8865,36.65419 l 64.6778,-2.7008 71.5154,-3.49223 c -23.306,-0.96754 -47.1796,1.6516 -71.534,0.63526 -29.2743,-1.22157 -59.1827,0.15814 -89.5372,-3.67034 -51.8764,-6.54294 -104.9883,-19.58048 -158.0085,-27.42613 z"
       style="fill:#786721;stroke:none;stroke-width:0.20642957px;stroke-linecap:butt;stroke-linejoin:miter;stroke-opacity:1" />
    <path
       style="fill:#786721;stroke:none;stroke-width:0.12025387px;stroke-linecap:butt;stroke-linejoin:miter;stroke-opacity:1"
       d="m 570.20406,272.25205 c 36.65474,6.76926 73.37182,19.31488 109.96423,20.30788 l 38.86604,-1.66278 42.9741,-2.12425 c -14.00777,-0.49669 -28.35151,1.03307 -42.98941,0.51102 -17.59509,-0.62745 -35.56733,0.21532 -53.81532,-1.88186 -31.18604,-3.5841 -63.12429,-10.83286 -94.99963,-15.15013 z"
       id="path84780"
       inkscape:connector-curvature="0"
       sodipodi:nodetypes="ccccssc" />
    <path
       sodipodi:nodetypes="ccccssc"
       inkscape:connector-curvature="0"
       id="path84782"
       d="m 743.39471,311.26868 c 36.65474,-6.76926 73.37182,-19.31488 109.96423,-20.30788 l 38.86604,1.66278 42.9741,2.12425 c -14.00777,0.49669 -28.35151,-1.03307 -42.98941,-0.51102 -17.59509,0.62745 -35.56733,-0.21532 -53.81532,1.88186 -31.18604,3.5841 -63.12429,10.83286 -94.99963,15.15013 z"
       style="fill:#786721;stroke:none;stroke-width:0.12025387px;stroke-linecap:butt;stroke-linejoin:miter;stroke-opacity:1" />
    <path
       style="fill:#786721;stroke:none;stroke-width:0.12025387px;stroke-linecap:butt;stroke-linejoin:miter;stroke-opacity:1"
       d="m 404.49695,305.92329 c 36.65474,-6.76926 73.37182,-19.31488 109.96423,-20.30788 l 38.86604,1.66278 42.9741,2.12425 c -14.00777,0.49669 -28.35151,-1.03307 -42.98941,-0.51102 -17.59509,0.62745 -35.56733,-0.21532 -53.81532,1.88186 -31.18604,3.5841 -63.12429,10.83286 -94.99963,15.15013 z"
       id="path84784"
       inkscape:connector-curvature="0"
       sodipodi:nodetypes="ccccssc" />
    <path
       sodipodi:nodetypes="ccccssc"
       inkscape:connector-curvature="0"
       id="path84786"
       d="m 1951.6735,270.58648 c 61.8611,6.2361 124.7945,22.64594 185.5829,18.70829 l 64.1092,-8.97323 70.8376,-10.42538 c -23.2897,1.30185 -46.7958,6.22857 -71.1337,7.58374 -29.2545,1.62901 -58.8872,5.9086 -89.4701,5.04801 -52.2667,-1.47076 -106.3942,-9.28532 -159.9259,-11.94148 z"
       style="fill:#786721;stroke:none;stroke-width:0.20642957px;stroke-linecap:butt;stroke-linejoin:miter;stroke-opacity:1" />
  </g>
  <g
     inkscape:groupmode="layer"
     id="layer3"
     inkscape:label="parallax"
     transform="translate(0,-423.33334)" />
  <g
     inkscape:groupmode="layer"
     id="layer2"
     inkscape:label="details"
     transform="translate(0,-423.33334)" />
</svg>
