<?xml version="1.0" encoding="UTF-8" standalone="no"?>
<svg
   xmlns:dc="http://purl.org/dc/elements/1.1/"
   xmlns:cc="http://creativecommons.org/ns#"
   xmlns:rdf="http://www.w3.org/1999/02/22-rdf-syntax-ns#"
   xmlns:svg="http://www.w3.org/2000/svg"
   xmlns="http://www.w3.org/2000/svg"
   xmlns:sodipodi="http://sodipodi.sourceforge.net/DTD/sodipodi-0.dtd"
   xmlns:inkscape="http://www.inkscape.org/namespaces/inkscape"
   id="svg2985"
   viewBox="0 0 400 600"
   version="1.1"
   sodipodi:docname="tree.svg"
   width="400"
   height="600"
   inkscape:version="0.92.3 (2405546, 2018-03-11)">
  <sodipodi:namedview
     pagecolor="#ffffff"
     bordercolor="#666666"
     borderopacity="1"
     objecttolerance="10"
     gridtolerance="10"
     guidetolerance="10"
     inkscape:pageopacity="0"
     inkscape:pageshadow="2"
     inkscape:window-width="1853"
     inkscape:window-height="1018"
     id="namedview122"
     showgrid="false"
     inkscape:zoom="3.3877626"
     inkscape:cx="198.08097"
     inkscape:cy="120.43348"
     inkscape:window-x="67"
     inkscape:window-y="34"
     inkscape:window-maximized="1"
     inkscape:current-layer="g3048" />
  <defs
     id="defs2989">
    <linearGradient
       id="linearGradient3874"
       x1="368.92999"
       gradientUnits="userSpaceOnUse"
       y1="616.16998"
       gradientTransform="translate(556.71,1154.3)"
       x2="371.54999"
       y2="717.21002">
      <stop
         id="stop3944"
         stop-color="#387b0b"
         offset="0" />
      <stop
         id="stop3946"
         stop-color="#76b800"
         offset=".52083" />
      <stop
         id="stop3948"
         stop-color="#76b800"
         offset="1" />
    </linearGradient>
    <linearGradient
       id="linearGradient3882"
       x1="279.73999"
       gradientUnits="userSpaceOnUse"
       y1="633.16998"
       gradientTransform="translate(556.71,1154.3)"
       x2="279.98001"
       y2="722.88">
      <stop
         id="stop3960"
         stop-color="#387b0b"
         offset="0" />
      <stop
         id="stop3962"
         stop-color="#76b800"
         offset=".48396" />
      <stop
         id="stop3964"
         stop-color="#76b800"
         offset="1" />
    </linearGradient>
    <linearGradient
       id="linearGradient3894"
       x1="475.67001"
       gradientUnits="userSpaceOnUse"
       y1="606.88"
       gradientTransform="translate(556.71,1154.3)"
       x2="477.04001"
       y2="715.85999">
      <stop
         id="stop3952"
         stop-color="#387b0b"
         offset="0" />
      <stop
         id="stop3954"
         stop-color="#76b800"
         offset=".48406" />
      <stop
         id="stop3956"
         stop-color="#76b800"
         offset="1" />
    </linearGradient>
    <linearGradient
       id="linearGradient3928"
       x1="233.49001"
       gradientUnits="userSpaceOnUse"
       y1="620.31"
       gradientTransform="translate(556.71,1154.3)"
       x2="229.56"
       y2="722.88">
      <stop
         id="stop3870"
         stop-color="#387b0b"
         offset="0" />
      <stop
         id="stop3884"
         stop-color="#76b800"
         offset=".49616" />
      <stop
         id="stop3872"
         stop-color="#76b800"
         offset="1" />
    </linearGradient>
    <linearGradient
       id="linearGradient3209-1"
       x1="1019.3"
       gradientUnits="userSpaceOnUse"
       y1="823.89001"
       gradientTransform="translate(147.83,-647.93)"
       x2="1018.6"
       y2="897.07001">
      <stop
         id="stop3857-4"
         stop-color="#94e700"
         offset="0" />
      <stop
         id="stop3881-0"
         stop-color="#94e700"
         stop-opacity=".48235"
         offset=".40896" />
      <stop
         id="stop3859-9"
         stop-color="#94e700"
         stop-opacity="0"
         offset="1" />
    </linearGradient>
    <linearGradient
       id="linearGradient3211-4"
       x1="1273.7"
       gradientUnits="userSpaceOnUse"
       y1="1005.7"
       gradientTransform="translate(147.83,-647.93)"
       x2="1226.4"
       y2="1091.9">
      <stop
         id="stop3887-8"
         stop-color="#94e700"
         offset="0" />
      <stop
         id="stop3893-2"
         stop-color="#94e700"
         stop-opacity=".40784"
         offset=".58587" />
      <stop
         id="stop3889-4"
         stop-color="#94e700"
         stop-opacity="0"
         offset="1" />
    </linearGradient>
    <linearGradient
       id="linearGradient3213-5"
       x1="785.13"
       gradientUnits="userSpaceOnUse"
       y1="992.15002"
       gradientTransform="translate(147.83,-647.93)"
       x2="807.34998"
       y2="1053.4">
      <stop
         id="stop3911-1"
         stop-color="#94e700"
         offset="0" />
      <stop
         id="stop3913-7"
         stop-color="#94e700"
         stop-opacity=".48235"
         offset=".28387" />
      <stop
         id="stop3915-1"
         stop-color="#94e700"
         stop-opacity="0"
         offset="1" />
    </linearGradient>
  </defs>
  <g
     id="layer2"
     transform="matrix(0.50001845,0,0,0.50001845,38.940611,21.66239)">
    <g
       id="g3103">
      <g
         id="g3048"
         transform="matrix(0.61924,0,0,0.61924,-62.340938,89.001)">
        <path
           id="path3050"
           style="color:#000000;fill:#62a30e"
           d="m 171.13,605.94 c 0.059,14.192 -1.4661,29.472 1.6466,29.183 6.9003,-0.64058 -9.0558,7.2904 -16.622,17.556 -5.9554,8.08 -38.763,60.941 -14.875,66.5 24.098,5.6075 9.0871,0.67609 -0.53125,24.188 -3.4704,8.4833 6.0289,30.04 17.719,20.938 6.5278,-5.0832 -23.032,47.669 10.159,39.58 -4.3522,31.306 24.687,35.146 33.432,23.34 0.13408,5.7564 9.3451,32.507 19.344,31.555 11.017,-1.0488 17.062,1.9502 23.688,-15.219 2.8868,-7.4809 0.72437,14.625 14.25,26.469 8.1726,7.1566 13.174,-12.64 22.156,-14.625 3.4467,-0.76179 7.1952,17.332 15.906,18.219 7.1894,0.73173 19.472,-16.744 22.688,-8.9062 0.88454,2.1561 2.1101,29.797 18,19.875 5.2726,-3.2922 9.8836,-12.692 16.156,-12.188 5.2121,0.41908 8.353,13.035 14.031,13.5 6.3126,0.5168 10.834,-16.463 17.656,-16.094 6.345,0.34364 8.749,17.181 25.219,16.812 15.244,-0.34146 10.618,-25.713 15.031,-25.469 9.4091,0.52176 11.193,23.062 30.969,26.125 14.487,2.244 17.164,-25.896 31.531,-25.688 10.967,0.15946 16.715,32.719 25.812,25.281 46.482,-38.005 90.613,-6.9745 114.84,-5.5312 4.073,0.24258 9.9169,5.7224 30.031,-2.9062 11.339,-4.8642 10.284,-20.97 15.844,-23.281 7.7046,-3.2031 16.658,9.7637 22.719,5.5625 13.415,-9.5646 12.044,-27.761 24.188,-18.688 33.217,30.719 34.969,-22.747 49.156,-12.938 11.014,7.6158 24.57,9.8364 29.688,-6.4062 3.6151,-11.474 12.545,2.9428 22.031,-0.84375 8.7636,-3.4981 18.006,-25.571 23.75,-27.031 15.429,-3.9234 18.59,16.117 40,9.5625 5.6865,-1.7408 3.0839,-16.134 16.594,-24.156 5.0761,-3.0143 12.82,22.306 21.875,22.469 8.2848,0.14888 21.199,-11.786 24.906,-4.8125 17.406,32.738 25.069,-8.1983 32.844,-5.625 8.5536,2.8312 11.513,22.637 24.21905,20.812 32.501,-4.6659 27.054,-30.634 29.188,-29.562 19.964,10.029 28.783,0.0968 37.938,-7.25 32.222,-25.858 -0.9324,-49.805 2.125,-49.656 24.153,1.1745 6.2275,-48.509 -3.2834,-47.055"
           inkscape:connector-curvature="0" />
        <path
           id="path3052"
           style="color:#000000;fill:#512c18"
           d="m 764.56,207.94 c 0,0 -41.421,41.31 -64.344,72.75 h -165.12 c -0.44481,15.714 -0.44623,44.905 -0.15625,82.562 -8.8604,-16.705 -19.712,-37.768 -29.719,-55.094 l -24.312,-42.125 -29.438,5.0938 c 0,0 30.858,57.646 33.844,59.438 2.986,1.7916 45.281,86.031 45.281,86.031 l 5,11.031 c 0.11782,9.224 0.26796,19.427 0.40625,29.156 -9.8524,-12.711 -21.173,-28.717 -30.188,-35.156 -12.072,-8.6235 -30.36,-2.5278 -42.688,-10.781 -7.9056,-5.2928 -16.875,-20.656 -16.875,-20.656 0,0 -2.1375,-17.602 -6.125,-25.312 -5.7007,-11.024 -18.835,-20.463 -23.562,-31.938 -3.5706,-8.667 -2.7188,-24.188 -2.7188,-24.188 l -2.97,-41.22 -20.91,40.03 c 0,0 4.8868,16.516 9.5625,25.375 5.8778,11.136 17.304,22.366 22.688,33.75 2.839,6.003 5.4688,19.156 5.4688,19.156 0,0 -31.072,-6.5007 -45.781,-14.094 -14.53,-7.5005 -39.125,-29.562 -39.125,-29.562 l -28.66,28.07 c 0,0 27.226,13.62 41.812,20.906 15.825,7.9047 30.194,18.306 49.25,24.219 14.655,4.5473 45.688,18.188 45.688,18.188 26.167,4.4692 46.681,19.276 66.906,35.219 l 18.6,14.66 c 0.3172,20.724 0.67827,42.284 1.0625,64.688 -4.9033,-6.2202 -10.335,-12.244 -15.5,-16.031 -25.35,-18.59 -54.961,-27.134 -82.406,-34.625 l -14.35,19.09 c 0,0 22.101,19.104 26.281,22.688 4.1803,3.5832 34.607,6.0758 56.438,23.906 13.74,11.222 23.268,22.366 30.406,32.875 0.98504,54.14 2.0882,110.69 3.25,166.81 -10.541,-5.6122 -21.18,-11.752 -32.438,-19.656 l -58.25,-40.875 -5.2188,42.281 c 0,0 28.221,12.411 36.969,19.469 10.23,8.2539 15.668,24.245 26.094,32.25 8.2421,6.3285 21.762,8.3889 29.25,15.594 2.3916,2.3011 3.7599,4.9676 4.7812,7.7188 2.0551,96.236 4.082,184.04 5.7188,251.56 -12.118,-20.655 -39.992,10.3604 -48.618,10.1324 -13.266,-0.3509 -40.119,7.0056 -66.601,9.4606 -13.474,1.25 -38.5,-15.25 -38.5,-15.25 l -46,-46.875 -13.125,4.7813 38.812,59.125 -90.781,24.5 16.125,15.219 c 0,0 55.903,-25.973 83.312,-27.469 13.885,-0.7575 24.053,8.5131 36.125,8.3437 16.434,-0.2293 -14.473,7.789 0,0 10.705,-5.7627 58.57809,7.9391 74.063,-3.0395 20.082,-14.238 36.999,-24.8909 55.875,-10.9915 0.80484,32.51 -2.075,61.988 -1.6457,76.823 0,0 -2.2922,106.66 -21.386,252.54 -21.103,161.23 -44.636,246.39 -44.636,246.39 0,0 -6.5505,25.364 2.25,30.5 59.71133,7.2244 323.86643,10.1919 318.183,-13.5854 -24.961,-56.786 -26,-60.582 -39.22,-100.11 -12.957,-38.742 -19.426,-84.718 -29.916,-201.68 -6.2365,-69.539 -12.756,-211.06 -12.756,-211.06 18.149,-39.067 73.826,-51.519 120.81,-68.156 l -12.76,-30.9 c -36.562,20.041 -83.731,26.2 -108.06,53.375 0,0 -6.0127,-202.57 7.3125,-204.88 218.7527,-84.89678 47.76928,-29.77251 -1.8138,-48.114 -3.4428,-2.0455 -5.4063,-46.139 -6.4375,-109.34 5.9717,-23.478 14.836,-34.008 17.875,-35.688 0,0 14.117,4.1319 20.906,2.375 8.289,-2.1451 10.893,-9.8714 18.812,-13.125 10.444,-4.2905 22.74,-3.5761 33.438,-7.1875 5.991,-2.0225 28.969,-21.781 28.969,-21.781 l -22.09,5.05 c 0,0 -18.307,10.786 -28.375,12.25 -5.6856,0.82655 -14.625,-0.90625 -14.625,-0.90625 l -16.72,-2.09 38.81,-58.22 -17.31,-32.84 c 0,0 -33.895,43.75 -60.406,85.188 -0.24756,-37.734 -0.29631,-78.638 -0.21875,-119.62 39.134,-44.896 80.561,-92.894 114.38,-143.81 l 51.344,-77.344 -21.188,-19.719 c 0,0 -66.257,93.185 -95.875,136.78 -11.374,16.742 -30.203,39.575 -48.531,60.781 0.30943,-80.066 0.982,-152.82 1.5,-201.84 4.8831,-5.8555 8.9688,-10.5 8.9688,-10.5 34.59,-12.3 69.19,-15.75 103.78,-16.86 l -6.625,-22.938 c -24.848,9.9974 -54.952,17.353 -86.938,13.281 l 76.375,-88.375 z"
           inkscape:connector-curvature="0"
           sodipodi:nodetypes="cccccccccccccccccccccccccccccccccccccccccccccccccccccccccsccsccccccccccccccccccccccccccccccccccccc" />
        <path
           id="path3054"
           style="color:#000000;fill:#609223"
           d="m 363.85,1100.6 c 2.5254,10.303 -17.289,5.6032 -3.5887,26.245 4.8792,7.3514 18.04,4.3356 19.729,4.3356 1.6891,0 -5.0854,22.624 11.175,26.187 23.816,5.2184 24.714,-14.52 30.105,-18.557 1.5857,-1.1872 19.579,8.057 26.791,5.0111 9.6242,-4.0649 1.2113,-29.368 6.8032,-21.408 3.9795,5.6644 17.101,-7.5123 14.66,-16.317 -1.881,-6.7851 -1.5126,-11.502 -8.2583,-15.493 -5.4064,-3.199 -17.996,-0.4556 -12.965,-3.904 8.1156,-5.5625 14.356,-16.245 1.7904,-29.356 -8.8334,-9.2171 -30.16,5.2171 -30.16,5.2171 1.424,-9.8705 -10.917,-13.729 -19.131,-14.976 -22.093,-3.3543 -14.31,18.541 -14.31,18.541 0.42088,0.2454 -32.051,-2.2781 -32.599,16.431 -0.49221,16.808 9.4197,15.848 9.9579,18.044 z"
           inkscape:connector-curvature="0" />
        <path
           id="path3056"
           style="color:#000000;fill:#609223"
           d="m 262.17,975.22 c -7.7165,-10.067 -1.6941,-19.611 4.7776,-23.291 15.407,-8.761 11.146,7.5761 18.812,5.3747 11.903,-3.4182 -16.169,-28.327 19.409,-25.679 31.081,2.3135 9.8457,34.201 9.2565,35.234 -6.4171,11.249 9.0044,-12.125 19.707,-8.6593 6.9594,2.2537 21.859,3.5332 25.479,11.123 8.4581,17.734 -6.1027,29.154 -3.0845,26.799 7.4898,-5.8448 16.589,0.25612 18.097,7.0601 1.9198,8.6622 -9.384,32.031 -16.305,35.639 -49.097,25.599 -34.664,0.3665 -42.102,2.6873 -13.115,4.0921 11.273,26.668 -30.158,28.665 -29.017,1.3985 -23.093,-20.476 -26.874,-15.826 -15.708,19.323 -28.622,3.0875 -31.054,-9.8537 -5.2706,-28.045 26.693,-24.595 17.02,-25.679 -16.96,-1.9003 -13.993,-17.004 -10.152,-26.874 11.136,-28.612 28.251,-15.314 27.172,-16.721 z"
           inkscape:connector-curvature="0" />
        <path
           id="path3058"
           style="color:#000000;fill:#609223"
           d="m 231.32,1120.5 c -1.2455,-0.381 -1.7153,0.7482 -6.6442,0.1454 -10.322,-1.2624 -9.5561,-14.935 -6.952,-22.761 4.6397,-13.943 14.138,-16.526 28.653,-18.817 21.25,-3.3551 23.335,10.821 23.761,7.9897 1.5605,-10.366 12.225,-18.455 23.218,-19.671 9.3502,-1.0345 22.31,3.3397 25.453,12.206 2.6743,7.5435 0.2505,10.839 -5.6733,18.364 -4.925,6.256 20.965,-20.422 31.054,4.031 8.2614,20.022 -22.461,26.763 -12.242,26.276 11.209,-0.5338 21.17,-0.2793 20.902,13.437 -0.18705,9.5709 -13.313,22.171 -22.096,25.978 -10.23,4.4338 -26.726,8.5002 -34.04,2.3888 -2.3132,-1.9328 -6.4718,14.82 -14.034,20.006 -7.8409,5.3776 -18.742,7.8196 -28.068,5.9719 -9.4363,-1.8695 -17.456,-4.9438 -20.603,-14.034 -2.6253,-7.5829 -1.4757,-3.9106 5.6733,-15.826 3.0122,-5.0203 -10.99,3.079 -16.423,0.8958 -7.7687,-3.122 -9.4675,-14.693 -8.3607,-22.992 1.5076,-11.305 17.478,-23.266 16.423,-23.589 z"
           inkscape:connector-curvature="0" />
        <path
           id="path3060"
           style="color:#000000;opacity:0.5;fill:#2f190e"
           d="m 543.26,845.88 c 25.547,-3.843 49.511,1.5365 74.955,9.9236 14.035,4.6265 43.021,6.4598 48.984,-10.346 2.3225,-6.5453 6.9026,-14.268 14.978,-17.518 8.2472,-3.3194 12.4,7.6626 20.903,5.0673 8.9626,-2.7356 8.6996,-13.599 16.567,-20.852 -1.2014,-35.977 -0.67872,-60.997 -0.93019,-81.768 h -176.93 z"
           inkscape:connector-curvature="0" />
        <path
           id="path3062"
           style="color:#000000;fill:#78be47"
           d="m 629.75,-75.767 c -11.448,0.37528 -23.576,7.3099 -32.438,14.5 -11.122,9.0246 7.9047,29.472 1.8125,25.688 -17.266,-10.726 -31.093,6.6013 -36.844,20.438 -10.024,1.0845 -20.372,4.8412 -26.344,11.406 -4.0806,4.486 11.584,-24.225 -17.719,-35.281 -8.73,-3.2938 -16.178,-4.6062 -22.562,-4.4375 -34.474,0.91117 -37.945,44.98 -44.969,52.75 -12.533,13.864 -9.8675,-41.144 -48.531,-4.8437 -1.6885,1.5853 -23.448,44.849 7,66.906 5.3603,3.8831 8.4816,16.085 9.25,21.5 -1.0329,-3.1293 -3.8138,-6.4839 -9.6875,-10.062 -22.775,-13.876 -15.825,16.361 -27.469,14.344 -13.143,-2.2768 8.5723,-23.082 -23.875,-26.875 -37.151,-4.3423 -18.791,25.335 -34.062,26.875 -12.366,1.2468 1.2914,-22.202 -30.438,-20.312 -28.084,1.6726 -21.086,19.052 -33.438,23.875 -17.181,6.7083 -14.898,-40.346 -54.969,6.5625 -31.998,37.458 27.084,54.482 8.375,60.344 -25.64,8.0337 -22.217,6.9161 -29.875,20.875 -7.1935,13.113 -7.8678,42.619 -2.9688,56.75 2.6337,7.5967 3.5149,16.766 6.625,23.562 -5.6233,1.3258 -11.78,4.4831 -18.531,10.25 -53.299,45.53 0.15343,42.916 -7.4688,62.438 -5.4796,14.034 -25.225,6.0904 -27.125,38 -2.1471,36.051 24.479,20.544 23.062,34.594 -1.7496,17.352 -35.465,-3.5242 -30.531,38.688 3.0284,13.873 17.532,28.999 29.438,31.781 -5.6366,6.9967 -28.635,4.4914 -15.188,26.562 7.6959,9.3438 22.908,19.484 32.594,18.094 0.0472,-0.008 0.0814,0.005 0.125,0 -5.6721,9.862 -15.185,27.899 -15.375,37.469 0.059,14.192 8.6686,18.07 11.781,17.781 6.9003,-0.64058 -25.777,19.234 -33.344,29.5 -5.9554,8.08 -38.763,60.941 -14.875,66.5 24.098,5.6075 9.0871,0.67609 -0.53125,24.188 -3.4704,8.4833 6.0289,30.04 17.719,20.938 6.5278,-5.0832 -9.595,22.587 4.1875,44.656 6.7756,10.849 19.542,1.1256 20.219,3.6562 2.8558,10.672 -10.929,18.782 11.906,33.688 23.469,15.319 23.693,-29.275 24,-16.094 0.13408,5.7564 9.3451,17.577 19.344,16.625 11.017,-1.0488 17.062,1.9502 23.688,-15.219 2.8868,-7.4809 0.72437,14.625 14.25,26.469 8.1726,7.1566 13.174,-12.64 22.156,-14.625 3.4467,-0.76179 7.1952,17.332 15.906,18.219 7.1894,0.73173 19.472,-16.744 22.688,-8.9062 0.88454,2.1561 2.1101,29.797 18,19.875 5.2726,-3.2922 9.8836,-12.692 16.156,-12.188 5.2121,0.41908 8.353,13.035 14.031,13.5 6.3126,0.5168 10.834,-16.463 17.656,-16.094 6.345,0.34364 8.749,17.181 25.219,16.812 15.244,-0.34146 10.618,-25.713 15.031,-25.469 9.4091,0.52176 11.193,23.062 30.969,26.125 14.487,2.244 17.164,-25.896 31.531,-25.688 10.967,0.15946 16.715,32.719 25.812,25.281 46.482,-38.005 90.613,-6.9745 114.84,-5.5312 4.073,0.24258 9.9169,5.7224 30.031,-2.9062 11.339,-4.8642 10.284,-20.97 15.844,-23.281 7.7046,-3.2031 16.658,9.7637 22.719,5.5625 13.415,-9.5646 12.044,-27.761 24.188,-18.688 33.217,30.719 34.969,-22.747 49.156,-12.938 11.014,7.6158 24.57,9.8364 29.688,-6.4062 3.6151,-11.474 12.545,2.9428 22.031,-0.84375 8.7636,-3.4981 18.006,-25.571 23.75,-27.031 15.429,-3.9234 18.59,16.117 40,9.5625 5.6865,-1.7408 3.0839,-16.134 16.594,-24.156 5.0761,-3.0143 12.82,22.306 21.875,22.469 8.2848,0.14888 21.199,-11.786 24.906,-4.8125 17.406,32.738 25.069,-8.1983 32.844,-5.625 8.5536,2.8312 11.513,22.637 24.21895,20.812 32.5011,-4.6659 27.0541,-30.634 29.1881,-29.562 19.964,10.029 28.783,0.0968 37.938,-7.25 32.222,-25.858 -0.8993,-50.129 2.125,-49.656 22.443,3.5069 24.156,-25.941 24.188,-37.5 0.1168,-42.232 -29.27,-30.402 -20.688,-34.875 20.339,-10.601 26.663,-43.114 14.594,-65.781 -6.9036,-12.968 -22.076,-0.97049 -15.312,-7.8438 6.4924,-13.276 29.014,-20.041 14.062,-50.594 4.2217,-1.1976 8.215,-4.5436 11.594,-11.781 11.168,-23.923 -21.442,-21.355 -19.594,-34.438 2.4406,-17.279 16.288,-19.98 17.199,-37.407 0.8228,-15.728 -16.658,-16.108 -20.897,-31.276 -4.7423,-16.969 21.45,-37.647 12.542,-52.848 -11.177,-19.071 -40.878,-3.8105 -56.344,-18.688 -12.599,-12.12 10.465,-30.181 -17.656,-35.156 -1.6776,-0.29679 -3.2245,-0.44797 -4.6875,-0.53125 4.4668,-10.361 6.2926,-22.3 2.1875,-34.688 -4.5866,-13.841 -14.85905,-14.057 -18.37505,-27.625 -2.2639,-8.7368 29.63905,-21.029 17.68805,-50 -10.881,-26.376 -31.31005,-9.1529 -29.40605,-18.75 3.0392,-15.322 20.31105,-45.689 -30.969,-61.062 -14.228,-4.2654 -38.264,31.069 -29.5,15.312 10.932,-19.653 -10.524,-41.489 -16.969,-44.312 -13.732,-6.0164 -31.47,19.854 -26.938,2.9375 0.87717,-3.2737 25.569,-31.908 -26.656,-67.719 -31.436,-21.556 -56.602,26.236 -63.031,28.469 -21.278,7.3881 3.6805,-41.446 -72.75,-15.125 -0.0883,-5.0488 -3.0055,-10.653 -9.25,-15.438 -8.8505,-6.7806 -38.604,4.649 -28.938,-0.90625 12.829,-7.3725 14.116,-11.221 12.531,-19.406 -1.6582,-8.5658 -11.705,-14.979 -20.312,-16.406 -7.1484,-1.1855 -15.23,-2.9924 -21.5,9.25 -1.1225,2.1915 -4.6583,-13.976 -10.75,-16.125 -3.0132,-1.063 -6.1696,-1.4801 -9.375,-1.375 z"
           inkscape:connector-curvature="0" />
        <path
           id="path3064"
           style="color:#000000;fill:#78be47"
           d="m 231.66,1008.7 c -0.17028,-7.4808 11.845,-26.17 18.773,-28.997 6.9379,-2.8312 22.253,4.9504 21.288,4.4577 -1.3896,-0.70924 -17.528,-18.418 -5.1274,-27.405 10.684,-7.7423 10.1,4.8111 18.199,7.3474 10.864,3.402 6.4116,-9.289 7.5099,-16.052 0.3882,-2.3904 -1.0132,-10.195 1.9727,-11.389 2.986,-1.1944 19.991,0.0725 22.977,4.85 4.2614,3.9555 -11.762,34.598 -7.9402,33.914 2.3888,-0.59719 16.234,-14.89 22.695,-11.499 6.9074,3.6262 12.99,3.7419 17.946,9.4826 3.7545,4.3489 7.0356,11.762 5.0249,17.144 -2.5512,6.8286 -1.0246,9.7962 -1.0246,9.7962 0,0 12.825,-6.9536 19.55,0.1811 5.118,5.4297 -5.2778,28.299 -7.3837,31.809 -7.7089,12.848 -36.833,20.159 -40.363,19.249 -8.7821,-2.2644 -8.0725,-10.192 -9.0055,-9.6938 -6.6353,3.5399 0.0252,17.876 -8.8068,23.073 -9.7794,5.7542 -31.727,7.7821 -41.43,1.9002 -4.4162,-2.677 -5.6883,-12.046 -5.6883,-12.046 -4.5113,2.4858 -7.7316,9.8649 -16.231,9.2697 -7.132,-0.4994 -20.587,-8.3609 -17.135,-34.054 2.0513,-15.268 15.205,-7.8914 19.878,-11.319 -0.75173,2.3364 -14.934,-1.6807 -15.678,-10.019 z"
           inkscape:connector-curvature="0" />
        <path
           id="path3066"
           style="color:#000000;fill:#78be47"
           d="m 364.27,1101.2 c 2.6413,6.8167 -18.345,5.7087 -4.6444,26.351 4.8792,7.3514 18.462,4.1245 20.151,4.1245 1.6891,0 -6.877,21.43 11.175,26.187 23.576,6.2129 30.105,-18.557 30.105,-18.557 0.0729,0.1106 13.309,9.8486 26.791,5.0111 9.8335,-3.5284 7.0707,-20.742 6.5046,-20.997 0,0 14.879,8.0097 15.381,-15.462 0.14821,-6.9391 -6.678,-13.603 -13.424,-15.694 -6.0003,-1.86 -11.267,-1.4625 -12.103,-2.5204 0,0 13.131,-18.393 6.2393,-26.726 -8.1362,-9.838 -32.235,3.9565 -32.235,3.9565 -3.8276,-8.1889 -2.3538,-10.315 -8.9877,-12.817 -8.4527,-3.185 -24.207,1.4196 -17.516,13.287 3.3298,5.9053 -32.159,-3.8151 -33.383,14.862 -0.91449,13.957 4.3613,14.903 5.9462,18.994 z"
           inkscape:connector-curvature="0" />
        <path
           id="path3068"
           style="color:#000000;fill:#78be47"
           d="m 235.14,1119.1 c 4.0112,-6.8937 -9.056,-1.0361 -12.84,-8.0622 -4.3733,-8.121 8.9092,-31.045 27.402,-27.124 7.6699,1.6261 14.193,8.2368 21.12,5.9357 5.4703,-1.8172 7.1841,-7.5772 12.14,-12.315 4.56,-4.3593 12.138,-6.4022 21.2,-4.479 7.3519,1.5602 13.306,10.101 11.473,14.408 -2.559,6.0136 -7.5167,13.533 -4.8438,13.98 1.2143,0.2028 16.656,-6.7579 26.015,-1.6029 3.9838,2.1942 3.9383,13.96 0.0331,17.42 -6.3507,5.6263 -13.321,12.558 -11.077,15.575 1.31,1.7596 22.069,-5.8968 26.874,1.7915 5.6934,9.1103 -4.1525,23.241 -12.84,29.561 -6.3009,4.5842 -23.937,10.622 -32.737,9.9028 -7.4626,-0.61 -11.605,-4.3788 -11.605,-4.3788 0,0 -9.8224,19.535 -10.003,20.752 -1.1369,7.6648 -39.15,7.5659 -41.505,5.3747 -4.0041,-3.7261 -13.406,-10.155 -12.84,-17.319 0.53793,-6.806 8.5762,-14.33 8.6593,-13.735 0,0 -16.142,8.718 -23.888,2.3887 -6.1199,-5.0008 -5.4827,-16.317 -2.3888,-23.589 3.913,-9.1977 16.621,-15.846 21.648,-24.485 z"
           inkscape:connector-curvature="0" />
        <path
           id="path3070"
           style="color:#000000;fill:#619424"
           d="m 877.65,1060.1 c 15.98,-8.1072 31.853,3.0646 34.683,17.496 1.9691,10.041 -6.2626,21.621 -13.825,23.491 -10.078,2.4927 17.24,11.721 14.845,21.823 -2.9571,12.47 -17.32,3.6791 -29.503,7.657 -8.1722,2.6682 -10.241,13.843 -18.704,12.331 -19.326,-3.4534 -12.613,-17.96 -21.947,-19.357 -7.7883,-1.1654 -0.71767,10.565 -22.422,10.697 -10.766,0.065 -13.41,-27.498 -18.266,-16.492 -3.7444,8.4855 -44.347,2.2358 -54.648,-13.753 -4.0021,-6.212 8.3274,-6.8911 5.56,-13.743 -1.8458,-4.57 -12.386,-2.708 -12.666,-7.6286 -0.45075,-7.9124 18.21,-6.6004 18.842,-14.5 0.46302,-5.7851 -9.213,-2.0075 -8.6204,-7.5406 1.9304,-18.024 52.389,-5.9517 37.493,-12.815 -13.741,-6.331 -6.1547,-12.893 -4.221,-13.749 45.326,-20.055 38.509,-7.5689 55.716,-2.3716 8.5696,2.3529 6.7266,-8.0906 15.611,-8.2946 9.7921,-0.2249 26.571,10.562 29.978,19.745 2.9222,7.8763 -15.397,20.806 -7.9047,17.005 z"
           inkscape:connector-curvature="0" />
        <path
           id="path3072"
           style="color:#000000;fill:#78be47"
           d="m 762.57,1065.3 c 0.16961,-3.3336 -10.446,-2.3325 -5.2086,-9.0383 4.9591,-6.3494 32.568,5.6363 36.197,-5.5171 1.2022,-3.6956 -6.648,-6.2177 -5.5621,-9.9491 3.1846,-10.943 22.413,-13.332 33.761,-12.282 7.912,0.7322 12.427,8.6109 20.357,8.1019 6.3309,-0.4064 7.93,-7.2459 14.27,-7.4685 9.5668,-0.336 21.659,7.4475 23.225,16.891 1.1408,6.8768 -7.8908,16.855 -7.2574,17.7 0.63344,0.8446 12.968,-6.0297 20.559,-2.2863 6.8278,3.3668 14.613,12.112 14.311,23.034 -0.21968,7.9325 -12.183,15.337 -11.777,16.449 0.22213,0.6089 20.425,12 17.947,22.17 -3.6897,15.14 -25.261,5.1673 -27.237,6.3341 -7.2153,4.2614 -11.156,13.995 -20.481,13.724 -18.286,-0.5319 -15.826,-18.29 -23.436,-19.214 -4.3877,-0.5328 -4.2862,6.4588 -8.2344,8.4456 -5.47,2.7525 -13.203,3.4986 -18.369,0.2111 -6.3244,-4.0246 -9.6266,-15.28 -9.9236,-15.835 -0.40572,-0.7594 -4.7746,3.6453 -8.4456,4.2227 -17.767,2.7944 -46.004,-1.7894 -50.462,-19.214 -1.2187,-4.7626 7.9524,-5.8922 6.8568,-10.685 -1.2234,-5.3516 -12.614,-3.0456 -13.138,-8.5101 -0.50976,-5.3129 10.51,-6.3707 17.203,-10.632 2.0233,-1.2884 4.6417,-2.6376 4.8459,-6.6516 z"
           inkscape:connector-curvature="0" />
        <path
           id="path3074"
           style="color:#000000;fill:#542e19"
           d="m 655.12,865.93 c -120.51,23.112 -28.152,147.91 -22.096,195.88 4.1511,43.713 -12.46,87.569 -9.5551,131.38 2.7169,40.981 11.139,82.045 8.3607,123.02 -2.7426,40.454 -18.043,71.258 -23.291,97.342 -6.7456,33.529 19.853,75.482 26.874,105.7 5.7563,24.777 -6.8954,56.342 2.3888,80.024 7.0847,18.071 16.205,35.655 32.248,46.581 23.421,15.951 53.875,31.746 75.246,13.138 17.756,-15.46 4.2221,-53.396 -0.59719,-76.441 -5.7191,-27.348 -24.622,-43.045 -30.531,-64.801 -6.5237,-24.02 -0.0847,-53.856 -7.0925,-79.72 -10.275,-37.92 -21.854,-78.492 -25.082,-117.65 -4.287,-51.992 17.441,-101.31 17.916,-153.48 0.34487,-37.896 -15.527,-103.91 -15.527,-108.69 0,-4.7775 22.477,-106.87 4.1803,-154.67 -10.273,-26.838 -4.7093,-37.172 -33.443,-37.623 z"
           inkscape:connector-curvature="0" />
        <path
           id="path3076"
           style="color:#000000;fill:#562f1a"
           d="m 627.3,980.59 c -1.459,21.024 25.11,82.053 22.441,123.02 -1.8939,29.067 -17.916,81.218 -15.527,85.996 2.3888,4.7775 15.986,85.193 16.142,128.29 0.13975,38.571 -15.391,73.31 -12.559,111.78 2.8576,38.808 -1.5721,94.276 37.303,92.57 32.898,-1.4434 20.055,-45.334 18.748,-78.237 -1.3898,-34.976 -16.732,-68.956 -20.28,-103.78 -5.1708,-50.751 15.587,-141.07 14.393,-147.04 -1.1944,-5.9719 -3.4988,-52.065 -8.3607,-77.635 -6.3773,-33.54 12.842,-112.55 -1.2068,-145.5 -6.5402,-15.338 -49.89,-6.8135 -51.094,10.534 z"
           inkscape:connector-curvature="0" />
        <path
           id="path3078"
           style="color:#000000;fill:#80c94f"
           d="m 634.35,13.753 c -9.6056,0.31488 -19.782,6.1334 -27.217,12.166 -9.3321,7.5722 6.6325,24.729 1.5208,21.553 -14.487,-8.9994 -26.089,5.5388 -30.914,17.148 -8.4105,0.90992 -17.093,4.062 -22.104,9.5705 -3.4238,3.764 9.7199,-20.326 -14.867,-29.603 -7.325,-2.7637 -13.575,-3.8649 -18.931,-3.7233 -28.926,0.76452 -31.838,37.741 -37.731,44.26 -10.516,11.633 -8.2794,-34.522 -40.721,-4.0642 -1.4168,1.3302 -19.674,37.631 5.8734,56.138 4.4976,3.2582 7.1166,13.497 7.7613,18.04 -0.86669,-2.6256 -3.2,-5.4404 -8.1284,-8.443 -19.109,-11.643 -13.278,13.728 -23.048,12.035 -11.028,-1.9104 7.1927,-19.368 -20.033,-22.55 -31.172,-3.6435 -15.767,21.258 -28.58,22.55 -10.376,1.0462 1.0836,-18.629 -25.539,-17.043 -23.564,1.4034 -17.692,15.986 -28.056,20.033 -14.416,5.6287 -12.5,-33.853 -46.122,5.5063 -26.848,31.429 22.725,45.713 7.0271,50.632 -21.513,6.7408 -18.642,5.803 -25.067,17.515 -6.0358,11.002 -6.6016,35.76 -2.491,47.617 2.2098,6.3741 2.9492,14.068 5.5588,19.77 -4.7183,1.1124 -9.8844,3.7616 -15.549,8.6004 -44.721,38.202 0.12874,36.009 -6.2667,52.389 -4.5978,11.776 -21.165,5.1102 -22.759,31.884 -1.8015,30.249 20.539,17.237 19.351,29.026 -1.468,14.559 -29.757,-2.957 -25.618,32.461 2.541,11.64 14.71,24.332 24.7,26.666 -4.7295,5.8706 -24.026,3.7685 -12.743,22.288 6.4573,7.84 19.221,16.348 27.348,15.182 0.0396,-0.007 0.0683,0.004 0.10488,0 -4.7592,8.2748 -12.741,23.409 -12.901,31.439 0.0495,11.908 7.2735,15.162 9.8852,14.92 5.7898,-0.53748 -21.629,16.139 -27.977,24.752 -4.997,6.7796 -32.525,51.133 -12.481,55.797 20.22,4.7051 7.6246,0.56728 -0.44575,20.295 -2.9119,7.118 5.0586,25.206 14.867,17.568 5.4772,-4.2651 -8.0508,18.952 3.5136,37.469 5.6851,9.1032 16.397,0.94443 16.965,3.0678 2.3962,8.9548 -9.1701,15.759 9.99,28.266 19.692,12.854 19.88,-24.563 20.137,-13.504 0.1125,4.83 7.8411,14.748 16.231,13.949 9.2437,-0.87998 14.316,1.6363 19.875,-12.769 2.4222,-6.2769 0.60779,12.271 11.957,22.209 6.8573,6.0049 11.054,-10.606 18.59,-12.271 2.892,-0.63919 6.0372,14.543 13.346,15.287 6.0323,0.61397 16.338,-14.05 19.036,-7.4729 0.74218,1.8091 1.7705,25.001 15.103,16.676 4.424,-2.7624 8.293,-10.649 13.556,-10.226 4.3732,0.35163 7.0087,10.937 11.773,11.327 5.2966,0.43363 9.0904,-13.814 14.815,-13.504 5.3238,0.28833 7.3409,14.416 21.16,14.107 12.791,-0.2865 8.9095,-21.575 12.612,-21.37 7.8948,0.43779 9.3915,19.35 25.985,21.92 12.155,1.8828 14.401,-21.729 26.457,-21.553 9.2023,0.1338 14.025,27.453 21.658,21.212 39.001,-31.888 76.03,-5.852 96.361,-4.641 3.4175,0.20354 8.3209,4.8014 25.198,-2.4385 9.5142,-4.0814 8.6289,-17.595 13.294,-19.534 6.4646,-2.6876 13.977,8.1923 19.062,4.6673 11.256,-8.0253 10.106,-23.293 20.295,-15.68 27.871,25.775 29.341,-19.086 41.245,-10.855 9.2416,6.3901 20.616,8.2534 24.91,-5.3752 3.0332,-9.6274 10.526,2.4691 18.486,-0.70796 7.3532,-2.9352 15.108,-21.455 19.928,-22.681 12.946,-3.2919 15.598,13.523 33.562,8.0235 4.7713,-1.4606 2.5876,-13.537 13.923,-20.269 4.2592,-2.5292 10.757,18.716 18.354,18.853 6.9514,0.12492 17.787,-9.8891 20.898,-4.038 14.605,27.47 21.035,-6.8789 27.558,-4.7197 7.177,2.3756 9.6599,18.993 20.321,17.463 27.27,-3.915 22.7,-25.704 24.49,-24.805 16.751,8.4151 24.15,0.0812 31.83197,-6.0832 27.036,-21.696 -0.7546,-42.061 1.783,-41.665 18.831,2.9425 20.268,-21.766 20.295,-31.465 0.098,-35.435 -24.559,-25.509 -17.358,-29.262 17.066,-8.8952 22.372,-36.175 12.245,-55.194 -5.7925,-10.881 -18.523,-0.8143 -12.848,-6.5814 7.5748,-7.6986 18.333,-34.395 12.769,-41.35 -0.3149,-0.3936 -0.6435,-0.75158 -0.9702,-1.1013 3.5423,-1.0049 6.8929,-3.8124 9.7279,-9.8852 9.3709,-20.073 -17.991,-17.918 -16.44,-28.895 2.0479,-14.498 30.674,-16.056 31.439,-30.678 0.6904,-13.197 -21.772,-17.767 -25.329,-30.495 -3.9791,-14.238 8.7859,-28.045 1.311,-40.799 -9.3779,-16.002 -34.29897,-3.1973 -47.27597,-15.68 -10.572,-10.169 8.7808,-25.324 -14.815,-29.498 -1.4076,-0.24902 -2.7056,-0.37587 -3.9331,-0.44575 3.7479,-8.6936 5.2799,-18.711 1.8354,-29.105 -3.8484,-11.613 -12.468,-11.795 -15.418,-23.179 -1.8995,-7.3307 24.869,-17.645 14.841,-41.953 -9.1296,-22.131 -26.271,-7.6798 -24.674,-15.732 2.5501,-12.856 17.043,-38.336 -25.985,-51.235 -11.938,-3.579 -32.106,26.069 -24.752,12.848 9.1723,-16.49 -8.8301,-34.812 -14.238,-37.181 -11.522,-5.0481 -26.405,16.658 -22.602,2.4647 0.736,-2.7468 21.454,-26.773 -22.366,-56.82 -26.377,-18.087 -47.493,22.014 -52.887,23.887 -17.854,6.1991 3.0882,-34.775 -61.042,-12.691 -0.0741,-4.2362 -2.5218,-8.9389 -7.7613,-12.953 -7.4261,-5.6893 -32.391,3.9008 -24.28,-0.7604 10.764,-6.1859 11.844,-9.4153 10.514,-16.283 -1.3913,-7.1872 -9.8214,-12.568 -17.043,-13.766 -5.9979,-0.9947 -12.778,-2.5108 -18.04,7.7613 -0.94185,1.8388 -3.9086,-11.727 -9.0199,-13.53 -2.5282,-0.89189 -5.1766,-1.2419 -7.8662,-1.1537 z"
           inkscape:connector-curvature="0" />
        <path
           id="path3080"
           style="color:#000000;fill:#78be47"
           d="m 634.45,110.03 c -7.5514,0.24755 -15.551,4.8218 -21.396,9.5645 -7.3364,5.9528 5.2141,19.44 1.1956,16.944 -11.389,-7.0748 -20.51,4.3543 -24.303,13.481 -6.6118,0.71533 -13.438,3.1933 -17.377,7.5238 -2.6916,2.959 7.6412,-15.979 -11.688,-23.272 -5.7585,-2.1727 -10.672,-3.0384 -14.883,-2.9271 -22.74,0.60102 -25.029,29.67 -29.662,34.795 -8.2671,9.145 -6.5088,-27.139 -32.012,-3.195 -1.1138,1.0457 -15.467,29.583 4.6173,44.133 3.5358,2.5614 5.5946,10.61 6.1015,14.182 -0.68135,-2.0641 -2.5157,-4.2769 -6.3901,-6.6374 -15.023,-9.1528 -10.439,10.792 -18.119,9.4614 -8.6694,-1.5018 5.6545,-15.226 -15.748,-17.727 -24.505,-2.8643 -12.395,16.712 -22.468,17.727 -8.1566,0.82245 0.85183,-14.645 -20.077,-13.399 -18.525,1.1032 -13.909,12.567 -22.056,15.748 -11.333,4.4249 -9.8267,-26.613 -36.258,4.3288 -21.106,24.708 17.865,35.937 5.5243,39.804 -16.913,5.2992 -14.655,4.562 -19.706,13.77 -4.745,8.6495 -5.1898,28.112 -1.9582,37.433 1.7372,5.0109 2.3185,11.06 4.37,15.542 -3.7092,0.87453 -7.7705,2.9571 -12.224,6.7611 -35.157,30.032 0.1012,28.308 -4.9265,41.185 -3.6145,9.2573 -16.639,4.0174 -17.892,25.066 -1.4162,23.78 16.147,13.551 15.212,22.819 -1.154,11.445 -23.393,-2.3246 -20.139,25.519 1.9976,9.1506 11.564,19.129 19.418,20.964 -3.718,4.6152 -18.888,2.9626 -10.018,17.521 5.0764,6.1634 15.111,12.852 21.499,11.935 0.0311,-0.005 0.0537,0.003 0.0824,0 -3.7414,6.5052 -10.016,18.403 -10.142,24.715 0.0389,9.3612 5.718,11.919 7.7712,11.729 4.5516,-0.42254 -17.003,12.687 -21.994,19.459 -3.9283,5.3297 -25.569,40.198 -9.8118,43.865 15.896,3.6988 5.994,0.44596 -0.35042,15.955 -2.2892,5.5957 3.9768,19.815 11.688,13.811 4.3059,-3.353 -6.3291,14.899 2.7622,29.456 4.4693,7.1564 12.89,0.74246 13.337,2.4117 1.8837,7.0398 -7.209,12.389 7.8536,22.221 15.481,10.105 15.628,-19.31 15.831,-10.616 0.0884,3.7971 6.1642,11.594 12.76,10.966 7.2669,-0.69179 11.255,1.2864 15.625,-10.039 1.9042,-4.9346 0.47781,9.6467 9.3996,17.459 5.3908,4.7207 8.6901,-8.3375 14.615,-9.6469 2.2735,-0.50249 4.7461,11.433 10.492,12.017 4.7423,0.48266 12.844,-11.045 14.965,-5.8747 0.58346,1.4222 1.3918,19.654 11.873,13.11 3.4779,-2.1716 6.5194,-8.3718 10.657,-8.0391 3.438,0.27643 5.5098,8.5982 9.2553,8.9049 4.1639,0.34089 7.1464,-10.859 11.646,-10.616 4.1853,0.22668 5.771,11.333 16.635,11.09 10.055,-0.22523 7.0041,-16.961 9.9149,-16.8 6.2064,0.34416 7.383,15.212 20.428,17.233 9.5556,1.4802 11.322,-17.082 20.799,-16.944 7.2343,0.10518 11.026,21.582 17.026,16.676 30.661,-25.069 59.77,-4.6005 75.753,-3.6485 2.6866,0.16 6.5414,3.7746 19.809,-1.917 7.4795,-3.2085 6.7835,-13.832 10.451,-15.357 5.0821,-2.1128 10.988,6.4403 14.986,3.6691 8.8487,-6.309 7.9447,-18.311 15.955,-12.327 21.911,20.263 23.066,-15.004 32.424,-8.5338 7.2652,5.0236 16.207,6.4883 19.582,-4.2257 2.3846,-7.5685 8.2752,1.9411 14.532,-0.55656 5.7806,-2.3074 11.877,-16.867 15.666,-17.83 10.177,-2.5879 12.262,10.631 26.385,6.3076 3.7509,-1.1483 2.0342,-10.642 10.946,-15.934 3.3483,-1.9883 8.4564,14.714 14.429,14.821 5.4648,0.0982 13.983,-7.7742 16.429,-3.1744 11.482,21.595 16.536,-5.4078 21.664,-3.7104 5.6421,1.8675 7.5941,14.932 15.975,13.728 21.438,-3.0777 17.845,-20.207 19.253,-19.5 13.168,6.6154 18.986,0.0638 25.024,-4.7822 21.254,-17.057 -0.59322,-33.066 1.4017,-32.754 14.804,2.3132 15.933,-17.111 15.955,-24.736 0.077,-27.857 -19.307,-20.054 -13.646,-23.004 13.416,-6.9929 17.587,-28.439 9.6262,-43.391 -4.5537,-8.5536 -14.562,-0.64015 -10.1,-5.1739 5.9549,-6.0522 14.413,-27.039 10.039,-32.507 -0.24756,-0.30941 -0.50588,-0.59084 -0.76271,-0.86574 2.7847,-0.78999 5.4188,-2.997 7.6475,-7.7712 7.3669,-15.78 -14.143,-14.086 -12.924,-22.716 1.6099,-11.398 24.114,-12.622 24.715,-24.117 0.54276,-10.375 -17.116,-13.967 -19.912,-23.973 -3.1281,-11.193 6.907,-22.047 1.0306,-32.074 -7.3724,-12.58 -26.964,-2.5135 -37.165,-12.327 -8.3108,-7.9946 6.9029,-19.908 -11.646,-23.19 -1.1066,-0.19576 -2.127,-0.29548 -3.092,-0.35042 2.9464,-6.8344 4.1507,-14.71 1.4429,-22.881 -3.0254,-9.1296 -9.8014,-9.2723 -12.121,-18.222 -1.4933,-5.763 19.55,-13.871 11.667,-32.981 -7.1771,-17.398 -20.653,-6.0374 -19.397,-12.368 2.0047,-10.106 13.398,-30.137 -20.428,-40.278 -9.3849,-2.8136 -25.24,20.494 -19.459,10.1 7.2108,-12.963 -6.9417,-27.367 -11.193,-29.229 -9.058,-3.9685 -20.758,13.096 -17.769,1.9376 0.5786,-2.1594 16.866,-21.047 -17.583,-44.669 -20.736,-14.219 -37.336,17.306 -41.577,18.779 -14.035,4.8733 2.4278,-27.338 -47.987,-9.9768 -0.0583,-3.3303 -1.9825,-7.0272 -6.1015,-10.183 -5.838,-4.4726 -25.464,3.0666 -19.088,-0.59777 8.4622,-4.863 9.311,-7.4018 8.2659,-12.801 -1.0938,-5.6502 -7.721,-9.8803 -13.399,-10.822 -4.7152,-0.78197 -10.046,-1.9739 -14.182,6.1015 -0.74042,1.4456 -3.0727,-9.2189 -7.0909,-10.636 -1.9876,-0.70114 -4.0696,-0.97629 -6.1839,-0.90698 z"
           inkscape:connector-curvature="0" />
      </g>
    </g>
  </g>
  <metadata
     id="metadata119">
    <rdf:RDF>
      <cc:Work>
        <dc:format>image/svg+xml</dc:format>
        <dc:type
           rdf:resource="http://purl.org/dc/dcmitype/StillImage" />
        <cc:license
           rdf:resource="http://creativecommons.org/publicdomain/zero/1.0/" />
        <dc:publisher>
          <cc:Agent
             rdf:about="http://openclipart.org/">
            <dc:title>Openclipart</dc:title>
          </cc:Agent>
        </dc:publisher>
        <dc:title></dc:title>
        <dc:date>2013-05-25T05:42:08</dc:date>
        <dc:description>Three simple trees</dc:description>
        <dc:source>https://openclipart.org/detail/178578/trees-by-ahninniah-178578</dc:source>
        <dc:creator>
          <cc:Agent>
            <dc:title>AhNinniah</dc:title>
          </cc:Agent>
        </dc:creator>
        <dc:subject>
          <rdf:Bag>
            <rdf:li>bark</rdf:li>
            <rdf:li>botany</rdf:li>
            <rdf:li>branch</rdf:li>
            <rdf:li>cartoon</rdf:li>
            <rdf:li>environment</rdf:li>
            <rdf:li>environmental</rdf:li>
            <rdf:li>forest</rdf:li>
            <rdf:li>green</rdf:li>
            <rdf:li>growth</rdf:li>
            <rdf:li>leaf</rdf:li>
            <rdf:li>nature</rdf:li>
            <rdf:li>park</rdf:li>
            <rdf:li>plants</rdf:li>
            <rdf:li>stem</rdf:li>
            <rdf:li>tree</rdf:li>
            <rdf:li>trunk</rdf:li>
            <rdf:li>vector</rdf:li>
            <rdf:li>woods</rdf:li>
          </rdf:Bag>
        </dc:subject>
      </cc:Work>
      <cc:License
         rdf:about="http://creativecommons.org/publicdomain/zero/1.0/">
        <cc:permits
           rdf:resource="http://creativecommons.org/ns#Reproduction" />
        <cc:permits
           rdf:resource="http://creativecommons.org/ns#Distribution" />
        <cc:permits
           rdf:resource="http://creativecommons.org/ns#DerivativeWorks" />
      </cc:License>
    </rdf:RDF>
  </metadata>
</svg>
