<?xml version="1.0" encoding="UTF-8" standalone="no"?>
<!-- Created with Inkscape (http://www.inkscape.org/) -->

<svg
   xmlns:dc="http://purl.org/dc/elements/1.1/"
   xmlns:cc="http://creativecommons.org/ns#"
   xmlns:rdf="http://www.w3.org/1999/02/22-rdf-syntax-ns#"
   xmlns:svg="http://www.w3.org/2000/svg"
   xmlns="http://www.w3.org/2000/svg"
   xmlns:sodipodi="http://sodipodi.sourceforge.net/DTD/sodipodi-0.dtd"
   xmlns:inkscape="http://www.inkscape.org/namespaces/inkscape"
   width="210mm"
   height="297mm"
   viewBox="0 0 210 297"
   version="1.1"
   id="svg8"
   sodipodi:docname="boss.svg"
   inkscape:version="0.92.3 (2405546, 2018-03-11)">
  <defs
     id="defs2" />
  <sodipodi:namedview
     id="base"
     pagecolor="#ffffff"
     bordercolor="#666666"
     borderopacity="1.0"
     inkscape:pageopacity="0.0"
     inkscape:pageshadow="2"
     inkscape:zoom="0.98994949"
     inkscape:cx="18.057946"
     inkscape:cy="596.02098"
     inkscape:document-units="mm"
     inkscape:current-layer="g1001"
     showgrid="false"
     inkscape:window-width="1853"
     inkscape:window-height="1018"
     inkscape:window-x="67"
     inkscape:window-y="34"
     inkscape:window-maximized="1" />
  <metadata
     id="metadata5">
    <rdf:RDF>
      <cc:Work
         rdf:about="">
        <dc:format>image/svg+xml</dc:format>
        <dc:type
           rdf:resource="http://purl.org/dc/dcmitype/StillImage" />
      </cc:Work>
    </rdf:RDF>
  </metadata>
  <g
     inkscape:label="Layer 1"
     inkscape:groupmode="layer"
     id="layer1">
    <g
       id="g1001">
      <path
         sodipodi:nodetypes="ccsssccc"
         inkscape:connector-curvature="0"
         id="path957"
         d="m 63.321388,167.10701 -18.976136,31.00326 c 0,0 -5.95571,-0.76019 -7.216277,1.33635 -2.598927,4.32246 -1.974398,8.99155 2.405427,11.49259 4.447629,2.53976 10.112368,1.27581 12.027128,-3.4745 1.588966,-3.94205 -1.870887,-7.75082 -1.870887,-7.75082 L 68.666779,168.9779 c -1.781797,-2.93389 -3.563594,-2.41832 -5.345391,-1.87089 z"
         style="fill:#000000;stroke:#000000;stroke-width:0.26458332px;stroke-linecap:butt;stroke-linejoin:miter;stroke-opacity:1" />
      <path
         sodipodi:nodetypes="ccscccc"
         inkscape:connector-curvature="0"
         id="path943"
         d="m 92.475257,167.90882 6.949007,33.40869 c 8.981536,21.44493 29.617736,14.67914 31.003266,1.87089 0.95722,-8.84888 -4.00371,-13.55504 -10.09522,-17.46981 l -1.45823,-9.06397 -4.48272,-12.48758 z"
         style="fill:#000000;fill-opacity:1;stroke:#000000;stroke-width:0;stroke-linecap:butt;stroke-linejoin:miter;stroke-miterlimit:4;stroke-dasharray:none;stroke-opacity:1" />
      <path
         sodipodi:nodetypes="sssss"
         inkscape:connector-curvature="0"
         id="path945"
         d="m 102.28374,173.16161 c -4.101569,5.34046 -2.846939,16.68277 2.34872,20.73679 3.12131,2.43548 9.29154,1.02294 11.27383,-2.56009 3.07105,-5.55101 -0.0865,-14.93107 -4.93231,-18.68873 -2.36383,-1.833 -6.8281,-1.9126 -8.69024,0.51203 z"
         style="fill:#ff0000;fill-opacity:1;stroke:#000000;stroke-width:0.24274853px;stroke-linecap:butt;stroke-linejoin:miter;stroke-opacity:1" />
      <path
         sodipodi:nodetypes="ccccccccccccccsccc"
         inkscape:connector-curvature="0"
         id="path951"
         d="m 92.475257,167.90882 -25.444824,9.28569 -12.545712,-3.92856 -8.019884,15.43407 8.549984,-10.25551 3.887405,2.67856 -8.499362,3.13262 -3.938027,8.1485 7.113027,-5.50267 7.798163,-3.81416 -3.884602,6.42855 c 1.413602,2.55952 -7.013418,5.11903 -5.599816,7.67855 l 10.016388,-4.86724 4.062235,-7.8113 c 0,0 9.954872,-9.20633 16.256415,-10.53569 4.379294,-0.92384 13.252513,2.14285 13.252513,2.14285 l -3.003903,-8.21426 v 0"
         style="fill:#000000;stroke:#000000;stroke-width:0.17584778px;stroke-linecap:butt;stroke-linejoin:miter;stroke-opacity:1" />
      <path
         style="fill:#000000;stroke:#000000;stroke-width:0.17584778px;stroke-linecap:butt;stroke-linejoin:miter;stroke-opacity:1"
         d="m 114.39136,164.16704 25.44482,9.28569 12.54572,-3.92856 10.42531,9.82141 -10.95541,-4.64285 -3.88741,2.67856 6.36121,6.60712 v 8.57141 l -4.59421,-9.46425 -4.2408,-3.74999 2.2971,6.42855 -1.767,5.17856 -2.4738,2.49999 0.3534,-8.57141 -3.00391,-4.10713 c 0,0 -9.95487,-9.20633 -16.25641,-10.53569 -4.37929,-0.92384 -13.25251,2.14285 -13.25251,2.14285 l 3.0039,-8.21426 v 0"
         id="path953"
         inkscape:connector-curvature="0"
         sodipodi:nodetypes="cccccccccccccccsccc" />
    </g>
    <g
       id="g941"
       transform="translate(-18.441598,-32.269777)">
      <path
         style="fill:#000000;stroke:#000000;stroke-width:0;stroke-linecap:butt;stroke-linejoin:miter;stroke-miterlimit:4;stroke-dasharray:none;stroke-opacity:1"
         d="M 50.07904,125.75583 C 49.901353,111.70107 50.646704,94.793222 60.651805,84.940462 73.579462,72.209633 95.49556,74.131583 113.51559,72.166186 c 10.40967,-1.135364 21.54114,-2.8913 31.40735,0.623125 14.75047,5.254264 28.81503,15.607977 37.00469,28.975799 8.45447,13.80007 13.42346,32.00565 9.32892,47.66986 -4.21006,16.10614 -17.89966,29.77352 -32.34024,38.01125 -20.19935,11.52286 -46.7625,19.47098 -68.722947,11.83957 C 77.018023,194.70727 68.96619,180.35023 62.206627,168.12902 55.098112,155.27691 50.264778,140.44833 50.07904,125.75583 Z"
         id="path912"
         inkscape:connector-curvature="0"
         sodipodi:nodetypes="aaaaaaaaaa" />
      <path
         sodipodi:nodetypes="aaaaaaaaaa"
         inkscape:connector-curvature="0"
         id="path886"
         d="m 59.333837,127.55113 c -0.15272,-12.05648 0.4879,-26.5604 9.08716,-35.012312 11.11116,-10.920782 29.94779,-9.272092 45.435813,-10.958052 8.94698,-0.97394 18.51434,-2.48022 26.99422,0.53453 12.67785,4.507222 24.76616,13.388862 31.80507,24.856074 7.26651,11.838 11.5373,27.45514 8.01809,40.89224 -3.61849,13.8162 -15.38453,25.54038 -27.79603,32.60688 -17.36109,9.88456 -40.19179,16.70263 -59.066563,10.15624 -11.32404,-3.92755 -18.24449,-16.24333 -24.05425,-26.72695 -6.10968,-11.02482 -10.26387,-23.7451 -10.42351,-36.34865 z"
         style="fill:#ff0000;stroke:#000000;stroke-width:0;stroke-linecap:butt;stroke-linejoin:miter;stroke-miterlimit:4;stroke-dasharray:none;stroke-opacity:1" />
      <g
         transform="translate(-7.2162774,-19.243406)"
         id="g897">
        <path
           style="opacity:1;fill:#ffffff;fill-opacity:1;stroke:#000000;stroke-width:0;stroke-miterlimit:4;stroke-dasharray:none;stroke-opacity:1"
           id="path888"
           sodipodi:type="arc"
           sodipodi:cx="85.258972"
           sodipodi:cy="133.29741"
           sodipodi:rx="13.096207"
           sodipodi:ry="11.893495"
           sodipodi:start="4.7271196"
           sodipodi:end="4.7214821"
           d="M 85.45188,121.4052 A 13.096207,11.893495 0 0 1 98.354017,133.45584 13.096207,11.893495 0 0 1 85.102976,145.19006 13.096207,11.893495 0 0 1 72.163488,133.1725 13.096207,11.893495 0 0 1 85.378056,121.40441 l -0.119084,11.893 z" />
        <path
           style="opacity:1;fill:#000000;fill-opacity:1;stroke:#000000;stroke-width:0;stroke-miterlimit:4;stroke-dasharray:none;stroke-opacity:1"
           id="path890"
           sodipodi:type="arc"
           sodipodi:cx="85.258972"
           sodipodi:cy="133.29741"
           sodipodi:rx="4.8108511"
           sodipodi:ry="4.6772165"
           sodipodi:start="4.7271196"
           sodipodi:end="4.7214821"
           d="m 85.329836,128.6207 a 4.8108511,4.6772165 0 0 1 4.73956,4.73901 4.8108511,4.6772165 0 0 1 -4.867729,4.61458 4.8108511,4.6772165 0 0 1 -4.753281,-4.726 4.8108511,4.6772165 0 0 1 4.854331,-4.6279 l -0.04375,4.67702 z" />
        <path
           style="opacity:1;fill:#ffffff;fill-opacity:1;stroke:#000000;stroke-width:0;stroke-miterlimit:4;stroke-dasharray:none;stroke-opacity:1"
           id="path892"
           sodipodi:type="arc"
           sodipodi:cx="86.917336"
           sodipodi:cy="131.79565"
           sodipodi:rx="1.7372519"
           sodipodi:ry="2.271791"
           sodipodi:start="4.7271196"
           sodipodi:end="4.7214821"
           d="m 86.942925,129.52411 a 1.7372519,2.271791 0 0 1 1.711508,2.30181 1.7372519,2.271791 0 0 1 -1.757791,2.24136 1.7372519,2.271791 0 0 1 -1.716463,-2.29548 1.7372519,2.271791 0 0 1 1.752953,-2.24784 l -0.0158,2.27169 z" />
      </g>
      <g
         id="g905"
         transform="translate(61.739261,-18.976136)">
        <path
           d="M 85.45188,121.4052 A 13.096207,11.893495 0 0 1 98.354017,133.45584 13.096207,11.893495 0 0 1 85.102976,145.19006 13.096207,11.893495 0 0 1 72.163488,133.1725 13.096207,11.893495 0 0 1 85.378056,121.40441 l -0.119084,11.893 z"
           sodipodi:end="4.7214821"
           sodipodi:start="4.7271196"
           sodipodi:ry="11.893495"
           sodipodi:rx="13.096207"
           sodipodi:cy="133.29741"
           sodipodi:cx="85.258972"
           sodipodi:type="arc"
           id="path899"
           style="opacity:1;fill:#ffffff;fill-opacity:1;stroke:#000000;stroke-width:0;stroke-miterlimit:4;stroke-dasharray:none;stroke-opacity:1" />
        <path
           d="m 85.329836,128.6207 a 4.8108511,4.6772165 0 0 1 4.73956,4.73901 4.8108511,4.6772165 0 0 1 -4.867729,4.61458 4.8108511,4.6772165 0 0 1 -4.753281,-4.726 4.8108511,4.6772165 0 0 1 4.854331,-4.6279 l -0.04375,4.67702 z"
           sodipodi:end="4.7214821"
           sodipodi:start="4.7271196"
           sodipodi:ry="4.6772165"
           sodipodi:rx="4.8108511"
           sodipodi:cy="133.29741"
           sodipodi:cx="85.258972"
           sodipodi:type="arc"
           id="path901"
           style="opacity:1;fill:#000000;fill-opacity:1;stroke:#000000;stroke-width:0;stroke-miterlimit:4;stroke-dasharray:none;stroke-opacity:1" />
        <path
           d="m 86.942925,129.52411 a 1.7372519,2.271791 0 0 1 1.711508,2.30181 1.7372519,2.271791 0 0 1 -1.757791,2.24136 1.7372519,2.271791 0 0 1 -1.716463,-2.29548 1.7372519,2.271791 0 0 1 1.752953,-2.24784 l -0.0158,2.27169 z"
           sodipodi:end="4.7214821"
           sodipodi:start="4.7271196"
           sodipodi:ry="2.271791"
           sodipodi:rx="1.7372519"
           sodipodi:cy="131.79565"
           sodipodi:cx="86.917336"
           sodipodi:type="arc"
           id="path903"
           style="opacity:1;fill:#ffffff;fill-opacity:1;stroke:#000000;stroke-width:0;stroke-miterlimit:4;stroke-dasharray:none;stroke-opacity:1" />
      </g>
      <path
         sodipodi:nodetypes="csscsc"
         inkscape:connector-curvature="0"
         id="path907"
         d="m 91.673447,155.34715 c 0,0 8.419773,-12.90394 14.967093,-16.30344 7.3358,-3.80889 16.46576,-4.7363 24.58879,-3.20724 11.28473,2.12421 30.20146,16.57072 30.20146,16.57072 0,0 -16.31349,18.40521 -27.52876,19.77794 -15.04166,1.84107 -42.228583,-16.83798 -42.228583,-16.83798 z"
         style="fill:#ffffff;stroke:none;stroke-width:0.26458332px;stroke-linecap:butt;stroke-linejoin:miter;stroke-opacity:1" />
      <path
         inkscape:connector-curvature="0"
         id="path909"
         d="m 91.673446,155.34715 18.441594,-1.06908 5.61266,-18.17433 14.9671,17.37252 14.69982,-12.02713 16.03617,10.95806 -13.0962,12.29439 -5.07813,-14.43255 -3.20723,19.77794 -8.55262,2.93997 -12.02713,-4.00904 -2.93997,-19.51068 -8.55262,14.43255 z"
         style="fill:#000000;stroke:#000000;stroke-width:0.26458332px;stroke-linecap:butt;stroke-linejoin:miter;stroke-opacity:1" />
      <path
         inkscape:connector-curvature="0"
         id="path914"
         d="m 73.766388,139.84552 c 14.165286,32.87415 21.916101,29.93418 21.916101,29.93418"
         style="fill:none;stroke:#000000;stroke-width:0.26458332px;stroke-linecap:butt;stroke-linejoin:miter;stroke-opacity:1" />
      <path
         inkscape:connector-curvature="0"
         id="path916"
         d="m 74.03366,150.5363 7.750815,-3.20724 v 0"
         style="fill:none;stroke:#000000;stroke-width:0.26458332px;stroke-linecap:butt;stroke-linejoin:miter;stroke-opacity:1" />
      <path
         inkscape:connector-curvature="0"
         id="path918"
         d="m 77.508163,154.81261 6.949006,-2.67269"
         style="fill:none;stroke:#000000;stroke-width:0.26458332px;stroke-linecap:butt;stroke-linejoin:miter;stroke-opacity:1" />
      <path
         inkscape:connector-curvature="0"
         id="path920"
         d="m 81.517206,159.89073 c 4.543581,-2.40542 4.81085,-2.40542 4.81085,-2.40542"
         style="fill:none;stroke:#000000;stroke-width:0.26458332px;stroke-linecap:butt;stroke-linejoin:miter;stroke-opacity:1" />
      <path
         inkscape:connector-curvature="0"
         id="path922"
         d="m 84.991709,164.43431 c 5.078121,-2.40542 5.078121,-2.40542 5.078121,-2.40542"
         style="fill:none;stroke:#000000;stroke-width:0.26458332px;stroke-linecap:butt;stroke-linejoin:miter;stroke-opacity:1" />
    </g>
  </g>
</svg>
