<?xml version="1.0" encoding="UTF-8" standalone="no"?>
<!-- Created with Inkscape (http://www.inkscape.org/) -->

<svg
   xmlns:dc="http://purl.org/dc/elements/1.1/"
   xmlns:cc="http://creativecommons.org/ns#"
   xmlns:rdf="http://www.w3.org/1999/02/22-rdf-syntax-ns#"
   xmlns:svg="http://www.w3.org/2000/svg"
   xmlns="http://www.w3.org/2000/svg"
   xmlns:sodipodi="http://sodipodi.sourceforge.net/DTD/sodipodi-0.dtd"
   xmlns:inkscape="http://www.inkscape.org/namespaces/inkscape"
   width="1024"
   height="600"
   viewBox="0 0 270.93333 158.75"
   version="1.1"
   id="svg8"
   inkscape:version="0.92.3 (2405546, 2018-03-11)"
   sodipodi:docname="parallax3.svg">
  <defs
     id="defs2" />
  <sodipodi:namedview
     id="base"
     pagecolor="#ffffff"
     bordercolor="#666666"
     borderopacity="1.0"
     inkscape:pageopacity="0.0"
     inkscape:pageshadow="2"
     inkscape:zoom="0.98994949"
     inkscape:cx="355.75984"
     inkscape:cy="207.87077"
     inkscape:document-units="mm"
     inkscape:current-layer="layer1"
     showgrid="false"
     units="px"
     inkscape:window-width="1920"
     inkscape:window-height="1025"
     inkscape:window-x="0"
     inkscape:window-y="27"
     inkscape:window-maximized="1" />
  <metadata
     id="metadata5">
    <rdf:RDF>
      <cc:Work
         rdf:about="">
        <dc:format>image/svg+xml</dc:format>
        <dc:type
           rdf:resource="http://purl.org/dc/dcmitype/StillImage" />
        <dc:title />
      </cc:Work>
    </rdf:RDF>
  </metadata>
  <g
     inkscape:label="Layer 1"
     inkscape:groupmode="layer"
     id="layer1"
     transform="translate(0,-138.24998)">
    <path
       style="opacity:1;fill:#ffffff;fill-opacity:1;stroke:none;stroke-width:0.26499999;stroke-miterlimit:4;stroke-dasharray:none;stroke-opacity:1"
       id="path842"
       sodipodi:type="arc"
       sodipodi:cx="35.619839"
       sodipodi:cy="145.82649"
       sodipodi:rx="6.6787057"
       sodipodi:ry="0.0033761889"
       sodipodi:start="4.7059662"
       sodipodi:end="4.6516166"
       sodipodi:open="true"
       d="m 35.576943,145.82312 a 6.6787057,0.00337619 0 0 1 6.720264,0.003 6.6787057,0.00337619 0 0 1 -6.453022,0.003 6.6787057,0.00337619 0 0 1 -6.895619,-0.003 6.6787057,0.00337619 0 0 1 6.265642,-0.004" />
    <g
       id="g913"
       transform="matrix(1,0,0,3.7014322,0,-811.27068)"
       style="stroke:none">
      <g
         transform="matrix(0.28108778,0,0,0.28108778,-1.0426402,215.29995)"
         id="g822"
         style="stroke:none">
        <path
           style="fill:#00ff00;stroke:none;stroke-width:0.26458332px;stroke-linecap:butt;stroke-linejoin:miter;stroke-opacity:1"
           d="m 47.573975,299.13814 v -66.28285 l -33.40869,20.04522 29.934187,-31.80508 -32.339613,13.63075 31.537804,-29.66692 -32.874152,14.43256 33.14142,-35.54685 -17.639786,6.1472 29.666916,-34.47777 31.270535,37.95227 -29.132378,-10.15624 26.726951,26.19241 -26.726951,-6.41446 27.261491,25.3906 -31.270535,-9.08716 36.348657,27.79603 -36.348657,-14.16529 -0.267269,66.55011 z"
           id="path818"
           inkscape:connector-curvature="0" />
        <path
           inkscape:connector-curvature="0"
           id="path820"
           d="m 132.56568,301.00903 v -66.28285 l -33.408685,20.04522 29.934185,-31.80508 -32.339611,13.63075 31.537801,-29.66692 -32.874149,14.43256 33.141419,-35.54685 -17.63979,6.1472 29.66692,-34.47777 31.27054,37.95227 -29.13238,-10.15624 26.72695,26.19241 -26.72695,-6.41446 27.26149,25.3906 -31.27054,-9.08716 36.34866,27.79603 -36.34866,-14.16529 -0.26727,66.55011 z"
           style="fill:#00ff00;stroke:none;stroke-width:0.26458332px;stroke-linecap:butt;stroke-linejoin:miter;stroke-opacity:1" />
        <path
           style="fill:#00ff00;stroke:none;stroke-width:0.26458332px;stroke-linecap:butt;stroke-linejoin:miter;stroke-opacity:1"
           d="m 212.74653,300.20721 v -66.28285 l -33.40868,20.04522 29.93418,-31.80508 -32.33961,13.63075 31.5378,-29.66692 -32.87414,14.43256 33.14141,-35.54685 -17.63979,6.1472 29.66692,-34.47777 31.27054,37.95227 -29.13238,-10.15624 26.72695,26.19241 -26.72695,-6.41446 27.26149,25.3906 -31.27054,-9.08716 36.34866,27.79603 -36.34866,-14.16529 -0.26727,66.55011 z"
           id="path822"
           inkscape:connector-curvature="0" />
      </g>
      <g
         id="g830"
         transform="matrix(0.28108778,0,0,0.28108778,59.489198,215.55111)"
         style="stroke:none">
        <path
           inkscape:connector-curvature="0"
           id="path824"
           d="m 47.573975,299.13814 v -66.28285 l -33.40869,20.04522 29.934187,-31.80508 -32.339613,13.63075 31.537804,-29.66692 -32.874152,14.43256 33.14142,-35.54685 -17.639786,6.1472 29.666916,-34.47777 31.270535,37.95227 -29.132378,-10.15624 26.726951,26.19241 -26.726951,-6.41446 27.261491,25.3906 -31.270535,-9.08716 36.348657,27.79603 -36.348657,-14.16529 -0.267269,66.55011 z"
           style="fill:#00ff00;stroke:none;stroke-width:0.26458332px;stroke-linecap:butt;stroke-linejoin:miter;stroke-opacity:1" />
        <path
           style="fill:#00ff00;stroke:none;stroke-width:0.26458332px;stroke-linecap:butt;stroke-linejoin:miter;stroke-opacity:1"
           d="m 132.56568,301.00903 v -66.28285 l -33.408685,20.04522 29.934185,-31.80508 -32.339611,13.63075 31.537801,-29.66692 -32.874149,14.43256 33.141419,-35.54685 -17.63979,6.1472 29.66692,-34.47777 31.27054,37.95227 -29.13238,-10.15624 26.72695,26.19241 -26.72695,-6.41446 27.26149,25.3906 -31.27054,-9.08716 36.34866,27.79603 -36.34866,-14.16529 -0.26727,66.55011 z"
           id="path826"
           inkscape:connector-curvature="0" />
        <path
           inkscape:connector-curvature="0"
           id="path828"
           d="m 212.74653,300.20721 v -66.28285 l -33.40868,20.04522 29.93418,-31.80508 -32.33961,13.63075 31.5378,-29.66692 -32.87414,14.43256 33.14141,-35.54685 -17.63979,6.1472 29.66692,-34.47777 31.27054,37.95227 -29.13238,-10.15624 26.72695,26.19241 -26.72695,-6.41446 27.26149,25.3906 -31.27054,-9.08716 36.34866,27.79603 -36.34866,-14.16529 -0.26727,66.55011 z"
           style="fill:#00ff00;stroke:none;stroke-width:0.26458332px;stroke-linecap:butt;stroke-linejoin:miter;stroke-opacity:1" />
      </g>
      <g
         transform="matrix(0.28108778,0,0,0.28108778,117.19868,214.27396)"
         id="g838"
         style="stroke:none">
        <path
           style="fill:#00ff00;stroke:none;stroke-width:0.26458332px;stroke-linecap:butt;stroke-linejoin:miter;stroke-opacity:1"
           d="m 47.573975,299.13814 v -66.28285 l -33.40869,20.04522 29.934187,-31.80508 -32.339613,13.63075 31.537804,-29.66692 -32.874152,14.43256 33.14142,-35.54685 -17.639786,6.1472 29.666916,-34.47777 31.270535,37.95227 -29.132378,-10.15624 26.726951,26.19241 -26.726951,-6.41446 27.261491,25.3906 -31.270535,-9.08716 36.348657,27.79603 -36.348657,-14.16529 -0.267269,66.55011 z"
           id="path832"
           inkscape:connector-curvature="0" />
        <path
           inkscape:connector-curvature="0"
           id="path834"
           d="m 132.56568,301.00903 v -66.28285 l -33.408685,20.04522 29.934185,-31.80508 -32.339611,13.63075 31.537801,-29.66692 -32.874149,14.43256 33.141419,-35.54685 -17.63979,6.1472 29.66692,-34.47777 31.27054,37.95227 -29.13238,-10.15624 26.72695,26.19241 -26.72695,-6.41446 27.26149,25.3906 -31.27054,-9.08716 36.34866,27.79603 -36.34866,-14.16529 -0.26727,66.55011 z"
           style="fill:#00ff00;stroke:none;stroke-width:0.26458332px;stroke-linecap:butt;stroke-linejoin:miter;stroke-opacity:1" />
        <path
           style="fill:#00ff00;stroke:none;stroke-width:0.26458332px;stroke-linecap:butt;stroke-linejoin:miter;stroke-opacity:1"
           d="m 212.74653,300.20721 v -66.28285 l -33.40868,20.04522 29.93418,-31.80508 -32.33961,13.63075 31.5378,-29.66692 -32.87414,14.43256 33.14141,-35.54685 -17.63979,6.1472 29.66692,-34.47777 31.27054,37.95227 -29.13238,-10.15624 26.72695,26.19241 -26.72695,-6.41446 27.26149,25.3906 -31.27054,-9.08716 36.34866,27.79603 -36.34866,-14.16529 -0.26727,66.55011 z"
           id="path836"
           inkscape:connector-curvature="0" />
      </g>
      <g
         id="g847"
         transform="matrix(0.28108778,0,0,0.28108778,132.57468,212.99681)"
         style="stroke:none">
        <path
           inkscape:connector-curvature="0"
           id="path840"
           d="m 47.573975,299.13814 v -66.28285 l -33.40869,20.04522 29.934187,-31.80508 -32.339613,13.63075 31.537804,-29.66692 -32.874152,14.43256 33.14142,-35.54685 -17.639786,6.1472 29.666916,-34.47777 31.270535,37.95227 -29.132378,-10.15624 26.726951,26.19241 -26.726951,-6.41446 27.261491,25.3906 -31.270535,-9.08716 36.348657,27.79603 -36.348657,-14.16529 -0.267269,66.55011 z"
           style="fill:#00ff00;stroke:none;stroke-width:0.26458332px;stroke-linecap:butt;stroke-linejoin:miter;stroke-opacity:1" />
        <path
           style="fill:#00ff00;stroke:none;stroke-width:0.26458332px;stroke-linecap:butt;stroke-linejoin:miter;stroke-opacity:1"
           d="m 132.56568,301.00903 v -66.28285 l -33.408685,20.04522 29.934185,-31.80508 -32.339611,13.63075 31.537801,-29.66692 -32.874149,14.43256 33.141419,-35.54685 -17.63979,6.1472 29.66692,-34.47777 31.27054,37.95227 -29.13238,-10.15624 26.72695,26.19241 -26.72695,-6.41446 27.26149,25.3906 -31.27054,-9.08716 36.34866,27.79603 -36.34866,-14.16529 -0.26727,66.55011 z"
           id="path843"
           inkscape:connector-curvature="0" />
        <path
           inkscape:connector-curvature="0"
           id="path845"
           d="m 212.74653,300.20721 v -66.28285 l -33.40868,20.04522 29.93418,-31.80508 -32.33961,13.63075 31.5378,-29.66692 -32.87414,14.43256 33.14141,-35.54685 -17.63979,6.1472 29.66692,-34.47777 31.27054,37.95227 -29.13238,-10.15624 26.72695,26.19241 -26.72695,-6.41446 27.26149,25.3906 -31.27054,-9.08716 36.34866,27.79603 -36.34866,-14.16529 -0.26727,66.55011 z"
           style="fill:#00ff00;stroke:none;stroke-width:0.26458332px;stroke-linecap:butt;stroke-linejoin:miter;stroke-opacity:1" />
      </g>
      <g
         transform="matrix(0.28108778,0,0,0.28108778,70.072538,215.55111)"
         id="g855"
         style="stroke:none">
        <path
           style="fill:#00ff00;stroke:none;stroke-width:0.26458332px;stroke-linecap:butt;stroke-linejoin:miter;stroke-opacity:1"
           d="m 47.573975,299.13814 v -66.28285 l -33.40869,20.04522 29.934187,-31.80508 -32.339613,13.63075 31.537804,-29.66692 -32.874152,14.43256 33.14142,-35.54685 -17.639786,6.1472 29.666916,-34.47777 31.270535,37.95227 -29.132378,-10.15624 26.726951,26.19241 -26.726951,-6.41446 27.261491,25.3906 -31.270535,-9.08716 36.348657,27.79603 -36.348657,-14.16529 -0.267269,66.55011 z"
           id="path849"
           inkscape:connector-curvature="0" />
        <path
           inkscape:connector-curvature="0"
           id="path851"
           d="m 132.56568,301.00903 v -66.28285 l -33.408685,20.04522 29.934185,-31.80508 -32.339611,13.63075 31.537801,-29.66692 -32.874149,14.43256 33.141419,-35.54685 -17.63979,6.1472 29.66692,-34.47777 31.27054,37.95227 -29.13238,-10.15624 26.72695,26.19241 -26.72695,-6.41446 27.26149,25.3906 -31.27054,-9.08716 36.34866,27.79603 -36.34866,-14.16529 -0.26727,66.55011 z"
           style="fill:#00ff00;stroke:none;stroke-width:0.26458332px;stroke-linecap:butt;stroke-linejoin:miter;stroke-opacity:1" />
        <path
           style="fill:#00ff00;stroke:none;stroke-width:0.26458332px;stroke-linecap:butt;stroke-linejoin:miter;stroke-opacity:1"
           d="m 212.74653,300.20721 v -66.28285 l -33.40868,20.04522 29.93418,-31.80508 -32.33961,13.63075 31.5378,-29.66692 -32.87414,14.43256 33.14141,-35.54685 -17.63979,6.1472 29.66692,-34.47777 31.27054,37.95227 -29.13238,-10.15624 26.72695,26.19241 -26.72695,-6.41446 27.26149,25.3906 -31.27054,-9.08716 36.34866,27.79603 -36.34866,-14.16529 -0.26727,66.55011 z"
           id="path853"
           inkscape:connector-curvature="0" />
      </g>
      <g
         id="g863"
         transform="matrix(0.28108778,0,0,0.28108778,11.335001,215.55111)"
         style="stroke:none">
        <path
           inkscape:connector-curvature="0"
           id="path857"
           d="m 47.573975,299.13814 v -66.28285 l -33.40869,20.04522 29.934187,-31.80508 -32.339613,13.63075 31.537804,-29.66692 -32.874152,14.43256 33.14142,-35.54685 -17.639786,6.1472 29.666916,-34.47777 31.270535,37.95227 -29.132378,-10.15624 26.726951,26.19241 -26.726951,-6.41446 27.261491,25.3906 -31.270535,-9.08716 36.348657,27.79603 -36.348657,-14.16529 -0.267269,66.55011 z"
           style="fill:#00ff00;stroke:none;stroke-width:0.26458332px;stroke-linecap:butt;stroke-linejoin:miter;stroke-opacity:1" />
        <path
           style="fill:#00ff00;stroke:none;stroke-width:0.26458332px;stroke-linecap:butt;stroke-linejoin:miter;stroke-opacity:1"
           d="m 132.56568,301.00903 v -66.28285 l -33.408685,20.04522 29.934185,-31.80508 -32.339611,13.63075 31.537801,-29.66692 -32.874149,14.43256 33.141419,-35.54685 -17.63979,6.1472 29.66692,-34.47777 31.27054,37.95227 -29.13238,-10.15624 26.72695,26.19241 -26.72695,-6.41446 27.26149,25.3906 -31.27054,-9.08716 36.34866,27.79603 -36.34866,-14.16529 -0.26727,66.55011 z"
           id="path859"
           inkscape:connector-curvature="0" />
        <path
           inkscape:connector-curvature="0"
           id="path861"
           d="m 212.74653,300.20721 v -66.28285 l -33.40868,20.04522 29.93418,-31.80508 -32.33961,13.63075 31.5378,-29.66692 -32.87414,14.43256 33.14141,-35.54685 -17.63979,6.1472 29.66692,-34.47777 31.27054,37.95227 -29.13238,-10.15624 26.72695,26.19241 -26.72695,-6.41446 27.26149,25.3906 -31.27054,-9.08716 36.34866,27.79603 -36.34866,-14.16529 -0.26727,66.55011 z"
           style="fill:#00ff00;stroke:none;stroke-width:0.26458332px;stroke-linecap:butt;stroke-linejoin:miter;stroke-opacity:1" />
      </g>
      <g
         transform="matrix(0.28108778,0,0,0.28108778,200.33851,213.83634)"
         id="g871"
         style="stroke:none">
        <path
           style="fill:#00ff00;stroke:none;stroke-width:0.26458332px;stroke-linecap:butt;stroke-linejoin:miter;stroke-opacity:1"
           d="m 47.573975,299.13814 v -66.28285 l -33.40869,20.04522 29.934187,-31.80508 -32.339613,13.63075 31.537804,-29.66692 -32.874152,14.43256 33.14142,-35.54685 -17.639786,6.1472 29.666916,-34.47777 31.270535,37.95227 -29.132378,-10.15624 26.726951,26.19241 -26.726951,-6.41446 27.261491,25.3906 -31.270535,-9.08716 36.348657,27.79603 -36.348657,-14.16529 -0.267269,66.55011 z"
           id="path865"
           inkscape:connector-curvature="0" />
        <path
           inkscape:connector-curvature="0"
           id="path867"
           d="m 132.56568,301.00903 v -66.28285 l -33.408685,20.04522 29.934185,-31.80508 -32.339611,13.63075 31.537801,-29.66692 -32.874149,14.43256 33.141419,-35.54685 -17.63979,6.1472 29.66692,-34.47777 31.27054,37.95227 -29.13238,-10.15624 26.72695,26.19241 -26.72695,-6.41446 27.26149,25.3906 -31.27054,-9.08716 36.34866,27.79603 -36.34866,-14.16529 -0.26727,66.55011 z"
           style="fill:#00ff00;stroke:none;stroke-width:0.26458332px;stroke-linecap:butt;stroke-linejoin:miter;stroke-opacity:1" />
        <path
           style="fill:#00ff00;stroke:none;stroke-width:0.26458332px;stroke-linecap:butt;stroke-linejoin:miter;stroke-opacity:1"
           d="m 212.74653,300.20721 v -66.28285 l -33.40868,20.04522 29.93418,-31.80508 -32.33961,13.63075 31.5378,-29.66692 -32.87414,14.43256 33.14141,-35.54685 -17.63979,6.1472 29.66692,-34.47777 31.27054,37.95227 -29.13238,-10.15624 26.72695,26.19241 -26.72695,-6.41446 27.26149,25.3906 -31.27054,-9.08716 36.34866,27.79603 -36.34866,-14.16529 -0.26727,66.55011 z"
           id="path869"
           inkscape:connector-curvature="0" />
      </g>
      <g
         id="g879"
         transform="matrix(0.28108778,0,0,0.28108778,187.94269,215.41399)"
         style="stroke:none">
        <path
           inkscape:connector-curvature="0"
           id="path873"
           d="m 47.573975,299.13814 v -66.28285 l -33.40869,20.04522 29.934187,-31.80508 -32.339613,13.63075 31.537804,-29.66692 -32.874152,14.43256 33.14142,-35.54685 -17.639786,6.1472 29.666916,-34.47777 31.270535,37.95227 -29.132378,-10.15624 26.726951,26.19241 -26.726951,-6.41446 27.261491,25.3906 -31.270535,-9.08716 36.348657,27.79603 -36.348657,-14.16529 -0.267269,66.55011 z"
           style="fill:#00ff00;stroke:none;stroke-width:0.26458332px;stroke-linecap:butt;stroke-linejoin:miter;stroke-opacity:1" />
        <path
           style="fill:#00ff00;stroke:none;stroke-width:0.26458332px;stroke-linecap:butt;stroke-linejoin:miter;stroke-opacity:1"
           d="m 132.56568,301.00903 v -66.28285 l -33.408685,20.04522 29.934185,-31.80508 -32.339611,13.63075 31.537801,-29.66692 -32.874149,14.43256 33.141419,-35.54685 -17.63979,6.1472 29.66692,-34.47777 31.27054,37.95227 -29.13238,-10.15624 26.72695,26.19241 -26.72695,-6.41446 27.26149,25.3906 -31.27054,-9.08716 36.34866,27.79603 -36.34866,-14.16529 -0.26727,66.55011 z"
           id="path875"
           inkscape:connector-curvature="0" />
        <path
           inkscape:connector-curvature="0"
           id="path877"
           d="m 212.74653,300.20721 v -66.28285 l -33.40868,20.04522 29.93418,-31.80508 -32.33961,13.63075 31.5378,-29.66692 -32.87414,14.43256 33.14141,-35.54685 -17.63979,6.1472 29.66692,-34.47777 31.27054,37.95227 -29.13238,-10.15624 26.72695,26.19241 -26.72695,-6.41446 27.26149,25.3906 -31.27054,-9.08716 36.34866,27.79603 -36.34866,-14.16529 -0.26727,66.55011 z"
           style="fill:#00ff00;stroke:none;stroke-width:0.26458332px;stroke-linecap:butt;stroke-linejoin:miter;stroke-opacity:1" />
      </g>
    </g>
  </g>
</svg>
