<?xml version="1.0" encoding="UTF-8" standalone="no"?>
<!-- Created with Inkscape (http://www.inkscape.org/) -->

<svg
   xmlns:dc="http://purl.org/dc/elements/1.1/"
   xmlns:cc="http://creativecommons.org/ns#"
   xmlns:rdf="http://www.w3.org/1999/02/22-rdf-syntax-ns#"
   xmlns:svg="http://www.w3.org/2000/svg"
   xmlns="http://www.w3.org/2000/svg"
   xmlns:sodipodi="http://sodipodi.sourceforge.net/DTD/sodipodi-0.dtd"
   xmlns:inkscape="http://www.inkscape.org/namespaces/inkscape"
   width="400"
   height="400"
   viewBox="0 0 105.83333 105.83333"
   version="1.1"
   id="svg8"
   inkscape:version="0.92.3 (2405546, 2018-03-11)"
   sodipodi:docname="bird.svg">
  <defs
     id="defs2" />
  <sodipodi:namedview
     id="base"
     pagecolor="#ffffff"
     bordercolor="#666666"
     borderopacity="1.0"
     inkscape:pageopacity="0.0"
     inkscape:pageshadow="2"
     inkscape:zoom="2.8"
     inkscape:cx="132.32583"
     inkscape:cy="260.36491"
     inkscape:document-units="mm"
     inkscape:current-layer="layer1"
     showgrid="false"
     units="px"
     width="400mm"
     inkscape:measure-start="0,0"
     inkscape:measure-end="0,0"
     inkscape:window-width="1853"
     inkscape:window-height="1025"
     inkscape:window-x="67"
     inkscape:window-y="27"
     inkscape:window-maximized="1" />
  <metadata
     id="metadata5">
    <rdf:RDF>
      <cc:Work
         rdf:about="">
        <dc:format>image/svg+xml</dc:format>
        <dc:type
           rdf:resource="http://purl.org/dc/dcmitype/StillImage" />
        <dc:title />
      </cc:Work>
    </rdf:RDF>
  </metadata>
  <g
     inkscape:label="Layer 1"
     inkscape:groupmode="layer"
     id="layer1"
     transform="translate(0,-191.16667)">
    <g
       id="g951"
       transform="translate(4.1577378,-2.2678571)">
      <g
         id="g890"
         transform="translate(1.6063988,-5.5751488)"
         inkscape:export-xdpi="100"
         inkscape:export-ydpi="100">
        <g
           id="g914"
           inkscape:export-xdpi="100"
           inkscape:export-ydpi="100">
          <path
             inkscape:transform-center-y="-7.2278459"
             inkscape:transform-center-x="-4.4382986"
             sodipodi:nodetypes="aaaaaaaa"
             inkscape:connector-curvature="0"
             id="path855"
             d="m 65.7235,226.29381 c 0.745516,-3.04243 1.089969,-6.31756 2.676679,-9.03604 0.674327,-1.15531 1.645699,-2.21341 2.750094,-2.82044 0.991532,-0.54502 2.447422,-1.32015 3.179332,-0.57243 0.898707,0.91812 0.235591,2.97228 -0.358669,4.32467 -1.33333,3.03448 -4.714621,4.5045 -6.619244,7.19209 -0.926825,1.30784 -0.965598,4.68542 -2.280907,4.26398 -0.937751,-0.30046 0.380823,-2.24226 0.652715,-3.35183 z"
             style="fill:#5fbcd3;fill-opacity:1;stroke:#000000;stroke-width:0;stroke-linecap:butt;stroke-linejoin:miter;stroke-miterlimit:4;stroke-dasharray:none;stroke-opacity:1" />
          <path
             style="fill:#5fbcd3;fill-opacity:1;stroke:#000000;stroke-width:0;stroke-linecap:butt;stroke-linejoin:miter;stroke-miterlimit:4;stroke-dasharray:none;stroke-opacity:1"
             d="m 65.927328,227.42484 c 1.976664,-2.05167 3.708259,-4.51749 6.270682,-5.83389 1.088992,-0.55945 2.392358,-0.87319 3.613322,-0.74601 1.0962,0.11415 2.694772,0.30219 3.000521,1.3202 0.375427,1.25004 -1.097333,2.54558 -2.20334,3.31 -2.481611,1.7152 -6.049724,1.01039 -8.873605,2.12323 -1.374155,0.54152 -2.886221,3.26213 -3.839417,2.18148 -0.679562,-0.77043 1.310946,-1.60676 2.031837,-2.35501 z"
             id="path853"
             inkscape:connector-curvature="0"
             sodipodi:nodetypes="aaaaaaaa"
             inkscape:transform-center-x="-6.8568061"
             inkscape:transform-center-y="-3.8445863" />
          <g
             id="g1334"
             transform="translate(-4.9136903,8.693452)"
             inkscape:export-xdpi="100"
             inkscape:export-ydpi="100">
            <g
               id="g1252"
               transform="rotate(-28.267271,15.509026,203.84397)"
               style="stroke:#000000;stroke-width:1;stroke-miterlimit:4;stroke-dasharray:none;stroke-opacity:1"
               inkscape:export-xdpi="100"
               inkscape:export-ydpi="100">
              <g
                 id="g1214"
                 transform="matrix(1.1564599,-0.01172878,-0.01172878,1.1719658,-16.268883,-34.071781)"
                 inkscape:export-xdpi="100"
                 inkscape:export-ydpi="100"
                 style="fill:#000000;stroke-width:0;stroke-miterlimit:4;stroke-dasharray:none">
                <path
                   sodipodi:nodetypes="cssscccscc"
                   inkscape:connector-curvature="0"
                   id="path1200"
                   transform="matrix(0.23303125,0.12530274,-0.12530274,0.23303125,12.319638,173.03671)"
                   d="m 105.82227,83.957031 c -8.392258,12.20597 -5.30489,29.816039 -2.52344,44.365239 2.15343,11.26419 7.83873,21.86202 14.48633,31.20703 7.06767,9.93554 15.82891,19.16969 26.29101,25.43164 11.44246,6.84873 24.91116,10.2396 38.10156,12.20117 14.82188,2.20421 30.26411,2.32408 44.94922,-0.6582 10.78648,-2.19042 21.79446,-5.81647 30.58985,-12.4336 7.13753,-7.46491 36.78837,-34.64886 39.12691,-42.54285 14.78321,-49.9025 -81.91964,-84.758223 -118.9941,-89.992304 -44.51105,-3.957085 -53.40264,5.852045 -72.02734,32.421875 z"
                   style="fill:#000000;stroke:#000000;stroke-width:0;stroke-linecap:butt;stroke-linejoin:miter;stroke-miterlimit:4;stroke-dasharray:none;stroke-opacity:1" />
                <g
                   transform="matrix(0.66901366,0,0,0.57463488,5.1307927,91.408366)"
                   style="fill:#000000;stroke:#000000;stroke-width:0;stroke-miterlimit:4;stroke-dasharray:none;stroke-opacity:1"
                   id="g1206">
                  <path
                     style="fill:#000000;stroke:#000000;stroke-width:0;stroke-linecap:butt;stroke-linejoin:miter;stroke-miterlimit:4;stroke-dasharray:none;stroke-opacity:1"
                     d="m 26.860586,210.67195 c -7.216277,-1.84551 -14.566188,3.62894 -21.7824651,7.08264 8.3852371,-0.44499 15.3976551,0.94044 21.6488301,3.34087 1.336695,-2.1158 1.645571,-7.59556 0.133635,-10.42351 z"
                     id="path1202"
                     inkscape:connector-curvature="0"
                     sodipodi:nodetypes="cccc" />
                  <path
                     style="fill:#000000;stroke:#000000;stroke-width:0;stroke-linecap:butt;stroke-linejoin:miter;stroke-miterlimit:4;stroke-dasharray:none;stroke-opacity:1"
                     d="m 10.603761,216.89711 c 2.781884,4.31251 6.142711,9.59026 12.782322,10.74645 1.861488,-2.1827 2.499207,-4.3654 3.340868,-6.5481 -5.00948,-3.69374 -10.582079,-5.45618 -16.12319,-4.19835 z"
                     id="path1204"
                     inkscape:connector-curvature="0"
                     sodipodi:nodetypes="cccc" />
                </g>
                <rect
                   ry="4.478898"
                   y="213.00841"
                   x="27.192539"
                   height="8.9577961"
                   width="9.2250662"
                   id="rect1208"
                   style="opacity:1;fill:#000000;fill-opacity:1;stroke:#000000;stroke-width:0;stroke-miterlimit:4;stroke-dasharray:none;stroke-opacity:1" />
                <rect
                   ry="2.1058152"
                   y="214.74992"
                   x="29.330694"
                   height="4.4746461"
                   width="4.2116303"
                   id="rect1210"
                   style="opacity:1;fill:#000000;fill-opacity:1;stroke:#000000;stroke-width:0;stroke-miterlimit:4;stroke-dasharray:none;stroke-opacity:1" />
                <rect
                   ry="0.66817379"
                   y="215.80824"
                   x="29.822039"
                   height="1.3363476"
                   width="1.6036172"
                   id="rect1212"
                   style="opacity:1;fill:#000000;fill-opacity:1;stroke:#000000;stroke-width:0;stroke-miterlimit:4;stroke-dasharray:none;stroke-opacity:1" />
              </g>
              <g
                 style="stroke-width:0;stroke-miterlimit:4;stroke-dasharray:none"
                 inkscape:export-ydpi="100"
                 inkscape:export-xdpi="100"
                 transform="translate(-12.465534,3.8065091)"
                 id="g974">
                <path
                   style="fill:#5fbcd3;stroke:#000000;stroke-width:0;stroke-linecap:butt;stroke-linejoin:miter;stroke-miterlimit:4;stroke-dasharray:none;stroke-opacity:1"
                   d="m 148.56836,33.972656 c -0.79425,0.07808 -1.80836,0.563567 -3.06445,1.539063 0,0 0.36856,17.720895 -6.26953,21.185547 0.19902,-8.595451 -2.15023,-24.788962 -7.66016,-20.892578 -4.90267,3.466905 -1.08689,11.876086 3.08203,21.230468 -6.18421,3.050142 -10.97311,-11.170918 -16.53711,-6.228515 -5.31455,4.720921 1.26068,10.570465 8.4668,13.693359 -8.29633,5.237187 -15.52063,11.83134 -20.76367,19.457031 -8.392258,12.20597 -5.30489,29.816039 -2.52344,44.365239 2.15343,11.26419 7.83873,21.86202 14.48633,31.20703 7.06767,9.93554 15.82891,19.16969 26.29101,25.43164 11.44246,6.84873 24.91116,10.2396 38.10156,12.20117 14.82188,2.20421 30.26411,2.32408 44.94922,-0.6582 10.78648,-2.19042 21.79446,-5.81647 30.58985,-12.4336 15.95309,-16.68483 48.36741,-34.96915 43.29699,-52.49394 C 289.4749,91.694714 207.68052,55.74661 177.84961,51.535156 c -10.31526,-1.049787 -21.36057,0.400356 -31.875,3.857422 4.72918,-10.059198 6.94841,-21.848015 2.59375,-21.419922 z"
                   transform="matrix(0.23303125,0.12530274,-0.12530274,0.23303125,12.319638,173.03671)"
                   id="path114"
                   inkscape:connector-curvature="0"
                   sodipodi:nodetypes="scccccccssscccsccs" />
                <g
                   id="g124"
                   style="fill:#48373e;stroke:#000000;stroke-width:0;stroke-miterlimit:4;stroke-dasharray:none;stroke-opacity:1"
                   transform="matrix(0.66901366,0,0,0.57463488,5.1307927,91.408366)">
                  <path
                     sodipodi:nodetypes="cccc"
                     inkscape:connector-curvature="0"
                     id="path118"
                     d="m 26.860586,210.67195 c -7.216277,-1.84551 -14.566188,3.62894 -21.7824651,7.08264 8.3852371,-0.44499 15.3976551,0.94044 21.6488301,3.34087 1.336695,-2.1158 1.645571,-7.59556 0.133635,-10.42351 z"
                     style="fill:#48373e;stroke:#000000;stroke-width:0;stroke-linecap:butt;stroke-linejoin:miter;stroke-miterlimit:4;stroke-dasharray:none;stroke-opacity:1" />
                  <path
                     sodipodi:nodetypes="cccc"
                     inkscape:connector-curvature="0"
                     id="path120"
                     d="m 10.603761,216.89711 c 2.781884,4.31251 6.142711,9.59026 12.782322,10.74645 1.861488,-2.1827 2.499207,-4.3654 3.340868,-6.5481 -5.00948,-3.69374 -10.582079,-5.45618 -16.12319,-4.19835 z"
                     style="fill:#48373e;stroke:#000000;stroke-width:0;stroke-linecap:butt;stroke-linejoin:miter;stroke-miterlimit:4;stroke-dasharray:none;stroke-opacity:1" />
                </g>
                <rect
                   style="opacity:1;fill:#f9f9f9;fill-opacity:1;stroke:#000000;stroke-width:0;stroke-miterlimit:4;stroke-dasharray:none;stroke-opacity:1"
                   id="rect937"
                   width="9.2250662"
                   height="8.9577961"
                   x="27.192539"
                   y="213.00841"
                   ry="4.478898" />
                <rect
                   style="opacity:1;fill:#000000;fill-opacity:1;stroke:#000000;stroke-width:0;stroke-miterlimit:4;stroke-dasharray:none;stroke-opacity:1"
                   id="rect939"
                   width="4.2116303"
                   height="4.4746461"
                   x="29.330694"
                   y="214.74992"
                   ry="2.1058152" />
                <rect
                   style="opacity:1;fill:#f9f9f9;fill-opacity:1;stroke:#000000;stroke-width:0;stroke-miterlimit:4;stroke-dasharray:none;stroke-opacity:1"
                   id="rect941"
                   width="1.6036172"
                   height="1.3363476"
                   x="29.822039"
                   y="215.80824"
                   ry="0.66817379" />
              </g>
            </g>
            <path
               style="fill:#0088aa;stroke:#000000;stroke-width:0;stroke-linecap:butt;stroke-linejoin:miter;stroke-miterlimit:4;stroke-dasharray:none;stroke-opacity:1"
               d="m 18.115397,227.42263 c 0,0 10.344951,5.57829 15.996952,6.92782 4.08206,0.97468 8.401107,1.25855 12.567712,0.75595 2.749743,-0.33169 5.28458,-1.66115 7.9375,-2.45684 3.072551,-0.92155 9.241566,-2.68363 9.241566,-2.68363 0,0 -3.13177,3.63999 -4.989337,5.14047 -1.386949,1.12033 -2.883919,2.16374 -4.535712,2.83482 -2.896194,1.17664 -6.045978,1.78845 -9.165921,1.98438 -3.944697,0.24772 -7.998767,0.001 -11.811756,-1.03944 -3.669726,-1.00162 -7.353535,-2.50758 -10.299853,-4.91368 -2.118261,-1.72988 -4.941151,-6.54985 -4.941151,-6.54985 z"
               id="path1262"
               inkscape:connector-curvature="0"
               sodipodi:nodetypes="caaacaaaaac" />
            <path
               style="fill:#aaeeff;stroke:#000000;stroke-width:0;stroke-linecap:butt;stroke-linejoin:miter;stroke-miterlimit:4;stroke-dasharray:none;stroke-opacity:1"
               d="m 15.402533,211.95536 c 0,0 9.86301,-4.23703 15.119044,-4.63021 2.98513,-0.2233 5.946523,0.73872 8.882437,1.32291 4.458044,0.88706 8.987712,1.67297 13.229172,3.3073 5.364822,2.06719 15.213537,8.12648 15.213537,8.12648 0,0 -4.768008,-6.2336 -7.843005,-8.59896 -3.405847,-2.61986 -7.528525,-4.1608 -11.433781,-5.95312 -3.391549,-1.55656 -6.707101,-3.58354 -10.394345,-4.15774 -3.506585,-0.54606 -7.185526,-0.13536 -10.619313,0.76098 -1.827974,0.47717 -3.552261,1.37036 -5.12992,2.40967 -1.840443,1.21243 -3.485793,2.7372 -4.944963,4.38887 -0.809836,0.91667 -2.078863,3.02382 -2.078863,3.02382 z"
               id="path1264"
               inkscape:connector-curvature="0"
               sodipodi:nodetypes="caaacaaaaaac" />
          </g>
        </g>
      </g>
      <g
         id="g926"
         transform="translate(-59.058779,15.213541)">
        <g
           inkscape:export-ydpi="100"
           inkscape:export-xdpi="100"
           id="g1279"
           transform="rotate(-28.267271,49.469264,185.45897)"
           style="stroke:#000000;stroke-width:1;stroke-miterlimit:4;stroke-dasharray:none;stroke-opacity:1">
          <g
             inkscape:export-ydpi="100"
             inkscape:export-xdpi="100"
             inkscape:transform-center-y="-0.71373031"
             inkscape:transform-center-x="-11.497311"
             transform="matrix(0.77822372,0.06639626,-0.07812926,0.78451006,76.022735,7.8190786)"
             id="g1260">
            <g
               id="g1234"
               transform="matrix(1.2196124,-0.03755689,-0.03755689,1.269264,1.2071552,-73.436642)"
               style="fill:#000000">
              <g
                 id="g1232"
                 inkscape:export-xdpi="100"
                 inkscape:export-ydpi="100"
                 transform="matrix(1.3852441,-0.06770154,0.2620427,1.2181787,-41.49963,-47.422137)"
                 inkscape:transform-center-x="-13.399501"
                 inkscape:transform-center-y="-0.52108364"
                 style="fill:#000000">
                <path
                   inkscape:export-ydpi="100"
                   inkscape:export-xdpi="100"
                   style="fill:#000000;stroke:#000000;stroke-width:0;stroke-linecap:butt;stroke-linejoin:miter;stroke-miterlimit:4;stroke-dasharray:none;stroke-opacity:1"
                   d="m 3.6256073,259.52481 c 1.6044971,-1.51534 3.9117264,-3.17372 5.9556429,-2.85521 3.3757198,0.52605 4.4025128,5.14625 7.2250758,7.3744 18.006116,0.37778 -0.854484,14.96468 -9.8459071,10.87633 -1.4888679,-0.89761 -2.3082421,-0.99528 -3.0339461,-2.02275 -1.6501934,-2.3364 -3.10971119,-5.39888 -2.6306775,-8.89278 0.2134628,-1.55693 1.0091038,-3.23266 2.3298151,-4.47998 z"
                   id="path1230"
                   inkscape:connector-curvature="0"
                   sodipodi:nodetypes="caccaaac"
                   inkscape:transform-center-x="-14.076389"
                   inkscape:transform-center-y="-3.2790831" />
              </g>
            </g>
            <g
               id="g1228"
               style="fill:#0066ff">
              <g
                 style="fill:#0066ff"
                 inkscape:transform-center-y="-0.52108364"
                 inkscape:transform-center-x="-13.399501"
                 transform="matrix(1.3852441,-0.06770154,0.2620427,1.2181787,-41.49963,-47.422137)"
                 inkscape:export-ydpi="100"
                 inkscape:export-xdpi="100"
                 id="g1123">
                <path
                   inkscape:transform-center-y="-3.2790831"
                   inkscape:transform-center-x="-14.076389"
                   sodipodi:nodetypes="caccaaac"
                   inkscape:connector-curvature="0"
                   id="path116"
                   d="m 3.6256073,259.52481 c 1.6044971,-1.51534 4.0695735,-3.0023 5.9556429,-2.85521 4.0295228,0.31424 5.7322728,5.53136 8.5548358,7.75951 18.006116,0.37778 -2.184244,14.57957 -11.1756671,10.49122 -1.4888679,-0.89761 -2.3082421,-0.99528 -3.0339461,-2.02275 -1.6501934,-2.3364 -3.10971119,-5.39888 -2.6306775,-8.89278 0.2134628,-1.55693 1.0091038,-3.23266 2.3298151,-4.47998 z"
                   style="fill:#0066ff;stroke:#000000;stroke-width:0;stroke-linecap:butt;stroke-linejoin:miter;stroke-miterlimit:4;stroke-dasharray:none;stroke-opacity:1"
                   inkscape:export-xdpi="100"
                   inkscape:export-ydpi="100" />
              </g>
            </g>
          </g>
          <path
             sodipodi:nodetypes="caacaaaaac"
             inkscape:connector-curvature="0"
             id="path1266"
             d="m 78.134014,223.23142 c 0,0 6.318574,-0.42325 9.197105,0.65382 2.536701,0.94917 3.988277,3.85371 6.4924,4.88576 3.169849,1.30643 10.189531,1.40203 10.189531,1.40203 0,0 0.0405,-1.71431 -0.48134,-2.2973 -1.78716,-1.99674 -5.306083,-1.18741 -7.638127,-2.50745 -2.253622,-1.27564 -3.775634,-3.56742 -5.87659,-5.08138 -1.202145,-0.86627 -2.355243,-2.06018 -3.822095,-2.26975 -1.654965,-0.23645 -3.450724,0.34657 -4.856827,1.25083 -1.42888,0.91891 -3.204057,3.96344 -3.204057,3.96344 z"
             style="fill:#5599ff;stroke:#000000;stroke-width:0;stroke-linecap:butt;stroke-linejoin:miter;stroke-miterlimit:4;stroke-dasharray:none;stroke-opacity:1" />
          <path
             sodipodi:nodetypes="caacaaac"
             inkscape:connector-curvature="0"
             id="path1268"
             d="m 77.073359,226.20161 c 0,0 4.507625,4.03204 7.062424,5.62143 1.526567,0.9497 3.134513,1.86269 4.878106,2.30113 3.074497,0.77311 9.497807,0.49364 9.497807,0.49364 0,0 -5.226853,1.94442 -7.966738,2.04624 -1.920255,0.0714 -3.886976,-0.31072 -5.674549,-1.01574 -1.441025,-0.56834 -2.840789,-1.39563 -3.901837,-2.52423 -1.813591,-1.92905 -3.895213,-6.92247 -3.895213,-6.92247 z"
             style="fill:#0055d4;stroke:#000000;stroke-width:0;stroke-linecap:butt;stroke-linejoin:miter;stroke-miterlimit:4;stroke-dasharray:none;stroke-opacity:1" />
        </g>
      </g>
    </g>
  </g>
</svg>
