<?xml version="1.0" encoding="UTF-8" standalone="no"?>
<!-- Created with Inkscape (http://www.inkscape.org/) -->

<svg
   xmlns:dc="http://purl.org/dc/elements/1.1/"
   xmlns:cc="http://creativecommons.org/ns#"
   xmlns:rdf="http://www.w3.org/1999/02/22-rdf-syntax-ns#"
   xmlns:svg="http://www.w3.org/2000/svg"
   xmlns="http://www.w3.org/2000/svg"
   xmlns:sodipodi="http://sodipodi.sourceforge.net/DTD/sodipodi-0.dtd"
   xmlns:inkscape="http://www.inkscape.org/namespaces/inkscape"
   width="400"
   height="400"
   viewBox="0 0 105.83333 105.83334"
   version="1.1"
   id="svg934"
   inkscape:version="0.92.3 (2405546, 2018-03-11)"
   sodipodi:docname="bee.svg">
  <defs
     id="defs928" />
  <sodipodi:namedview
     id="base"
     pagecolor="#ffffff"
     bordercolor="#666666"
     borderopacity="1.0"
     inkscape:pageopacity="0.0"
     inkscape:pageshadow="2"
     inkscape:zoom="1.979899"
     inkscape:cx="179.77272"
     inkscape:cy="193.27661"
     inkscape:document-units="mm"
     inkscape:current-layer="g860"
     showgrid="false"
     units="px"
     inkscape:window-width="1853"
     inkscape:window-height="1025"
     inkscape:window-x="67"
     inkscape:window-y="27"
     inkscape:window-maximized="1" />
  <metadata
     id="metadata931">
    <rdf:RDF>
      <cc:Work
         rdf:about="">
        <dc:format>image/svg+xml</dc:format>
        <dc:type
           rdf:resource="http://purl.org/dc/dcmitype/StillImage" />
        <dc:title />
      </cc:Work>
    </rdf:RDF>
  </metadata>
  <g
     inkscape:label="Layer 1"
     inkscape:groupmode="layer"
     id="layer1"
     transform="translate(0,-191.16665)">
    <g
       id="g1552"
       inkscape:export-xdpi="100"
       inkscape:export-ydpi="100"
       transform="translate(-6.5481034,21.782466)">
      <g
         id="g1586"
         inkscape:export-xdpi="100"
         inkscape:export-ydpi="100">
        <path
           sodipodi:nodetypes="aaaaaacasssa"
           inkscape:connector-curvature="0"
           id="path1492"
           d="m 20.311319,240.18096 c 2.143823,-6.36817 8.453754,-9.39797 13.674353,-11.34301 6.257262,-2.33126 13.063497,-0.52948 19.557505,0.20256 5.355251,0.60368 11.00708,0.60672 15.900411,3.44341 6.170725,3.5772 10.41631,11.06158 15.741408,16.40684 1.515369,1.52111 2.884745,3.35903 4.611121,4.45618 3.648183,2.31849 11.766303,4.25362 11.766303,4.25362 0,0 -7.158216,1.03087 -10.494268,2.63319 -4.933496,2.36957 -8.587748,8.35989 -13.674354,10.12768 -12.007821,4.17317 -19.824619,-2.10192 -32.155014,-4.27167 -5.049499,-0.88855 -16.546504,8.81343 -20.475348,4.67677 -6.274019,-6.60585 -7.660245,-21.05594 -4.452117,-30.58557 z"
           style="fill:#1c1c24;stroke:#000000;stroke-width:0;stroke-linecap:butt;stroke-linejoin:miter;stroke-miterlimit:4;stroke-dasharray:none;stroke-opacity:1" />
        <path
           style="fill:#ffcc00;stroke:#000000;stroke-width:0;stroke-linecap:butt;stroke-linejoin:miter;stroke-miterlimit:4;stroke-dasharray:none;stroke-opacity:1"
           d="m 24.187891,244.08061 c 1.801773,-4.2014 7.104945,-6.20031 11.49259,-7.48355 5.258906,-1.53805 10.979196,-0.34933 16.437075,0.13364 4.500813,0.39828 9.250884,0.40028 13.363476,2.27179 5.186177,2.36006 8.754373,7.29788 13.229843,10.82442 5.445855,6.2115 12.698472,7.22782 1.737256,11.35895 -4.14635,1.56332 -4.010326,1.64003 -8.285356,2.80633 -10.091955,2.75325 -16.661571,-3.29286 -27.024633,-4.72435 -4.243844,-0.58622 -13.906484,7.72078 -17.208476,4.99162 -5.27299,-4.35822 -6.438041,-13.89167 -3.741775,-20.17885 z"
           id="path1479"
           inkscape:connector-curvature="0"
           sodipodi:nodetypes="aaaaccsssa" />
        <g
           id="g1490"
           transform="translate(-7.8844513,1.7372517)">
          <path
             d="m 38.551768,239.93847 a 4.4099469,4.9444861 0 0 1 4.344596,5.00981 4.4099469,4.9444861 0 0 1 -4.462085,4.87827 4.4099469,4.9444861 0 0 1 -4.357174,-4.99606 4.4099469,4.9444861 0 0 1 4.449803,-4.89236 l -0.0401,4.94429 z"
             sodipodi:end="4.7214821"
             sodipodi:start="4.7271196"
             sodipodi:ry="4.9444861"
             sodipodi:rx="4.4099469"
             sodipodi:cy="244.88242"
             sodipodi:cx="38.486809"
             sodipodi:type="arc"
             id="path1481"
             style="opacity:1;fill:#e3dbdb;fill-opacity:1;stroke:#000000;stroke-width:0;stroke-miterlimit:4;stroke-dasharray:none;stroke-opacity:1" />
          <path
             d="m 38.524209,242.07639 a 2.5390604,2.80633 0 0 1 2.501435,2.84341 2.5390604,2.80633 0 0 1 -2.569079,2.76875 2.5390604,2.80633 0 0 1 -2.508677,-2.83561 2.5390604,2.80633 0 0 1 2.562008,-2.77674 l -0.02309,2.80622 z"
             sodipodi:end="4.7214821"
             sodipodi:start="4.7271196"
             sodipodi:ry="2.80633"
             sodipodi:rx="2.5390604"
             sodipodi:cy="244.88242"
             sodipodi:cx="38.486809"
             sodipodi:type="arc"
             id="path1483"
             style="opacity:1;fill:#241f1c;fill-opacity:1;stroke:#000000;stroke-width:0;stroke-miterlimit:4;stroke-dasharray:none;stroke-opacity:1" />
          <rect
             ry="0.53453922"
             y="243.28418"
             x="36.899307"
             height="1.0690784"
             width="1.6036174"
             id="rect1485"
             style="opacity:1;fill:#ffffff;fill-opacity:1;stroke:#000000;stroke-width:0;stroke-miterlimit:4;stroke-dasharray:none;stroke-opacity:1" />
        </g>
        <path
           style="fill:#1c1c24;stroke:#000000;stroke-width:0;stroke-linecap:butt;stroke-linejoin:miter;stroke-miterlimit:4;stroke-dasharray:none;stroke-opacity:1"
           d="m 35.814116,235.52799 c 7.02268,7.71593 7.849355,16.40614 5.746295,25.52424 l 5.87993,-0.13363 c -0.320429,-9.76984 -0.09214,-20.12986 -5.87993,-26.86059 z"
           id="path1494"
           inkscape:connector-curvature="0"
           sodipodi:nodetypes="ccccc" />
        <path
           sodipodi:nodetypes="ccccc"
           inkscape:connector-curvature="0"
           id="path1496"
           d="m 48.848546,234.92251 c 5.461412,8.88969 4.653803,17.58169 0.888047,26.148 l 5.801793,0.96469 c 1.506219,-9.65835 3.661545,-19.79426 -0.770253,-27.48584 z"
           style="fill:#1c1c24;stroke:#000000;stroke-width:0;stroke-linecap:butt;stroke-linejoin:miter;stroke-miterlimit:4;stroke-dasharray:none;stroke-opacity:1" />
        <path
           style="fill:#1c1c24;stroke:#000000;stroke-width:0;stroke-linecap:butt;stroke-linejoin:miter;stroke-miterlimit:4;stroke-dasharray:none;stroke-opacity:1"
           d="m 59.866116,234.0764 c 4.969648,10.27002 3.595385,19.95596 -0.770293,29.33 l 5.821153,1.41589 c 2.144372,-10.72757 4.977428,-21.95232 0.975214,-30.82121 z"
           id="path1498"
           inkscape:connector-curvature="0"
           sodipodi:nodetypes="ccccc" />
        <path
           sodipodi:nodetypes="ccccc"
           inkscape:connector-curvature="0"
           id="path1500"
           d="m 71.999793,242.5294 c 2.633386,9.11914 0.414095,16.87792 -4.08909,23.96528 l 4.348053,1.97047 c 2.94081,-8.50674 6.475148,-17.32588 4.425599,-25.16071 z"
           style="fill:#1c1c24;stroke:#000000;stroke-width:0;stroke-linecap:butt;stroke-linejoin:miter;stroke-miterlimit:4;stroke-dasharray:none;stroke-opacity:1" />
        <path
           style="fill:#000000;fill-opacity:0.39215686;stroke:#000000;stroke-width:0;stroke-linecap:butt;stroke-linejoin:miter;stroke-miterlimit:4;stroke-dasharray:none;stroke-opacity:1"
           d="m 36.081385,262.38858 c 1.022304,-2.5943 2.271791,-9.88897 2.271791,-9.88897 0,0 8.426348,1.69967 12.160763,1.60361 8.657113,2.25071 28.492706,-1.67012 36.081387,3.0736 -0.992847,3.57895 -16.067713,9.39765 -21.67835,7.64547 l -9.378591,-2.78709 c -3.412895,-0.58203 -7.367234,-1.32328 -8.098044,-1.1166 -6.100347,-0.39192 -8.372036,0.67532 -11.358956,1.46998 z"
           id="path1502"
           inkscape:connector-curvature="0"
           sodipodi:nodetypes="cccccccc" />
        <path
           style="fill:#ffffff;fill-opacity:0.39215686;stroke:#000000;stroke-width:0;stroke-linecap:butt;stroke-linejoin:miter;stroke-miterlimit:4;stroke-dasharray:none;stroke-opacity:1"
           d="m 33.275056,237.39888 c 7.359172,-1.88414 15.810611,-2.66503 23.519718,-1e-5 8.114633,-1.64572 24.862807,12.51183 29.800552,19.77795 -6.464163,-3.44337 -29.602576,-14.92706 -39.355771,-16.4798 -4.878658,-0.7767 -7.283469,3.67544 -11.226175,2.0515 0,0 0,0 -2.676924,-4.39388 -2.45066,-4.02249 0.581074,-0.1326 -0.0614,-0.95576 z"
           id="path1504"
           inkscape:connector-curvature="0"
           sodipodi:nodetypes="cccsssc" />
      </g>
    </g>
    <g
       id="g860"
       inkscape:export-xdpi="100"
       inkscape:export-ydpi="100"
       style="fill:#ffffff">
      <g
         inkscape:export-filename="/home/anshuman/wing.png"
         inkscape:export-ydpi="100"
         inkscape:export-xdpi="100"
         inkscape:transform-center-y="-26.358266"
         inkscape:transform-center-x="-35.890828"
         transform="matrix(1.4851487,0.26775413,-0.21639004,1.439907,43.419154,-89.470617)"
         id="g1537"
         style="fill:#ffffff;fill-opacity:0.78431373">
        <path
           inkscape:export-ydpi="100"
           inkscape:export-xdpi="100"
           inkscape:transform-center-y="-2.4614372"
           inkscape:transform-center-x="-23.622134"
           sodipodi:nodetypes="sassass"
           inkscape:connector-curvature="0"
           id="path1532"
           d="m 13.52017,228.31565 c 2.375413,-4.81073 5.63823,-10.33609 9.373437,-14.72333 3.13649,-3.68403 6.251376,-5.7784 10.755171,-9.51431 5.732483,-4.75511 14.187662,10.25504 9.277789,15.9844 -2.94495,3.43647 -9.654879,5.72748 -14.832887,7.70292 -3.944678,1.50492 -6.800723,2.2787 -12.21408,3.10253 -1.982351,0.30168 -3.301782,-0.64374 -2.35943,-2.55221 z"
           style="fill:#ffffff;fill-opacity:0.78431373;stroke:#000000;stroke-width:0;stroke-linecap:butt;stroke-linejoin:miter;stroke-miterlimit:4;stroke-dasharray:none;stroke-opacity:1" />
      </g>
      <path
         inkscape:export-ydpi="100"
         inkscape:export-xdpi="100"
         inkscape:transform-center-y="-3.063673"
         inkscape:transform-center-x="-6.0868434"
         sodipodi:nodetypes="caacc"
         inkscape:connector-curvature="0"
         id="path855"
         d="m 24.224674,240.50616 c 0,0 7.485508,-5.29592 12.292686,-6.43913 1.211539,-0.28812 2.133029,-0.0132 1.710614,0.47925 -1.640586,1.9128 -13.371452,5.98273 -13.371452,5.98273 z"
         style="fill:#999999;fill-opacity:0.78431373;stroke:#000000;stroke-width:0;stroke-linecap:butt;stroke-linejoin:miter;stroke-miterlimit:4;stroke-dasharray:none;stroke-opacity:1" />
    </g>
  </g>
</svg>
