<?xml version="1.0" encoding="UTF-8" standalone="no"?>
<!-- Created with Inkscape (http://www.inkscape.org/) -->

<svg
   xmlns:dc="http://purl.org/dc/elements/1.1/"
   xmlns:cc="http://creativecommons.org/ns#"
   xmlns:rdf="http://www.w3.org/1999/02/22-rdf-syntax-ns#"
   xmlns:svg="http://www.w3.org/2000/svg"
   xmlns="http://www.w3.org/2000/svg"
   xmlns:sodipodi="http://sodipodi.sourceforge.net/DTD/sodipodi-0.dtd"
   xmlns:inkscape="http://www.inkscape.org/namespaces/inkscape"
   width="200"
   height="200"
   viewBox="0 0 52.916665 52.916667"
   version="1.1"
   id="svg1589"
   inkscape:version="0.92.3 (2405546, 2018-03-11)"
   sodipodi:docname="owl.svg">
  <defs
     id="defs1583" />
  <sodipodi:namedview
     id="base"
     pagecolor="#ffffff"
     bordercolor="#666666"
     borderopacity="1.0"
     inkscape:pageopacity="0.0"
     inkscape:pageshadow="2"
     inkscape:zoom="3.959798"
     inkscape:cx="77.744795"
     inkscape:cy="98.899468"
     inkscape:document-units="mm"
     inkscape:current-layer="layer1"
     showgrid="false"
     units="px"
     inkscape:window-width="1920"
     inkscape:window-height="1018"
     inkscape:window-x="0"
     inkscape:window-y="34"
     inkscape:window-maximized="1" />
  <metadata
     id="metadata1586">
    <rdf:RDF>
      <cc:Work
         rdf:about="">
        <dc:format>image/svg+xml</dc:format>
        <dc:type
           rdf:resource="http://purl.org/dc/dcmitype/StillImage" />
        <dc:title></dc:title>
      </cc:Work>
    </rdf:RDF>
  </metadata>
  <g
     inkscape:label="Layer 1"
     inkscape:groupmode="layer"
     id="layer1"
     transform="translate(0,-244.08332)">
    <ellipse
       style="fill:#ffffff;fill-opacity:1;stroke:none;stroke-width:0.28145236"
       id="path2274"
       cx="23.118814"
       cy="260.21701"
       rx="11.492589"
       ry="10.523738" />
    <g
       id="g2176"
       transform="matrix(1.9090433,0,0,1.709486,-33.392401,-191.74014)">
      <g
         transform="translate(14.098467,5.6794775)"
         id="g2155" />
    </g>
    <g
       id="g2244"
       transform="matrix(0.81925386,0,0,1,2.1756738,0)">
      <path
         style="fill:#ffffff;stroke:none;stroke-width:0.29231644px;stroke-linecap:butt;stroke-linejoin:miter;stroke-opacity:1"
         d="m 13.656088,282.90152 c -3.647334,-4.94884 -3.9541868,-11.0352 1.141824,-15.03391 6.127185,-4.80785 15.603478,-4.60184 22.102443,-0.13364 4.677005,3.21556 5.459603,6.93507 2.60988,11.35896 -1.760351,2.73276 -3.703529,4.0885 -4.898808,7.01919 -1.105793,2.71128 1.799574,7.21291 1.799574,7.21291 0,0 -18.125017,-4.14149 -22.754913,-10.42351 z"
         id="path2276"
         inkscape:connector-curvature="0"
         sodipodi:nodetypes="ssssscs" />
      <path
         style="fill:#cccccc;stroke:none;stroke-width:0.26458332px;stroke-linecap:butt;stroke-linejoin:miter;stroke-opacity:1"
         d="m 31.184544,259.20872 c -0.556035,0.0131 -1.103716,0.0809 -1.619023,0.19844 -2.045611,0.46641 -4.493942,1.77517 -5.011063,3.80855 -0.481577,1.89362 0.796946,4.23554 2.405021,5.34541 0,0 -0.274372,2.65576 -0.200306,4.87754 0.05046,1.51369 0.714299,3.80655 1.537013,5.07814 1.285032,1.98614 7.349669,4.54349 7.349669,4.54349 0,0 -2.828947,-2.26185 -1.603604,-3.87553 0.696902,-0.91776 1.335254,-4.04476 1.624668,-5.1602 0.646184,-2.49046 0.639527,-2.97768 -0.956492,-4.99577 1.316528,-0.59221 2.420309,-1.9867 2.672706,-3.40806 0.302937,-1.70599 -0.311624,-3.78977 -1.603521,-4.9444 -1.182228,-1.05661 -2.926962,-1.50684 -4.595068,-1.46761 z"
         id="path2134"
         inkscape:connector-curvature="0"
         sodipodi:nodetypes="ccscscccccccc"
         transform="matrix(1.9090433,0,0,1.709486,-33.392401,-191.74015)" />
      <path
         inkscape:connector-curvature="0"
         id="path2142"
         d="m 35.768761,269.02884 c 1.409087,0.56224 2.436629,2.25875 2.547135,3.77184 0.11616,1.59044 -2.072869,4.3116 -2.072869,4.3116 l -2.74517,2.42718 2.266,-4.96214 -1.992754,2.32493 1.254168,-2.84152 -1.656086,0.0463 c 0,0 0.759529,-0.60277 0.832925,-1.0411 0.199956,-1.19413 -1.807323,-2.36119 -1.221417,-3.42073 0.460593,-0.83293 1.904032,-0.96911 2.788068,-0.61641 z"
         style="fill:#b3b3b3;stroke:none;stroke-width:0.16995437px;stroke-linecap:butt;stroke-linejoin:miter;stroke-opacity:1"
         sodipodi:nodetypes="ssccccccsss"
         inkscape:transform-center-x="-1.6999419"
         inkscape:transform-center-y="4.4946782"
         transform="matrix(1.9090433,0,0,1.709486,-33.392401,-191.74015)" />
      <path
         style="fill:#b3b3b3;stroke:none;stroke-width:0.18006411px;stroke-linecap:butt;stroke-linejoin:miter;stroke-opacity:1"
         d="m 27.144141,268.71349 c -1.565518,0.36436 -2.912125,1.97763 -3.268974,3.54489 -0.375092,1.64736 0.679367,3.36087 1.484172,4.8464 0.616442,1.13783 2.488631,2.97974 2.488631,2.97974 l -1.582805,-5.55859 1.716821,2.75275 -0.860884,-3.17615 1.727255,0.31244 c 0,0 -0.699509,-0.7524 -0.706542,-1.2232 -0.01917,-1.28265 2.269288,-2.18522 1.824422,-3.38838 -0.349721,-0.94583 -1.839928,-1.31847 -2.822096,-1.0899 z"
         id="path2140"
         inkscape:connector-curvature="0"
         sodipodi:nodetypes="ssscccccsss"
         inkscape:transform-center-x="2.2308146"
         inkscape:transform-center-y="4.843856"
         transform="matrix(1.9090433,0,0,1.709486,-33.392401,-191.74015)" />
      <ellipse
         ry="1.8040693"
         rx="1.9377041"
         cy="258.04544"
         cx="19.711126"
         id="path2145"
         style="fill:#f9f9f9;fill-opacity:1;stroke:none;stroke-width:0.26458332"
         transform="matrix(1.9090433,0,0,1.709486,-6.477817,-182.03115)" />
      <ellipse
         ry="0.63476509"
         rx="0.73499119"
         cy="258.76477"
         cx="19.69129"
         id="path2147"
         style="fill:#4d4d4d;fill-opacity:1;stroke:none;stroke-width:0.4690561"
         transform="matrix(1.9090433,0,0,1.709486,-6.477817,-182.03115)" />
      <g
         id="g2159"
         transform="matrix(1.9090433,0,0,1.709486,-4.181784,-177.348)">
        <ellipse
           style="fill:#f9f9f9;fill-opacity:1;stroke:none;stroke-width:0.26458332"
           id="ellipse2149"
           cx="13.363475"
           cy="255.5732"
           rx="1.9377041"
           ry="1.8040693" />
        <ellipse
           style="fill:#4d4d4d;fill-opacity:1;stroke:none;stroke-width:0.4690561"
           id="ellipse2151"
           cx="13.343638"
           cy="256.29254"
           rx="0.73499119"
           ry="0.63476509" />
      </g>
      <path
         style="fill:#ffcc00;stroke:none;stroke-width:0.26458332px;stroke-linecap:butt;stroke-linejoin:miter;stroke-opacity:1"
         d="m 30.162932,266.86754 c 1.140633,-1.08587 1.878592,-0.56104 2.678485,-0.28394 -0.608444,0.89786 -1.072212,1.72868 -1.219353,2.41281 z"
         id="path2161"
         inkscape:connector-curvature="0"
         sodipodi:nodetypes="cccc"
         transform="matrix(1.9090433,0,0,1.709486,-33.392401,-191.74015)" />
      <path
         sodipodi:nodetypes="cccccccccccc"
         inkscape:connector-curvature="0"
         id="path2180"
         d="m 23.620809,281.85159 0.213416,3.36158 c -1.120055,0.11294 -1.499112,0.87683 -2.340516,1.3613 l 2.054994,-0.50474 -0.57684,1.26184 1.081576,-1.18973 1.333944,1.29789 -0.721051,-1.47815 1.83868,0.61289 c -0.706491,-0.44464 -2.125192,-0.8893 -2.232359,-1.33394 l 0.357627,-3.46105 z"
         style="fill:#aa8800;stroke:none;stroke-width:0.14276077px;stroke-linecap:butt;stroke-linejoin:miter;stroke-opacity:1" />
      <path
         style="fill:#aa8800;stroke:none;stroke-width:0.14276077px;stroke-linecap:butt;stroke-linejoin:miter;stroke-opacity:1"
         d="m 28.383312,281.32242 0.213416,3.36158 c -1.120055,0.11294 -1.499112,0.87683 -2.340516,1.3613 l 2.054994,-0.50474 -0.57684,1.26184 1.081576,-1.18973 1.333944,1.29789 -0.721051,-1.47815 1.83868,0.61289 c -0.706491,-0.44464 -2.125192,-0.8893 -2.232359,-1.33394 l 0.357627,-3.46105 z"
         id="path2182"
         inkscape:connector-curvature="0"
         sodipodi:nodetypes="cccccccccccc" />
    </g>
  </g>
</svg>
