<?xml version="1.0" encoding="UTF-8" standalone="no"?>
<!-- Created with Inkscape (http://www.inkscape.org/) -->

<svg
   xmlns:dc="http://purl.org/dc/elements/1.1/"
   xmlns:cc="http://creativecommons.org/ns#"
   xmlns:rdf="http://www.w3.org/1999/02/22-rdf-syntax-ns#"
   xmlns:svg="http://www.w3.org/2000/svg"
   xmlns="http://www.w3.org/2000/svg"
   xmlns:sodipodi="http://sodipodi.sourceforge.net/DTD/sodipodi-0.dtd"
   xmlns:inkscape="http://www.inkscape.org/namespaces/inkscape"
   width="400"
   height="400"
   viewBox="0 0 105.83333 105.83334"
   version="1.1"
   id="svg1621"
   inkscape:version="0.92.3 (2405546, 2018-03-11)"
   sodipodi:docname="spider.svg">
  <defs
     id="defs1615" />
  <sodipodi:namedview
     id="base"
     pagecolor="#ffffff"
     bordercolor="#666666"
     borderopacity="1.0"
     inkscape:pageopacity="0.0"
     inkscape:pageshadow="2"
     inkscape:zoom="1.979899"
     inkscape:cx="90.713415"
     inkscape:cy="196.09681"
     inkscape:document-units="mm"
     inkscape:current-layer="g870"
     showgrid="false"
     units="px"
     inkscape:window-width="1853"
     inkscape:window-height="1025"
     inkscape:window-x="67"
     inkscape:window-y="27"
     inkscape:window-maximized="1" />
  <metadata
     id="metadata1618">
    <rdf:RDF>
      <cc:Work
         rdf:about="">
        <dc:format>image/svg+xml</dc:format>
        <dc:type
           rdf:resource="http://purl.org/dc/dcmitype/StillImage" />
        <dc:title />
      </cc:Work>
    </rdf:RDF>
  </metadata>
  <g
     inkscape:label="Layer 1"
     inkscape:groupmode="layer"
     id="layer1"
     transform="translate(0,-191.16665)">
    <g
       id="g1048"
       transform="matrix(2.4198949,0,0,2.3834326,-19.166797,-246.6474)"
       inkscape:export-xdpi="100"
       inkscape:export-ydpi="100">
      <g
         id="g870"
         transform="translate(15.352098,7.6813427)"
         inkscape:export-xdpi="100"
         inkscape:export-ydpi="100">
        <path
           style="fill:#000000;stroke:#000000;stroke-width:0.0981981px;stroke-linecap:butt;stroke-linejoin:miter;stroke-opacity:1"
           d="m 10.317816,191.00778 c -1.8610632,1.3244 -3.2189012,3.96609 -3.6528862,6.5712 -0.447005,2.68327 0.150795,5.71561 1.291874,8.06215 0.997297,2.05086 2.6926082,3.68022 4.4992872,4.52805 2.654798,1.24583 5.693742,0.89701 8.508554,0.44176 1.14102,-0.18454 2.333441,-0.95199 3.296508,-1.27006 1.971914,-0.65125 2.713293,-2.44331 3.385606,-4.25196 0.661079,-1.77842 0.545787,-3.90345 0.400928,-5.85333 -0.112984,-1.52077 -0.396856,-3.07234 -0.980047,-4.41761 -0.66255,-1.52833 -1.522533,-3.11443 -2.761936,-3.92063 -1.508669,-0.98135 -3.374954,-0.67702 -5.078406,-0.71787 -2.977612,-0.0714 -6.326674,-1.0097 -8.909482,0.8283 z"
           id="path2199"
           inkscape:connector-curvature="0"
           sodipodi:nodetypes="aaaaasaaaaaa"
           inkscape:export-xdpi="100"
           inkscape:export-ydpi="100" />
        <g
           transform="matrix(0.22824248,0,0,0.25680284,13.887645,133.47922)"
           id="g852">
          <path
             style="opacity:1;fill:#ffffff;fill-opacity:1;stroke:#000000;stroke-width:0;stroke-miterlimit:4;stroke-dasharray:none;stroke-opacity:1"
             id="path844"
             sodipodi:type="arc"
             sodipodi:cx="30.736"
             sodipodi:cy="239.93794"
             sodipodi:rx="9.6217022"
             sodipodi:ry="10.156241"
             sodipodi:start="4.7271196"
             sodipodi:end="4.7213425"
             d="m 30.877729,229.7828 a 9.6217022,10.156241 0 0 1 9.479124,10.29008 9.6217022,10.156241 0 0 1 -9.734791,10.02059 9.6217022,10.156241 0 0 1 -9.507244,-10.26113 9.6217022,10.156241 0 0 1 9.707329,-10.05023 L 30.736,239.93794 Z" />
          <g
             id="g850"
             transform="matrix(0.38754418,0,0,0.34717055,10.046145,153.41417)">
            <path
               d="m 53.67153,231.52087 a 19.310223,17.706606 0 0 1 19.024077,17.93995 19.310223,17.706606 0 0 1 -19.537224,17.4701 19.310223,17.706606 0 0 1 -19.080472,-17.88952 19.310223,17.706606 0 0 1 19.482145,-17.52174 l -0.172967,17.7059 z"
               sodipodi:end="4.7213464"
               sodipodi:start="4.7271196"
               sodipodi:ry="17.706606"
               sodipodi:rx="19.310223"
               sodipodi:cy="249.22556"
               sodipodi:cx="53.387089"
               sodipodi:type="arc"
               id="path846"
               style="opacity:1;fill:#000000;fill-opacity:1;stroke:#000000;stroke-width:0;stroke-miterlimit:4;stroke-dasharray:none;stroke-opacity:1" />
            <path
               d="m 61.938975,237.82912 a 4.2763124,4.6772165 0 0 1 4.212944,4.73885 4.2763124,4.6772165 0 0 1 -4.326574,4.61475 4.2763124,4.6772165 0 0 1 -4.225442,-4.72552 4.2763124,4.6772165 0 0 1 4.314369,-4.6284 l -0.03829,4.67703 z"
               sodipodi:end="4.7213425"
               sodipodi:start="4.7271196"
               sodipodi:ry="4.6772165"
               sodipodi:rx="4.2763124"
               sodipodi:cy="242.50583"
               sodipodi:cx="61.875984"
               sodipodi:type="arc"
               id="path848"
               style="opacity:1;fill:#ffffff;fill-opacity:1;stroke:#000000;stroke-width:0;stroke-miterlimit:4;stroke-dasharray:none;stroke-opacity:1" />
          </g>
        </g>
      </g>
    </g>
  </g>
</svg>
