<?xml version="1.0" encoding="UTF-8" standalone="no"?>
<!-- Created with Inkscape (http://www.inkscape.org/) -->

<svg
   xmlns:dc="http://purl.org/dc/elements/1.1/"
   xmlns:cc="http://creativecommons.org/ns#"
   xmlns:rdf="http://www.w3.org/1999/02/22-rdf-syntax-ns#"
   xmlns:svg="http://www.w3.org/2000/svg"
   xmlns="http://www.w3.org/2000/svg"
   xmlns:sodipodi="http://sodipodi.sourceforge.net/DTD/sodipodi-0.dtd"
   xmlns:inkscape="http://www.inkscape.org/namespaces/inkscape"
   width="210mm"
   height="297mm"
   viewBox="0 0 210 297"
   version="1.1"
   id="svg8"
   inkscape:version="0.92.3 (2405546, 2018-03-11)"
   sodipodi:docname="bgsvg.svg">
  <defs
     id="defs2" />
  <sodipodi:namedview
     id="base"
     pagecolor="#ffffff"
     bordercolor="#666666"
     borderopacity="1.0"
     inkscape:pageopacity="0.0"
     inkscape:pageshadow="2"
     inkscape:zoom="0.7"
     inkscape:cx="419.05489"
     inkscape:cy="618.45808"
     inkscape:document-units="mm"
     inkscape:current-layer="layer1"
     showgrid="false"
     inkscape:window-width="723"
     inkscape:window-height="417"
     inkscape:window-x="45"
     inkscape:window-y="198"
     inkscape:window-maximized="0" />
  <metadata
     id="metadata5">
    <rdf:RDF>
      <cc:Work
         rdf:about="">
        <dc:format>image/svg+xml</dc:format>
        <dc:type
           rdf:resource="http://purl.org/dc/dcmitype/StillImage" />
        <dc:title></dc:title>
      </cc:Work>
    </rdf:RDF>
  </metadata>
  <g
     inkscape:label="Layer 1"
     inkscape:groupmode="layer"
     id="layer1">
    <rect
       style="opacity:1;fill:#666666;fill-opacity:1;stroke:none;stroke-width:0.12586884;stroke-miterlimit:4;stroke-dasharray:none;stroke-opacity:1"
       id="rect815"
       width="102.4"
       height="60"
       x="46.869049"
       y="92.613098"
       ry="0.061141267"
       inkscape:export-xdpi="254.00005"
       inkscape:export-ydpi="254.00005" />
    <path
       style="fill:#707070;stroke:none;stroke-width:0.26458332px;stroke-linecap:butt;stroke-linejoin:miter;stroke-opacity:1;fill-opacity:1"
       d="m 46.869045,130.3125 c 0,0 5.165646,-11.64944 10.583336,-12.85119 5.996913,-1.33023 16.630951,7.9375 16.630951,7.9375 0,0 4.229607,-19.58888 12.095239,-20.41072 6.296745,-0.65792 6.566162,14.74689 12.851189,13.98512 4.24658,-0.5147 1.97444,-10.43781 6.17428,-11.25004 3.46564,-0.67024 4.67667,6.3611 8.18881,6.71433 3.90073,0.39232 7.23547,-2.98334 11.15364,-2.85092 11.62104,0.39276 29.66779,18.34794 29.66779,18.34794 z"
       id="path4530"
       inkscape:connector-curvature="0"
       sodipodi:nodetypes="cscscscscc" />
    <path
       sodipodi:nodetypes="cscscscc"
       inkscape:connector-curvature="0"
       id="path4536"
       d="m 86.212492,124.86964 c 0,0 -2.46897,-3.1081 -4.051208,-3.27243 -0.514713,-0.0535 -1.429841,0.77914 -1.429841,0.77914 0,0 -1.015695,-2.86407 -2.025601,-2.96076 -0.618756,-0.0593 -1.42984,1.55829 -1.42984,1.55829 0,0 -2.402779,-2.96572 -3.675402,-2.33214 -1.765619,0.87904 -2.163103,6.2279 -2.163103,6.2279 z"
       style="fill:#4c4c4c;fill-opacity:1;stroke:none;stroke-width:0.09538425px;stroke-linecap:butt;stroke-linejoin:miter;stroke-opacity:1" />
    <path
       style="fill:#000000;stroke:none;stroke-width:0.26458332px;stroke-linecap:butt;stroke-linejoin:miter;stroke-opacity:1"
       d="m 46.869047,132.95835 c 7.440984,-6.32941 14.722497,-12.02094 21.166667,-14.36309 7.847727,7.19888 16.976204,10.55551 26.836309,11.71726 9.333947,-3.95825 16.226957,-8.2652 18.520827,-13.22917 7.17451,4.73449 14.02681,9.34009 16.25298,12.09524 z"
       id="path4522"
       inkscape:connector-curvature="0"
       sodipodi:nodetypes="cccccc" />
    <path
       style="fill:#4c4c4c;stroke:none;stroke-width:0.11646265px;stroke-linecap:butt;stroke-linejoin:miter;stroke-opacity:1;fill-opacity:1"
       d="m 51.782737,105.36607 c 0,0 4.231828,-2.70335 6.943789,-2.84629 0.882215,-0.0465 2.450749,0.67769 2.450749,0.67769 0,0 1.74091,-2.49111 3.471892,-2.57521 1.060551,-0.0515 2.450752,1.35537 2.450752,1.35537 0,0 4.118376,-2.579519 6.299656,-2.028439 3.02628,0.764569 3.70757,5.416879 3.70757,5.416879 z"
       id="path4526"
       inkscape:connector-curvature="0"
       sodipodi:nodetypes="cscscscc" />
    <path
       style="opacity:1;fill:#b49000;fill-opacity:1;stroke:none;stroke-width:0.26499999;stroke-miterlimit:4;stroke-dasharray:none;stroke-opacity:1"
       id="path4524"
       sodipodi:type="arc"
       sodipodi:cx="122.46429"
       sodipodi:cy="105.55505"
       sodipodi:rx="7.1815472"
       sodipodi:ry="6.9925594"
       sodipodi:start="4.7059662"
       sodipodi:end="4.6516166"
       sodipodi:open="true"
       d="m 122.41816,98.562639 a 7.1815472,6.9925594 0 0 1 7.22624,6.852501 7.1815472,6.9925594 0 0 1 -6.93888,7.12853 7.1815472,6.9925594 0 0 1 -7.41479,-6.65879 7.1815472,6.9925594 0 0 1 6.73739,-7.309477" />
    <path
       style="fill:#444444;stroke:none;stroke-width:0.15263048px;stroke-linecap:butt;stroke-linejoin:miter;stroke-opacity:1;fill-opacity:1"
       d="m 94.544145,109.46257 c 0,0 1.382527,-1.84993 2.733313,-1.91334 1.291401,-0.0606 3.006622,1.56546 3.006622,1.56546 0,0 0.13152,-4.06052 2.45997,-4.17456 1.66764,-0.0817 2.45999,2.78304 2.45999,2.78304 0,0 1.55933,-2.40533 3.27996,-2.6091 1.24439,-0.14736 3.27998,1.21758 3.27998,1.21758 0,0 3.06306,-4.34178 5.69787,-3.82075 1.7587,0.34779 0.86208,3.47287 0.86208,3.47287 0,0 2.48868,-0.89516 3.5533,-0.52182 1.69085,0.59295 1.91331,3.4788 1.91331,3.4788 z"
       id="path4528"
       inkscape:connector-curvature="0"
       sodipodi:nodetypes="cscscscscscc" />
    <path
       style="fill:#000000;stroke:none;stroke-width:0.13981187px;stroke-linecap:butt;stroke-linejoin:miter;stroke-opacity:1"
       d="m 139.54889,131.33305 0.51172,-4.83338 1.02345,-1.24732 1.79102,2.33873 1.53517,-2.96239 1.53516,1.24732 0.25586,-5.76886 2.04689,-0.93549 1.2793,3.27422 v 3.27422 l 1.02345,-0.62367 -0.25587,3.58606 5.8848,2.96238 v 0 z"
       id="path4532"
       inkscape:connector-curvature="0" />
    <path
       style="fill:#7d7d7d;stroke:none;stroke-width:0.26458332px;stroke-linecap:butt;stroke-linejoin:miter;stroke-opacity:1;fill-opacity:1"
       d="m 44.979166,144.29762 c 0,0 0,-6.4256 13.229167,-4.91369 13.229166,1.5119 18.898809,4.91369 28.348214,1.88988 9.449403,-3.02381 45.735113,-3.40179 45.735113,-3.40179 0,0 -16.25297,10.58333 -42.333328,11.33929 -26.080357,0.75595 -44.979166,-4.91369 -44.979166,-4.91369 z"
       id="path4534"
       inkscape:connector-curvature="0" />
    <path
       style="fill:#000000;stroke:none;stroke-width:0.02894652px;stroke-linecap:butt;stroke-linejoin:miter;stroke-opacity:1"
       d="m 128.61324,131.21923 0.0314,-3.64795 -1.19346,0.98005 1.09924,-1.90564 -1.22487,0.76225 1.3505,-1.7423 -1.31909,0.27224 0.65954,-1.14339 0.72236,-1.36118 1.47613,3.37572 -1.31909,-1.0345 0.81658,1.74231 -0.84799,-0.98005 1.00502,2.23232 -1.00502,-1.19783 0.0314,3.7024 z"
       id="path4538"
       inkscape:connector-curvature="0"
       sodipodi:nodetypes="ccccccccccccccccc" />
    <path
       sodipodi:nodetypes="ccccccccccccccccc"
       inkscape:connector-curvature="0"
       id="path4540"
       d="m 137.60913,131.21923 0.0314,-3.64795 -1.19346,0.98005 1.09924,-1.90564 -1.22487,0.76225 1.3505,-1.7423 -1.31909,0.27224 0.65954,-1.14339 0.72236,-1.36118 1.47613,3.37572 -1.31909,-1.0345 0.81658,1.74231 -0.84799,-0.98005 1.00502,2.23232 -1.00502,-1.19783 0.0314,3.7024 z"
       style="fill:#000000;stroke:none;stroke-width:0.02894652px;stroke-linecap:butt;stroke-linejoin:miter;stroke-opacity:1" />
    <path
       style="fill:#000000;stroke:none;stroke-width:0.02894652px;stroke-linecap:butt;stroke-linejoin:miter;stroke-opacity:1"
       d="m 133.90494,129.10255 0.0314,-3.64795 -1.19346,0.98005 1.09924,-1.90564 -1.22487,0.76225 1.3505,-1.7423 -1.31909,0.27224 0.65954,-1.14339 0.72236,-1.36118 1.47613,3.37572 -1.31909,-1.0345 0.81658,1.74231 -0.84799,-0.98005 1.00502,2.23232 -1.00502,-1.19783 0.0314,3.7024 z"
       id="path4542"
       inkscape:connector-curvature="0"
       sodipodi:nodetypes="ccccccccccccccccc" />
    <path
       sodipodi:nodetypes="ccccccccccccccccc"
       inkscape:connector-curvature="0"
       id="path4544"
       d="m 135.49245,130.69006 0.0314,-3.64795 -1.19346,0.98005 1.09924,-1.90564 -1.22487,0.76225 1.3505,-1.7423 -1.31909,0.27224 0.65954,-1.14339 0.72236,-1.36118 1.47613,3.37572 -1.31909,-1.0345 0.81658,1.74231 -0.84799,-0.98005 1.00502,2.23232 -1.00502,-1.19783 0.0314,3.7024 z"
       style="fill:#000000;stroke:none;stroke-width:0.02894652px;stroke-linecap:butt;stroke-linejoin:miter;stroke-opacity:1" />
    <path
       sodipodi:nodetypes="ccccccccccccccccc"
       inkscape:connector-curvature="0"
       id="path4546"
       d="m 131.78826,131.21923 0.0314,-3.64795 -1.19346,0.98005 1.09924,-1.90564 -1.22487,0.76225 1.3505,-1.7423 -1.31909,0.27224 0.65954,-1.14339 0.72236,-1.36118 1.47613,3.37572 -1.31909,-1.0345 0.81658,1.74231 -0.84799,-0.98005 1.00502,2.23232 -1.00502,-1.19783 0.0314,3.7024 z"
       style="fill:#000000;stroke:none;stroke-width:0.02894652px;stroke-linecap:butt;stroke-linejoin:miter;stroke-opacity:1" />
  </g>
</svg>
