<?xml version="1.0" encoding="UTF-8" standalone="no"?>
<!-- Created with Inkscape (http://www.inkscape.org/) -->

<svg
   xmlns:dc="http://purl.org/dc/elements/1.1/"
   xmlns:cc="http://creativecommons.org/ns#"
   xmlns:rdf="http://www.w3.org/1999/02/22-rdf-syntax-ns#"
   xmlns:svg="http://www.w3.org/2000/svg"
   xmlns="http://www.w3.org/2000/svg"
   xmlns:sodipodi="http://sodipodi.sourceforge.net/DTD/sodipodi-0.dtd"
   xmlns:inkscape="http://www.inkscape.org/namespaces/inkscape"
   width="400"
   height="400"
   viewBox="0 0 105.83333 105.83333"
   version="1.1"
   id="svg8"
   inkscape:version="0.92.3 (2405546, 2018-03-11)"
   sodipodi:docname="bird.svg">
  <defs
     id="defs2" />
  <sodipodi:namedview
     id="base"
     pagecolor="#ffffff"
     bordercolor="#666666"
     borderopacity="1.0"
     inkscape:pageopacity="0.0"
     inkscape:pageshadow="2"
     inkscape:zoom="2.8"
     inkscape:cx="194.74728"
     inkscape:cy="196.64777"
     inkscape:document-units="mm"
     inkscape:current-layer="g961"
     showgrid="false"
     units="px"
     width="400mm"
     inkscape:measure-start="0,0"
     inkscape:measure-end="0,0"
     inkscape:window-width="1853"
     inkscape:window-height="1025"
     inkscape:window-x="67"
     inkscape:window-y="27"
     inkscape:window-maximized="1" />
  <metadata
     id="metadata5">
    <rdf:RDF>
      <cc:Work
         rdf:about="">
        <dc:format>image/svg+xml</dc:format>
        <dc:type
           rdf:resource="http://purl.org/dc/dcmitype/StillImage" />
        <dc:title></dc:title>
      </cc:Work>
    </rdf:RDF>
  </metadata>
  <g
     inkscape:label="Layer 1"
     inkscape:groupmode="layer"
     id="layer1"
     transform="translate(0,-191.16667)">
    <g
       id="g951">
      <g
         id="g961"
         inkscape:transform-center-x="9.3928541"
         inkscape:transform-center-y="-19.928664"
         transform="rotate(-28.267271,42.159555,206.56417)"
         style="stroke:#000000;stroke-width:1;stroke-miterlimit:4;stroke-dasharray:none;stroke-opacity:1">
        <g
           id="g1027"
           inkscape:export-xdpi="100"
           inkscape:export-ydpi="100">
          <g
             id="g1009"
             transform="matrix(1.1620037,-0.04565743,-0.04565743,1.2223645,-2.576067,-37.564479)"
             inkscape:export-xdpi="100"
             inkscape:export-ydpi="100"
             style="fill:#1c1c24;stroke-width:0;stroke-miterlimit:4;stroke-dasharray:none">
            <path
               sodipodi:nodetypes="csssccccccscc"
               inkscape:connector-curvature="0"
               id="path995"
               transform="matrix(0.23303125,0.12530274,-0.12530274,0.23303125,12.319638,173.03671)"
               d="m 105.82227,83.957031 c -8.392258,12.20597 -5.30489,29.816039 -2.52344,44.365239 2.15343,11.26419 7.83873,21.86202 14.48633,31.20703 7.06767,9.93554 15.82891,19.16969 26.29101,25.43164 11.44246,6.84873 24.91116,10.2396 38.10156,12.20117 14.82188,2.20421 30.26411,2.32408 44.94922,-0.6582 10.78648,-2.19042 21.79446,-5.81647 30.58985,-12.4336 12.47199,-9.38314 21.39962,-23.13742 28.96093,-36.79101 9.87599,-17.83331 18.15023,-71.595189 18.15023,-71.595189 0,0 -24.21925,20.332995 -37.81625,21.480915 -13.53997,1.14309 -17.28117,-5.282731 -28.82327,-12.453328 -21.2986,-13.23186 -35.39353,-30.637845 -60.33883,-33.176542 -51.86863,-2.111653 -51.31308,2.871094 -72.02734,32.421875 z"
               style="fill:#1c1c24;stroke:#000000;stroke-width:0;stroke-linecap:butt;stroke-linejoin:miter;stroke-miterlimit:4;stroke-dasharray:none;stroke-opacity:1" />
            <g
               transform="matrix(0.66901366,0,0,0.57463488,5.1307927,91.408366)"
               style="fill:#1c1c24;stroke:#000000;stroke-width:0;stroke-miterlimit:4;stroke-dasharray:none;stroke-opacity:1"
               id="g1001">
              <path
                 style="fill:#1c1c24;stroke:#000000;stroke-width:0;stroke-linecap:butt;stroke-linejoin:miter;stroke-miterlimit:4;stroke-dasharray:none;stroke-opacity:1"
                 d="m 26.860586,210.67195 c -7.216277,-1.84551 -14.566188,3.62894 -21.7824651,7.08264 8.3852371,-0.44499 15.3976551,0.94044 21.6488301,3.34087 1.336695,-2.1158 1.645571,-7.59556 0.133635,-10.42351 z"
                 id="path997"
                 inkscape:connector-curvature="0"
                 sodipodi:nodetypes="cccc" />
              <path
                 style="fill:#1c1c24;stroke:#000000;stroke-width:0;stroke-linecap:butt;stroke-linejoin:miter;stroke-miterlimit:4;stroke-dasharray:none;stroke-opacity:1"
                 d="m 9.9453236,217.00622 c 2.7818844,4.31251 6.8011484,9.48115 13.4407594,10.63734 1.861488,-2.1827 2.499207,-4.3654 3.340868,-6.5481 -5.00948,-3.69374 -11.240516,-5.34707 -16.7816274,-4.08924 z"
                 id="path999"
                 inkscape:connector-curvature="0"
                 sodipodi:nodetypes="cccc" />
            </g>
            <rect
               ry="4.478898"
               y="213.00841"
               x="27.192539"
               height="8.9577961"
               width="9.2250662"
               id="rect1003"
               style="opacity:1;fill:#1c1c24;fill-opacity:1;stroke:#000000;stroke-width:0;stroke-miterlimit:4;stroke-dasharray:none;stroke-opacity:1" />
            <rect
               ry="2.1058152"
               y="214.74992"
               x="29.330694"
               height="4.4746461"
               width="4.2116303"
               id="rect1005"
               style="opacity:1;fill:#1c1c24;fill-opacity:1;stroke:#000000;stroke-width:0;stroke-miterlimit:4;stroke-dasharray:none;stroke-opacity:1" />
            <rect
               ry="0.66817379"
               y="215.80824"
               x="29.822039"
               height="1.3363476"
               width="1.6036172"
               id="rect1007"
               style="opacity:1;fill:#1c1c24;fill-opacity:1;stroke:#000000;stroke-width:0;stroke-miterlimit:4;stroke-dasharray:none;stroke-opacity:1" />
          </g>
          <g
             style="stroke-width:0;stroke-miterlimit:4;stroke-dasharray:none"
             inkscape:export-ydpi="100"
             inkscape:export-xdpi="100"
             transform="translate(-6.0940183,9.9147335)"
             id="g974">
            <path
               style="fill:#ffaaee;stroke:#000000;stroke-width:0;stroke-linecap:butt;stroke-linejoin:miter;stroke-miterlimit:4;stroke-dasharray:none;stroke-opacity:1"
               d="m 148.56836,33.972656 c -0.79425,0.07808 -1.80836,0.563567 -3.06445,1.539063 0,0 0.36856,17.720895 -6.26953,21.185547 0.19902,-8.595451 -2.15023,-24.788962 -7.66016,-20.892578 -4.90267,3.466905 -1.08689,11.876086 3.08203,21.230468 -6.18421,3.050142 -10.97311,-11.170918 -16.53711,-6.228515 -5.31455,4.720921 1.26068,10.570465 8.4668,13.693359 -8.29633,5.237187 -15.52063,11.83134 -20.76367,19.457031 -8.392258,12.20597 -5.30489,29.816039 -2.52344,44.365239 2.15343,11.26419 7.83873,21.86202 14.48633,31.20703 7.06767,9.93554 15.82891,19.16969 26.29101,25.43164 11.44246,6.84873 24.91116,10.2396 38.10156,12.20117 14.82188,2.20421 30.26411,2.32408 44.94922,-0.6582 10.78648,-2.19042 21.79446,-5.81647 30.58985,-12.4336 12.47199,-9.38314 21.39962,-23.13742 28.96093,-36.79101 9.87599,-17.83331 20.66211,-57.56055 20.66211,-57.56055 0,0 -18.88151,23.77005 -32.47851,24.91797 -13.53997,1.14309 -24.50282,-11.87042 -36.04492,-19.041017 -21.2986,-13.23186 -36.0215,-41.52185 -60.9668,-44.060547 -10.31526,-1.049787 -21.36057,0.400356 -31.875,3.857422 4.72918,-10.059198 6.94841,-21.848015 2.59375,-21.419922 z"
               transform="matrix(0.23303125,0.12530274,-0.12530274,0.23303125,12.319638,173.03671)"
               id="path114"
               inkscape:connector-curvature="0" />
            <g
               id="g124"
               style="fill:#ffdd55;stroke:#000000;stroke-width:0;stroke-miterlimit:4;stroke-dasharray:none;stroke-opacity:1"
               transform="matrix(0.66901366,0,0,0.57463488,5.1307927,91.408366)">
              <path
                 sodipodi:nodetypes="cccc"
                 inkscape:connector-curvature="0"
                 id="path118"
                 d="m 26.860586,210.67195 c -7.216277,-1.84551 -14.566188,3.62894 -21.7824651,7.08264 8.3852371,-0.44499 15.3976551,0.94044 21.6488301,3.34087 1.336695,-2.1158 1.645571,-7.59556 0.133635,-10.42351 z"
                 style="fill:#ffdd55;stroke:#000000;stroke-width:0;stroke-linecap:butt;stroke-linejoin:miter;stroke-miterlimit:4;stroke-dasharray:none;stroke-opacity:1" />
              <path
                 sodipodi:nodetypes="cccc"
                 inkscape:connector-curvature="0"
                 id="path120"
                 d="m 10.603761,216.89711 c 2.781884,4.31251 6.142711,9.59026 12.782322,10.74645 1.861488,-2.1827 2.499207,-4.3654 3.340868,-6.5481 -5.00948,-3.69374 -10.582079,-5.45618 -16.12319,-4.19835 z"
                 style="fill:#ffdd55;stroke:#000000;stroke-width:0;stroke-linecap:butt;stroke-linejoin:miter;stroke-miterlimit:4;stroke-dasharray:none;stroke-opacity:1" />
            </g>
            <rect
               style="opacity:1;fill:#f9f9f9;fill-opacity:1;stroke:#000000;stroke-width:0;stroke-miterlimit:4;stroke-dasharray:none;stroke-opacity:1"
               id="rect937"
               width="9.2250662"
               height="8.9577961"
               x="27.192539"
               y="213.00841"
               ry="4.478898" />
            <rect
               style="opacity:1;fill:#000000;fill-opacity:1;stroke:#000000;stroke-width:0;stroke-miterlimit:4;stroke-dasharray:none;stroke-opacity:1"
               id="rect939"
               width="4.2116303"
               height="4.4746461"
               x="29.330694"
               y="214.74992"
               ry="2.1058152" />
            <rect
               style="opacity:1;fill:#f9f9f9;fill-opacity:1;stroke:#000000;stroke-width:0;stroke-miterlimit:4;stroke-dasharray:none;stroke-opacity:1"
               id="rect941"
               width="1.6036172"
               height="1.3363476"
               x="29.822039"
               y="215.80824"
               ry="0.66817379" />
          </g>
        </g>
        <path
           inkscape:transform-center-y="5.4793271"
           inkscape:transform-center-x="-6.000115"
           sodipodi:nodetypes="aaaaccaaa"
           inkscape:connector-curvature="0"
           id="path116"
           d="m 9.2632758,260.45484 c 1.5321192,-0.63009 3.5355262,-0.68971 5.0246392,0.0242 3.227178,1.54716 4.846695,5.15551 6.37152,8.22265 0.57329,1.15314 -0.009,2.82681 0.98137,3.70097 1.300685,1.14798 5.281175,0.93832 5.281175,0.93832 -3.49633,7.00964 -15.632204,5.41088 -19.6568742,-0.32261 -0.870744,-1.38093 -1.22353,-3.17528 -1.350541,-4.87394 -0.121062,-1.6191 -0.134499,-3.35219 0.578804,-4.82964 0.565277,-1.17084 1.508774,-2.3413 2.769907,-2.85994 z"
           style="fill:#2b0022;stroke:#000000;stroke-width:0;stroke-linecap:butt;stroke-linejoin:miter;stroke-miterlimit:4;stroke-dasharray:none;stroke-opacity:1"
           inkscape:export-xdpi="100"
           inkscape:export-ydpi="100" />
      </g>
    </g>
  </g>
</svg>
