<?xml version="1.0" encoding="UTF-8" standalone="no"?>
<!-- Created with Inkscape (http://www.inkscape.org/) -->

<svg
   xmlns:dc="http://purl.org/dc/elements/1.1/"
   xmlns:cc="http://creativecommons.org/ns#"
   xmlns:rdf="http://www.w3.org/1999/02/22-rdf-syntax-ns#"
   xmlns:svg="http://www.w3.org/2000/svg"
   xmlns="http://www.w3.org/2000/svg"
   xmlns:sodipodi="http://sodipodi.sourceforge.net/DTD/sodipodi-0.dtd"
   xmlns:inkscape="http://www.inkscape.org/namespaces/inkscape"
   width="400"
   height="400"
   viewBox="0 0 105.83333 105.83334"
   version="1.1"
   id="svg868"
   inkscape:version="0.92.3 (2405546, 2018-03-11)"
   sodipodi:docname="bug.svg">
  <defs
     id="defs862" />
  <sodipodi:namedview
     id="base"
     pagecolor="#ffffff"
     bordercolor="#666666"
     borderopacity="1.0"
     inkscape:pageopacity="0.0"
     inkscape:pageshadow="2"
     inkscape:zoom="1.4"
     inkscape:cx="214.15677"
     inkscape:cy="111.85969"
     inkscape:document-units="mm"
     inkscape:current-layer="g1570"
     showgrid="false"
     units="px"
     inkscape:window-width="1853"
     inkscape:window-height="1025"
     inkscape:window-x="67"
     inkscape:window-y="27"
     inkscape:window-maximized="1" />
  <metadata
     id="metadata865">
    <rdf:RDF>
      <cc:Work
         rdf:about="">
        <dc:format>image/svg+xml</dc:format>
        <dc:type
           rdf:resource="http://purl.org/dc/dcmitype/StillImage" />
        <dc:title></dc:title>
      </cc:Work>
    </rdf:RDF>
  </metadata>
  <g
     inkscape:label="Layer 1"
     inkscape:groupmode="layer"
     id="layer1"
     transform="translate(0,-191.16665)">
    <g
       id="g1486"
       transform="matrix(0.83150486,0,0,1,14.460787,12.85119)"
       inkscape:export-xdpi="100"
       inkscape:export-ydpi="100">
      <g
         id="g1570"
         transform="translate(-14.318918,4.7247024)"
         inkscape:export-xdpi="100"
         inkscape:export-ydpi="100">
        <g
           id="g1594"
           inkscape:export-xdpi="100"
           inkscape:export-ydpi="100"
           transform="matrix(0.7713898,0,0,0.7713113,1.6714114,49.007673)">
          <path
             transform="matrix(1.2026388,0,0,1,-17.391103,-12.851189)"
             style="fill:#000000;stroke:#000000;stroke-width:0.26458332px;stroke-linecap:butt;stroke-linejoin:miter;stroke-opacity:1"
             d="m 32.876465,278.29016 c 18.935149,1.76042 42.609331,0.20929 63.683667,-1.13392 6.013978,-0.38331 5.541378,-14.34369 3.414568,-21.16667 -3.765577,-12.0803 -15.058471,-23.62421 -26.269343,-27.40328 -12.09482,-4.07704 -21.529915,2.06306 -31.938989,9.44941 -6.085982,4.31865 -11.55482,10.98273 -12.851191,18.33184 -1.05376,5.97374 -2.078641,21.36108 3.961288,21.92262 z"
             id="path1545"
             inkscape:connector-curvature="0"
             sodipodi:nodetypes="ssassss" />
          <path
             style="fill:#000000;stroke:#000000;stroke-width:0;stroke-linecap:butt;stroke-linejoin:miter;stroke-miterlimit:4;stroke-dasharray:none;stroke-opacity:1"
             d="m 20.425302,252.64428 c -4.351488,-0.1379 -8.184703,1.01989 -11.5282739,3.40179 4.0343769,-0.36219 7.9598209,-1.37798 12.4732149,1.13393 z"
             id="path1505"
             inkscape:connector-curvature="0"
             sodipodi:nodetypes="cccc" />
          <path
             style="fill:#000000;stroke:#000000;stroke-width:0;stroke-linecap:butt;stroke-linejoin:miter;stroke-miterlimit:4;stroke-dasharray:none;stroke-opacity:1"
             d="m 18.837801,259.59904 c -4.351488,0.1379 -8.184703,-1.01989 -11.5282728,-3.40179 4.0343758,0.36219 7.9598198,1.37798 12.4732138,-1.13393 z"
             id="path1505-7"
             inkscape:connector-curvature="0"
             sodipodi:nodetypes="cccc" />
          <path
             style="fill:#1c241f;stroke:#000000;stroke-width:0.26458332px;stroke-linecap:butt;stroke-linejoin:miter;stroke-opacity:1"
             d="m 14.330314,252.97703 c -6.2878438,-2.99302 -8.1074058,-6.58597 -4.8325008,-11.59802 0.7790308,-1.98932 1.5580618,-2.16728 2.3370948,-0.62888 -1.818655,2.47995 -7.4285208,8.65146 4.810632,11.17599 0.370197,1.77773 -0.677623,1.78293 -2.315226,1.05091 z"
             id="path1488-6"
             inkscape:connector-curvature="0"
             sodipodi:nodetypes="ccccc"
             inkscape:transform-center-x="4.4547287"
             inkscape:transform-center-y="-7.4930966" />
          <path
             style="fill:#1c241f;stroke:#000000;stroke-width:0.26458332px;stroke-linecap:butt;stroke-linejoin:miter;stroke-opacity:1"
             d="m 18.853978,250.07439 c -6.287843,-2.99302 -8.107405,-6.58597 -4.8325,-11.59802 0.779031,-1.98932 1.558062,-2.16728 2.337094,-0.62888 -1.818654,2.47995 -7.4285199,8.65146 4.810632,11.17599 0.370197,1.77773 -0.677623,1.78293 -2.315226,1.05091 z"
             id="path1488"
             inkscape:connector-curvature="0"
             sodipodi:nodetypes="ccccc"
             inkscape:transform-center-x="4.4547287"
             inkscape:transform-center-y="-7.4930966" />
          <path
             d="m 21.589919,247.40998 a 8.0319939,6.8980651 0 0 1 7.912969,6.9892 8.0319939,6.8980651 0 0 1 -8.126955,6.80569 8.0319939,6.8980651 0 0 1 -7.935877,-6.97002 8.0319939,6.8980651 0 0 1 8.104586,-6.82533 l -0.07304,6.89778 z"
             sodipodi:end="4.7214821"
             sodipodi:start="4.7271196"
             sodipodi:ry="6.8980651"
             sodipodi:rx="8.0319939"
             sodipodi:cy="254.3073"
             sodipodi:cx="21.471607"
             sodipodi:type="arc"
             id="path1444"
             style="opacity:1;fill:#000000;fill-opacity:1;stroke:#000000;stroke-width:0;stroke-miterlimit:4;stroke-dasharray:none;stroke-opacity:1" />
          <path
             sodipodi:nodetypes="saascscs"
             inkscape:connector-curvature="0"
             id="path1413"
             d="m 21.544643,248.99701 c -6.691876,1.0174 7.071711,-12.05888 12.662201,-15.875 10.022342,-6.84134 22.751608,-12.42093 34.773811,-10.77233 9.20994,1.26295 16.987455,8.42178 23.434521,15.11905 6.176179,6.41587 5.268262,22.48959 2.456847,22.48959 -7.951358,0.61303 -21.761272,1.25498 -33.402037,1.54233 -12.716007,0.31389 -25.97187,-0.61854 -38.413439,-0.40841 6.164774,-4.26792 4.31598,-12.98128 -1.511904,-12.09523 z"
             style="fill:#0055d4;stroke:#000000;stroke-width:0;stroke-linecap:butt;stroke-linejoin:miter;stroke-miterlimit:4;stroke-dasharray:none;stroke-opacity:1" />
          <path
             sodipodi:nodetypes="cccccc"
             inkscape:connector-curvature="0"
             id="path1431"
             d="m 21.544642,247.40952 c 8.012239,-1.7903 13.05794,-6.61011 26.647322,-11.03692 17.817173,-5.45448 32.694129,4.7538 48.002975,11.33929 1.431508,-8.97834 -5.700134,-13.80645 -10.583333,-18.89882 -13.741117,-9.43519 -24.721486,-8.22179 -34.962797,-4.15773 -12.261121,2.53605 -21.214829,10.9344 -30.691667,22.75418"
             style="fill:#2a7fff;stroke:#000000;stroke-width:0;stroke-linecap:butt;stroke-linejoin:miter;stroke-miterlimit:4;stroke-dasharray:none;stroke-opacity:1" />
          <path
             sodipodi:nodetypes="cccc"
             inkscape:connector-curvature="0"
             id="path1442"
             d="m 23.056547,261.09224 c 12.521325,-2.01587 25.552666,-4.03174 36.663689,-6.04761 12.148156,0.34521 24.007298,1.55747 35.151787,4.91369 -33.255063,2.83159 -51.878334,2.23825 -71.815476,1.13392 z"
             style="fill:#002255;stroke:#000000;stroke-width:0;stroke-linecap:butt;stroke-linejoin:miter;stroke-miterlimit:4;stroke-dasharray:none;stroke-opacity:1" />
          <g
             id="g1440">
            <path
               style="opacity:1;fill:#000000;fill-opacity:1;stroke:#000000;stroke-width:0;stroke-miterlimit:4;stroke-dasharray:none;stroke-opacity:1"
               id="path1415"
               sodipodi:type="arc"
               sodipodi:cx="58.680801"
               sodipodi:cy="241.53197"
               sodipodi:rx="5.3861609"
               sodipodi:ry="5.0081844"
               sodipodi:start="4.7271196"
               sodipodi:end="4.7214821"
               d="m 58.76014,236.52433 a 5.3861609,5.0081844 0 0 1 5.306344,5.07435 5.3861609,5.0081844 0 0 1 -5.44984,4.94112 5.3861609,5.0081844 0 0 1 -5.321706,-5.06043 5.3861609,5.0081844 0 0 1 5.43484,-4.95538 l -0.04898,5.00798 z" />
            <path
               style="opacity:1;fill:#000000;fill-opacity:1;stroke:#000000;stroke-width:0;stroke-miterlimit:4;stroke-dasharray:none;stroke-opacity:1"
               id="path1419"
               sodipodi:type="arc"
               sodipodi:cx="74.839287"
               sodipodi:cy="232.36604"
               sodipodi:rx="3.4017835"
               sodipodi:ry="3.4017839"
               sodipodi:start="4.7271196"
               sodipodi:end="4.7214821"
               d="m 74.889395,228.96463 a 3.4017835,3.4017839 0 0 1 3.351373,3.44673 3.4017835,3.4017839 0 0 1 -3.442002,3.35623 3.4017835,3.4017839 0 0 1 -3.361075,-3.43727 3.4017835,3.4017839 0 0 1 3.432528,-3.36592 l -0.03093,3.40164 z" />
            <path
               style="opacity:1;fill:#000000;fill-opacity:1;stroke:#000000;stroke-width:0;stroke-miterlimit:4;stroke-dasharray:none;stroke-opacity:1"
               id="path1421"
               sodipodi:type="arc"
               sodipodi:cx="71.343002"
               sodipodi:cy="254.09969"
               sodipodi:rx="3.6852679"
               sodipodi:ry="3.5907736"
               sodipodi:start="4.7271196"
               sodipodi:end="4.7214821"
               d="m 71.397287,250.5093 a 3.6852679,3.5907736 0 0 1 3.630656,3.63822 3.6852679,3.5907736 0 0 1 -3.728838,3.54268 3.6852679,3.5907736 0 0 1 -3.641167,-3.62823 3.6852679,3.5907736 0 0 1 3.718574,-3.55291 l -0.03351,3.59063 z" />
            <path
               style="opacity:1;fill:#000000;fill-opacity:1;stroke:#000000;stroke-width:0;stroke-miterlimit:4;stroke-dasharray:none;stroke-opacity:1"
               id="path1423"
               sodipodi:type="arc"
               sodipodi:cx="33.734375"
               sodipodi:cy="248.43004"
               sodipodi:rx="2.5513394"
               sodipodi:ry="1.8898809"
               sodipodi:start="4.7271196"
               sodipodi:end="4.7214821"
               d="m 33.771956,246.54036 a 2.5513394,1.8898809 0 0 1 2.513532,1.91485 2.5513394,1.8898809 0 0 1 -2.581504,1.86458 2.5513394,1.8898809 0 0 1 -2.520808,-1.9096 2.5513394,1.8898809 0 0 1 2.574398,-1.86995 l -0.0232,1.8898 z" />
            <path
               style="opacity:1;fill:#000000;fill-opacity:1;stroke:#000000;stroke-width:0;stroke-miterlimit:4;stroke-dasharray:none;stroke-opacity:1"
               id="path1425"
               sodipodi:type="arc"
               sodipodi:cx="46.018597"
               sodipodi:cy="253.24924"
               sodipodi:rx="4.4412203"
               sodipodi:ry="4.6302085"
               sodipodi:start="4.7271196"
               sodipodi:end="4.7214821"
               d="m 46.084016,248.61953 a 4.4412203,4.6302085 0 0 1 4.375407,4.69139 4.4412203,4.6302085 0 0 1 -4.493728,4.5682 4.4412203,4.6302085 0 0 1 -4.388074,-4.67851 4.4412203,4.6302085 0 0 1 4.48136,-4.58139 l -0.04038,4.63002 z" />
            <path
               style="opacity:1;fill:#000000;fill-opacity:1;stroke:#000000;stroke-width:0;stroke-miterlimit:4;stroke-dasharray:none;stroke-opacity:1"
               id="path1427"
               sodipodi:type="arc"
               sodipodi:cx="44.034225"
               sodipodi:cy="237.56322"
               sodipodi:rx="3.2127976"
               sodipodi:ry="2.9293153"
               sodipodi:start="4.7271196"
               sodipodi:end="4.7214821"
               d="m 44.08155,234.63422 a 3.2127976,2.9293153 0 0 1 3.165188,2.96802 3.2127976,2.9293153 0 0 1 -3.250782,2.89008 3.2127976,2.9293153 0 0 1 -3.174351,-2.95987 3.2127976,2.9293153 0 0 1 3.241834,-2.89843 l -0.02921,2.9292 z" />
            <path
               style="opacity:1;fill:#000000;fill-opacity:1;stroke:#000000;stroke-width:0;stroke-miterlimit:4;stroke-dasharray:none;stroke-opacity:1"
               id="path1429"
               sodipodi:type="arc"
               sodipodi:cx="85.800598"
               sodipodi:cy="249.09149"
               sodipodi:rx="2.6458323"
               sodipodi:ry="2.9293149"
               sodipodi:start="4.7271196"
               sodipodi:end="4.7214821"
               d="m 85.839571,246.16249 a 2.6458323,2.9293149 0 0 1 2.606625,2.96802 2.6458323,2.9293149 0 0 1 -2.677114,2.89009 2.6458323,2.9293149 0 0 1 -2.61417,-2.95987 2.6458323,2.9293149 0 0 1 2.669745,-2.89843 l -0.02406,2.92919 z" />
          </g>
          <path
             d="m 18.871464,250.07457 a 3.1019676,2.6455398 0 0 1 3.056,2.68049 3.1019676,2.6455398 0 0 1 -3.138642,2.61011 3.1019676,2.6455398 0 0 1 -3.064847,-2.67314 3.1019676,2.6455398 0 0 1 3.130003,-2.61764 l -0.02821,2.64543 z"
             sodipodi:end="4.7214821"
             sodipodi:start="4.7271196"
             sodipodi:ry="2.6455398"
             sodipodi:rx="3.1019676"
             sodipodi:cy="252.71982"
             sodipodi:cx="18.825771"
             sodipodi:type="arc"
             id="path1446"
             style="opacity:1;fill:#ffffff;fill-opacity:1;stroke:#000000;stroke-width:0;stroke-miterlimit:4;stroke-dasharray:none;stroke-opacity:1" />
          <path
             d="m 18.859177,250.64117 a 2.2678571,2.0788691 0 0 1 2.23425,2.10634 2.2678571,2.0788691 0 0 1 -2.294669,2.05103 2.2678571,2.0788691 0 0 1 -2.240719,-2.10055 2.2678571,2.0788691 0 0 1 2.288354,-2.05696 l -0.02062,2.07879 z"
             sodipodi:end="4.7214821"
             sodipodi:start="4.7271196"
             sodipodi:ry="2.0788691"
             sodipodi:rx="2.2678571"
             sodipodi:cy="252.71982"
             sodipodi:cx="18.825771"
             sodipodi:type="arc"
             id="path1448"
             style="opacity:1;fill:#000000;fill-opacity:1;stroke:#000000;stroke-width:0;stroke-miterlimit:4;stroke-dasharray:none;stroke-opacity:1" />
          <path
             d="m 18.85172,250.6411 a 0.94494045,0.94494045 0 0 1 0.930938,0.95742 0.94494045,0.94494045 0 0 1 -0.956113,0.93229 0.94494045,0.94494045 0 0 1 -0.933632,-0.9548 0.94494045,0.94494045 0 0 1 0.95348,-0.93497 l -0.0086,0.9449 z"
             sodipodi:end="4.7214821"
             sodipodi:start="4.7271196"
             sodipodi:ry="0.94494045"
             sodipodi:rx="0.94494045"
             sodipodi:cy="251.58594"
             sodipodi:cx="18.837801"
             sodipodi:type="arc"
             id="path1450"
             style="opacity:1;fill:#ffffff;fill-opacity:1;stroke:#000000;stroke-width:0;stroke-miterlimit:4;stroke-dasharray:none;stroke-opacity:1" />
          <path
             sodipodi:nodetypes="cccc"
             inkscape:connector-curvature="0"
             id="path1452"
             d="m 44.034226,226.69641 c 14.402661,-3.66616 28.172601,-1.20237 41.577378,2.11666 -5.535168,-4.27574 -11.547266,-6.16683 -17.57589,-7.97529 -9.058636,-0.53711 -16.345844,3.1221 -24.001488,5.85863 z"
             style="fill:#aaccff;stroke:#000000;stroke-width:0;stroke-linecap:butt;stroke-linejoin:miter;stroke-miterlimit:4;stroke-dasharray:none;stroke-opacity:1" />
          <path
             style="opacity:1;fill:#000000;fill-opacity:1;stroke:#000000;stroke-width:0;stroke-miterlimit:4;stroke-dasharray:none;stroke-opacity:1"
             id="path1419-3"
             sodipodi:type="arc"
             sodipodi:cx="60.85416"
             sodipodi:cy="226.12946"
             sodipodi:rx="2.456845"
             sodipodi:ry="2.4568453"
             sodipodi:start="4.7271196"
             sodipodi:end="4.7214821"
             d="m 60.89035,223.67288 a 2.456845,2.4568453 0 0 1 2.420437,2.4893 2.456845,2.4568453 0 0 1 -2.485892,2.42395 2.456845,2.4568453 0 0 1 -2.427444,-2.48248 2.456845,2.4568453 0 0 1 2.479049,-2.43094 l -0.02234,2.45675 z" />
        </g>
      </g>
    </g>
  </g>
</svg>
